<svg width="26" height="26" viewBox="0 0 26 26" fill="none" xmlns="http://www.w3.org/2000/svg">
<circle cx="13" cy="13" r="13" fill="#F3BA2F"/>
<g clip-path="url(#clip0_844:5952)">
<path d="M9.84592 11.7031L13.002 8.54829L16.1593 11.7056L17.9947 9.86898L13.002 4.875L8.00928 9.86769L9.84592 11.7031Z" fill="white"/>
<path d="M4.875 13.0007L6.71036 11.1641L8.547 13.0007L6.71036 14.8361L4.875 13.0007Z" fill="white"/>
<path d="M9.84592 14.2969L13.002 17.453L16.1593 14.2957L17.996 16.1297L13.0033 21.1237L8.00928 16.1336L9.84592 14.2969Z" fill="white"/>
<path d="M17.4531 13.0007L19.2885 11.1641L21.1251 12.9994L19.2885 14.8374L17.4531 13.0007Z" fill="white"/>
<path d="M14.8643 12.9993L13.002 11.1357L11.6248 12.5129L11.4656 12.6708L11.1396 12.9968L13.002 14.8578L14.8643 13.0006V12.9993Z" fill="white"/>
</g>
<defs>
<clipPath id="clip0_844:5952">
<rect width="16.25" height="16.25" fill="white" transform="translate(4.875 4.875)"/>
</clipPath>
</defs>
</svg>
