<svg width="26" height="26" viewBox="0 0 26 26" fill="none" xmlns="http://www.w3.org/2000/svg">
<circle cx="13" cy="13" r="13" fill="#0D0234"/>
<path d="M10.5861 9.07701C11.3097 8.60627 12.1097 8.36742 12.9862 8.36742C13.8535 8.3651 14.6535 8.60395 15.3886 9.08397L16.9284 7.5442C15.7318 6.62591 14.417 6.16444 12.9862 6.16676C11.5485 6.16908 10.236 6.62591 9.04639 7.54188L10.5861 9.07701Z" fill="white"/>
<path d="M9.06969 15.4029C8.58039 14.6609 8.33691 13.8585 8.33923 12.9982C8.34154 12.124 8.58271 11.3239 9.06505 10.5958L7.52992 9.05835C6.62786 10.234 6.17567 11.5466 6.17335 12.9982C6.17103 14.4359 6.62554 15.7484 7.53456 16.9404L9.06969 15.4029Z" fill="white"/>
<path d="M15.4024 16.9312C14.672 17.4228 13.8719 17.6732 13.0024 17.6802C12.1188 17.6871 11.3095 17.4367 10.5744 16.9358L9.04395 18.4663C10.2336 19.3915 11.5553 19.8484 13.0116 19.8368C14.4517 19.8252 15.7596 19.3683 16.9353 18.464L15.4024 16.9312Z" fill="white"/>
<path d="M16.9169 10.5936C17.4108 11.338 17.652 12.1542 17.6427 13.0424C17.6334 13.898 17.3899 14.6865 16.9146 15.4077L18.452 16.9451C19.3563 15.7671 19.8155 14.4592 19.8271 13.0238C19.8387 11.5675 19.3819 10.2458 18.4566 9.05615L16.9169 10.5936Z" fill="white"/>
<path d="M18.4272 18.5776C18.404 18.5544 18.3924 18.5266 18.3924 18.4964C18.3924 18.4663 18.404 18.4385 18.4272 18.4153C18.4712 18.3712 18.5431 18.3712 18.5895 18.4153C18.6127 18.4385 18.6243 18.4663 18.6243 18.4964C18.6243 18.5266 18.6127 18.5544 18.5895 18.5776C18.5663 18.6008 18.5385 18.6101 18.5083 18.6101C18.4782 18.6101 18.4503 18.5985 18.4272 18.5776ZM18.1025 18.2529C18.0793 18.2298 18.07 18.2019 18.07 18.1718C18.07 18.1416 18.0816 18.1138 18.1025 18.0906C18.1466 18.0466 18.2208 18.0466 18.2648 18.0906C18.288 18.1138 18.2973 18.1416 18.2973 18.1718C18.2973 18.2019 18.2857 18.2298 18.2648 18.2529C18.2416 18.2761 18.2138 18.2854 18.1837 18.2854C18.1558 18.2854 18.1257 18.2761 18.1025 18.2529ZM17.7802 17.9283C17.757 17.9051 17.7454 17.8773 17.7454 17.8471C17.7454 17.817 17.757 17.7892 17.7802 17.766C17.8242 17.7219 17.8984 17.7219 17.9425 17.766C17.9657 17.7892 17.975 17.817 17.975 17.8471C17.975 17.8773 17.9634 17.9051 17.9425 17.9283C17.9193 17.9515 17.8915 17.9631 17.8613 17.9631C17.8312 17.9631 17.801 17.9515 17.7802 17.9283ZM17.4555 17.6037C17.4323 17.5805 17.4231 17.5526 17.4231 17.5225C17.4231 17.4923 17.4347 17.4645 17.4555 17.4413C17.4996 17.3973 17.5738 17.3973 17.6179 17.4413C17.641 17.4645 17.6503 17.4923 17.6503 17.5225C17.6503 17.5526 17.6387 17.5805 17.6179 17.6037C17.5947 17.6268 17.5668 17.6384 17.5367 17.6384C17.5065 17.6384 17.4787 17.6268 17.4555 17.6037ZM17.1309 17.2813C17.1077 17.2581 17.0961 17.2303 17.0961 17.2002C17.0961 17.17 17.1077 17.1422 17.1309 17.119C17.1749 17.0749 17.2468 17.0749 17.2932 17.119C17.3164 17.1422 17.3257 17.17 17.3257 17.2002C17.3257 17.2303 17.3141 17.2581 17.2932 17.2813C17.27 17.3045 17.2422 17.3138 17.212 17.3138C17.1842 17.3138 17.1541 17.3022 17.1309 17.2813ZM16.8086 16.9567C16.7854 16.9335 16.7738 16.9057 16.7738 16.8755C16.7738 16.8454 16.7854 16.8175 16.8086 16.7943C16.8526 16.7503 16.9245 16.7503 16.9709 16.7943C16.9941 16.8175 17.0057 16.8454 17.0057 16.8755C17.0057 16.9057 16.9941 16.9335 16.9709 16.9567C16.9477 16.9799 16.9199 16.9891 16.8897 16.9891C16.8596 16.9891 16.8294 16.9799 16.8086 16.9567ZM16.4839 16.632C16.4607 16.6088 16.4514 16.581 16.4514 16.5509C16.4514 16.5207 16.463 16.4929 16.4839 16.4697C16.528 16.4256 16.6022 16.4256 16.6462 16.4697C16.6694 16.4929 16.681 16.5207 16.681 16.5509C16.681 16.581 16.6694 16.6088 16.6462 16.632C16.623 16.6552 16.5952 16.6668 16.5651 16.6668C16.5349 16.6668 16.5071 16.6552 16.4839 16.632ZM16.1593 16.3097C16.1361 16.2865 16.1245 16.2587 16.1245 16.2285C16.1245 16.1984 16.1361 16.1706 16.1593 16.1474C16.2033 16.1033 16.2775 16.1033 16.3216 16.1474C16.3448 16.1706 16.354 16.1984 16.354 16.2285C16.354 16.2587 16.3424 16.2865 16.3216 16.3097C16.2984 16.3329 16.2706 16.3422 16.2404 16.3422C16.2126 16.3422 16.1824 16.3306 16.1593 16.3097ZM15.8346 15.985C15.8114 15.9619 15.7998 15.934 15.7998 15.9039C15.7998 15.8737 15.8114 15.8459 15.8346 15.8227C15.8787 15.7787 15.9529 15.7787 15.9969 15.8227C16.0201 15.8459 16.0317 15.8737 16.0317 15.9039C16.0317 15.934 16.0201 15.9619 15.9969 15.985C15.9737 16.0082 15.9459 16.0198 15.9158 16.0198C15.8879 16.0175 15.8578 16.0059 15.8346 15.985ZM15.5123 15.6604C15.4891 15.6372 15.4775 15.6094 15.4775 15.5792C15.4775 15.5491 15.4891 15.5213 15.5123 15.4981C15.5563 15.454 15.6282 15.454 15.6746 15.4981C15.6978 15.5213 15.7094 15.5491 15.7094 15.5792C15.7094 15.6094 15.6978 15.6372 15.6746 15.6604C15.6514 15.6836 15.6236 15.6952 15.5934 15.6952C15.5633 15.6952 15.5331 15.6836 15.5123 15.6604ZM15.1876 15.3381C15.1644 15.3149 15.1528 15.2871 15.1528 15.2569C15.1528 15.2268 15.1644 15.1989 15.1876 15.1757C15.2317 15.1317 15.3036 15.1317 15.3499 15.1757C15.3731 15.1989 15.3847 15.2268 15.3847 15.2569C15.3847 15.2871 15.3731 15.3149 15.3499 15.3381C15.3268 15.3613 15.2989 15.3705 15.2688 15.3705C15.2386 15.3705 15.2108 15.3589 15.1876 15.3381ZM14.863 15.0134C14.8398 14.9902 14.8305 14.9624 14.8305 14.9323C14.8305 14.9021 14.8421 14.8743 14.863 14.8511C14.907 14.807 14.9812 14.807 15.0253 14.8511C15.0485 14.8743 15.0601 14.9021 15.0601 14.9323C15.0601 14.9624 15.0485 14.9902 15.0253 15.0134C15.0021 15.0366 14.9743 15.0482 14.9441 15.0482C14.9163 15.0459 14.8862 15.0343 14.863 15.0134ZM14.5406 14.6888C14.5175 14.6656 14.5082 14.6378 14.5082 14.6076C14.5082 14.5775 14.5198 14.5496 14.5406 14.5264C14.5847 14.4824 14.6589 14.4824 14.703 14.5264C14.7262 14.5496 14.7378 14.5775 14.7378 14.6076C14.7378 14.6378 14.7262 14.6656 14.703 14.6888C14.6798 14.712 14.652 14.7236 14.6218 14.7236C14.5917 14.7212 14.5615 14.712 14.5406 14.6888ZM14.216 14.3641C14.1928 14.3409 14.1812 14.3131 14.1812 14.283C14.1812 14.2528 14.1928 14.225 14.216 14.2018C14.2601 14.1577 14.3343 14.1577 14.3783 14.2018C14.4015 14.225 14.4108 14.2528 14.4108 14.283C14.4108 14.3131 14.3992 14.3409 14.3783 14.3641C14.3551 14.3873 14.3273 14.3989 14.2972 14.3989C14.267 14.3989 14.2369 14.3873 14.216 14.3641ZM13.8913 14.0418C13.8682 14.0186 13.8566 13.9908 13.8566 13.9606C13.8566 13.9305 13.8682 13.9027 13.8913 13.8795C13.9354 13.8354 14.0096 13.8354 14.0537 13.8795C14.0769 13.9027 14.0885 13.9305 14.0885 13.9606C14.0885 13.9908 14.0769 14.0186 14.0537 14.0418C14.0305 14.065 14.0027 14.0766 13.9725 14.0766C13.9424 14.0743 13.9145 14.0627 13.8913 14.0418ZM13.569 13.7171C13.5458 13.694 13.5342 13.6661 13.5342 13.636C13.5342 13.6058 13.5458 13.578 13.569 13.5548C13.6131 13.5108 13.685 13.5108 13.7313 13.5548C13.7545 13.578 13.7661 13.6058 13.7661 13.636C13.7661 13.6661 13.7545 13.694 13.7313 13.7171C13.7082 13.7403 13.6803 13.7496 13.6502 13.7496C13.62 13.7496 13.5899 13.738 13.569 13.7171ZM13.2444 13.3925C13.2212 13.3693 13.2119 13.3415 13.2119 13.3113C13.2119 13.2812 13.2235 13.2534 13.2444 13.2302C13.2884 13.1861 13.3626 13.1861 13.4067 13.2302C13.4299 13.2534 13.4415 13.2812 13.4415 13.3113C13.4415 13.3415 13.4299 13.3693 13.4067 13.3925C13.3835 13.4157 13.3557 13.425 13.3255 13.425C13.2954 13.4273 13.2652 13.4157 13.2444 13.3925ZM12.9197 13.0678C12.8965 13.0447 12.8873 13.0168 12.8873 12.9867C12.8873 12.9565 12.8988 12.9287 12.9197 12.9055C12.9638 12.8615 13.038 12.8615 13.082 12.9055C13.1052 12.9287 13.1145 12.9565 13.1145 12.9867C13.1145 13.0168 13.1029 13.0447 13.082 13.0678C13.0589 13.091 13.031 13.1026 13.0009 13.1026C12.9707 13.1026 12.9429 13.091 12.9197 13.0678ZM12.5951 12.7455C12.5719 12.7223 12.5603 12.6945 12.5603 12.6644C12.5603 12.6342 12.5719 12.6064 12.5951 12.5832C12.6391 12.5391 12.7133 12.5391 12.7574 12.5832C12.7806 12.6064 12.7899 12.6342 12.7899 12.6644C12.7899 12.6945 12.7783 12.7223 12.7574 12.7455C12.7342 12.7687 12.7064 12.7803 12.6762 12.7803C12.6484 12.778 12.6183 12.7664 12.5951 12.7455ZM12.2727 12.4209C12.2495 12.3977 12.238 12.3699 12.238 12.3397C12.238 12.3096 12.2495 12.2817 12.2727 12.2585C12.3168 12.2145 12.391 12.2145 12.4351 12.2585C12.4583 12.2817 12.4675 12.3096 12.4675 12.3397C12.4675 12.3699 12.4559 12.3977 12.4351 12.4209C12.4119 12.4441 12.384 12.4533 12.3539 12.4533C12.3238 12.4533 12.2936 12.4441 12.2727 12.4209ZM11.9481 12.0962C11.9249 12.073 11.9133 12.0452 11.9133 12.0151C11.9133 11.9849 11.9249 11.9571 11.9481 11.9339C11.9921 11.8898 12.064 11.8898 12.1104 11.9339C12.1336 11.9571 12.1452 11.9849 12.1452 12.0151C12.1452 12.0452 12.1336 12.073 12.1104 12.0962C12.0872 12.1194 12.0594 12.131 12.0293 12.131C11.9991 12.131 11.969 12.1194 11.9481 12.0962ZM11.6234 11.7739C11.6003 11.7507 11.591 11.7229 11.591 11.6927C11.591 11.6626 11.6026 11.6348 11.6234 11.6116C11.6675 11.5675 11.7417 11.5675 11.7858 11.6116C11.809 11.6348 11.8205 11.6626 11.8205 11.6927C11.8205 11.7229 11.809 11.7507 11.7858 11.7739C11.7626 11.7971 11.7347 11.8064 11.7046 11.8064C11.6745 11.8064 11.6466 11.7948 11.6234 11.7739ZM11.2988 11.4492C11.2756 11.4261 11.264 11.3982 11.264 11.3681C11.264 11.3379 11.2756 11.3101 11.2988 11.2869C11.3429 11.2429 11.4147 11.2429 11.4611 11.2869C11.4843 11.3101 11.4936 11.3379 11.4936 11.3681C11.4936 11.3982 11.482 11.4261 11.4611 11.4492C11.4379 11.4724 11.4101 11.4817 11.38 11.4817C11.3521 11.4817 11.322 11.4701 11.2988 11.4492ZM10.9765 11.1246C10.9533 11.1014 10.944 11.0736 10.944 11.0434C10.944 11.0133 10.9556 10.9855 10.9765 10.9623C11.0205 10.9182 11.0947 10.9182 11.1388 10.9623C11.162 10.9855 11.1736 11.0133 11.1736 11.0434C11.1736 11.0736 11.162 11.1014 11.1388 11.1246C11.1156 11.1478 11.0878 11.1594 11.0576 11.1594C11.0275 11.1594 10.9973 11.1478 10.9765 11.1246ZM10.6518 10.7999C10.6286 10.7768 10.6193 10.7489 10.6193 10.7188C10.6193 10.6886 10.6309 10.6608 10.6518 10.6376C10.6959 10.5936 10.7701 10.5936 10.8141 10.6376C10.8373 10.6608 10.8466 10.6886 10.8466 10.7188C10.8466 10.7489 10.835 10.7768 10.8141 10.7999C10.7909 10.8231 10.7631 10.8347 10.733 10.8347C10.7028 10.8347 10.675 10.8231 10.6518 10.7999ZM10.3272 10.4776C10.304 10.4544 10.2924 10.4266 10.2924 10.3965C10.2924 10.3663 10.304 10.3385 10.3272 10.3153C10.3712 10.2712 10.4454 10.2712 10.4895 10.3153C10.5127 10.3385 10.522 10.3663 10.522 10.3965C10.522 10.4266 10.5104 10.4544 10.4895 10.4776C10.4663 10.5008 10.4385 10.5101 10.4083 10.5101C10.3805 10.5101 10.3504 10.4985 10.3272 10.4776ZM10.0048 10.153C9.98164 10.1298 9.97237 10.1019 9.97237 10.0718C9.97237 10.0417 9.98396 10.0138 10.0048 9.99064C10.0489 9.94658 10.1231 9.94658 10.1672 9.99064C10.1903 10.0138 10.2019 10.0417 10.2019 10.0718C10.2019 10.1019 10.1903 10.1298 10.1672 10.153C10.144 10.1762 10.1161 10.1854 10.086 10.1854C10.0558 10.1854 10.0257 10.1762 10.0048 10.153ZM9.68018 9.82832C9.65699 9.80513 9.6454 9.7773 9.6454 9.74715C9.6454 9.71701 9.65699 9.68918 9.68018 9.66599C9.72424 9.62193 9.79613 9.62193 9.84251 9.66599C9.8657 9.68918 9.87497 9.71701 9.87497 9.74715C9.87497 9.7773 9.86338 9.80513 9.84251 9.82832C9.81932 9.8515 9.79149 9.8631 9.76134 9.8631C9.7312 9.8631 9.70337 9.8515 9.68018 9.82832ZM9.35553 9.50367C9.33234 9.48048 9.32307 9.45265 9.32307 9.4225C9.32307 9.39236 9.33466 9.36453 9.35553 9.34134C9.39959 9.29728 9.4738 9.29728 9.51786 9.34134C9.54105 9.36453 9.55264 9.39236 9.55264 9.4225C9.55264 9.45265 9.54105 9.48048 9.51786 9.50367C9.49467 9.52686 9.46684 9.53613 9.4367 9.53613C9.40655 9.53845 9.37872 9.52686 9.35553 9.50367ZM9.03088 9.18134C9.00769 9.15815 8.9961 9.13032 8.9961 9.10017C8.9961 9.07003 9.00769 9.0422 9.03088 9.01901C9.07494 8.97495 9.14915 8.97495 9.19321 9.01901C9.2164 9.0422 9.22567 9.07003 9.22567 9.10017C9.22567 9.13032 9.21408 9.15815 9.19321 9.18134C9.17002 9.20453 9.14219 9.21612 9.11205 9.21612C9.08422 9.2138 9.05407 9.20221 9.03088 9.18134ZM8.70855 8.85669C8.68536 8.8335 8.67609 8.80567 8.67609 8.77553C8.67609 8.74538 8.68768 8.71755 8.70855 8.69436C8.75261 8.6503 8.82682 8.6503 8.87088 8.69436C8.89407 8.71755 8.90566 8.74538 8.90566 8.77553C8.90566 8.80567 8.89407 8.8335 8.87088 8.85669C8.84769 8.87988 8.81986 8.88915 8.78972 8.88915C8.75957 8.89147 8.72942 8.87988 8.70855 8.85669ZM8.3839 8.53204C8.36072 8.50885 8.34912 8.48102 8.34912 8.45088C8.34912 8.42073 8.36072 8.3929 8.3839 8.36971C8.42796 8.32566 8.49985 8.32566 8.54623 8.36971C8.56942 8.3929 8.57869 8.42073 8.57869 8.45088C8.57869 8.48102 8.5671 8.50885 8.54623 8.53204C8.52304 8.55523 8.49521 8.56682 8.46507 8.56682C8.43492 8.56682 8.40709 8.55523 8.3839 8.53204Z" fill="white"/>
<path d="M7.41235 18.5776C7.38916 18.5544 7.37988 18.5265 7.37988 18.4964C7.37988 18.4663 7.39148 18.4384 7.41235 18.4152C7.45641 18.3712 7.53061 18.3712 7.57467 18.4152C7.59786 18.4384 7.60946 18.4663 7.60946 18.4964C7.60946 18.5265 7.59786 18.5544 7.57467 18.5776C7.55148 18.6008 7.52366 18.61 7.49351 18.61C7.46336 18.61 7.43322 18.5984 7.41235 18.5776ZM7.737 18.2529C7.71381 18.2297 7.70221 18.2019 7.70221 18.1718C7.70221 18.1416 7.71381 18.1138 7.737 18.0906C7.78106 18.0465 7.85526 18.0465 7.89932 18.0906C7.92251 18.1138 7.93178 18.1416 7.93178 18.1718C7.93178 18.2019 7.92019 18.2297 7.89932 18.2529C7.87613 18.2761 7.8483 18.2854 7.81816 18.2854C7.78801 18.2854 7.75787 18.2761 7.737 18.2529ZM8.05932 17.9283C8.03614 17.9051 8.02686 17.8773 8.02686 17.8471C8.02686 17.817 8.03845 17.7891 8.05932 17.7659C8.10338 17.7219 8.17759 17.7219 8.22165 17.7659C8.24484 17.7891 8.25411 17.817 8.25411 17.8471C8.25411 17.8773 8.24252 17.9051 8.22165 17.9283C8.19846 17.9515 8.17063 17.9631 8.14049 17.9631C8.11266 17.9631 8.08251 17.9515 8.05932 17.9283ZM8.38397 17.6036C8.36078 17.5804 8.35151 17.5526 8.35151 17.5225C8.35151 17.4923 8.3631 17.4645 8.38397 17.4413C8.42803 17.3972 8.50224 17.3972 8.5463 17.4413C8.56949 17.4645 8.58108 17.4923 8.58108 17.5225C8.58108 17.5526 8.56949 17.5804 8.5463 17.6036C8.52311 17.6268 8.49528 17.6384 8.46514 17.6384C8.43499 17.6384 8.40716 17.6268 8.38397 17.6036ZM8.70862 17.2813C8.68543 17.2581 8.67384 17.2303 8.67384 17.2001C8.67384 17.17 8.68543 17.1422 8.70862 17.119C8.75268 17.0749 8.82457 17.0749 8.87095 17.119C8.89413 17.1422 8.90573 17.17 8.90573 17.2001C8.90573 17.2303 8.89413 17.2581 8.87095 17.2813C8.84776 17.3045 8.81993 17.3138 8.78978 17.3138C8.75964 17.3138 8.72949 17.3022 8.70862 17.2813ZM9.03095 16.9566C9.00776 16.9334 8.99849 16.9056 8.99849 16.8755C8.99849 16.8453 9.01008 16.8175 9.03095 16.7943C9.07501 16.7503 9.14922 16.7503 9.19327 16.7943C9.21646 16.8175 9.22806 16.8453 9.22806 16.8755C9.22806 16.9056 9.21646 16.9334 9.19327 16.9566C9.17009 16.9798 9.14226 16.9891 9.11211 16.9891C9.08429 16.9891 9.05414 16.9798 9.03095 16.9566ZM9.3556 16.632C9.33241 16.6088 9.32081 16.581 9.32081 16.5508C9.32081 16.5207 9.33241 16.4929 9.3556 16.4697C9.39966 16.4256 9.47386 16.4256 9.51792 16.4697C9.54111 16.4929 9.55039 16.5207 9.55039 16.5508C9.55039 16.581 9.53879 16.6088 9.51792 16.632C9.49473 16.6552 9.46691 16.6668 9.43676 16.6668C9.40661 16.6668 9.37879 16.6552 9.3556 16.632ZM9.68025 16.3097C9.65706 16.2865 9.64546 16.2586 9.64546 16.2285C9.64546 16.1984 9.65706 16.1705 9.68025 16.1473C9.72431 16.1033 9.79851 16.1033 9.84257 16.1473C9.86576 16.1705 9.87735 16.1984 9.87735 16.2285C9.87735 16.2586 9.86576 16.2865 9.84257 16.3097C9.81938 16.3328 9.79155 16.3421 9.76141 16.3421C9.73126 16.3421 9.70344 16.3305 9.68025 16.3097ZM10.0049 15.985C9.98171 15.9618 9.97243 15.934 9.97243 15.9038C9.97243 15.8737 9.98403 15.8459 10.0049 15.8227C10.049 15.7786 10.1232 15.7786 10.1672 15.8227C10.1904 15.8459 10.1997 15.8737 10.1997 15.9038C10.1997 15.934 10.1881 15.9618 10.1672 15.985C10.144 16.0082 10.1162 16.0198 10.0861 16.0198C10.0559 16.0175 10.0258 16.0059 10.0049 15.985ZM10.3272 15.6604C10.304 15.6372 10.2948 15.6093 10.2948 15.5792C10.2948 15.5491 10.3064 15.5212 10.3272 15.498C10.3713 15.454 10.4455 15.454 10.4895 15.498C10.5127 15.5212 10.5243 15.5491 10.5243 15.5792C10.5243 15.6093 10.5127 15.6372 10.4895 15.6604C10.4664 15.6835 10.4385 15.6951 10.4084 15.6951C10.3806 15.6951 10.3504 15.6835 10.3272 15.6604ZM10.6519 15.338C10.6287 15.3148 10.6171 15.287 10.6171 15.2569C10.6171 15.2267 10.6287 15.1989 10.6519 15.1757C10.6959 15.1316 10.7678 15.1316 10.8142 15.1757C10.8374 15.1989 10.8467 15.2267 10.8467 15.2569C10.8467 15.287 10.8351 15.3148 10.8142 15.338C10.791 15.3612 10.7632 15.3705 10.733 15.3705C10.7029 15.3705 10.6751 15.3589 10.6519 15.338ZM10.9765 15.0134C10.9533 14.9902 10.9441 14.9624 10.9441 14.9322C10.9441 14.9021 10.9557 14.8742 10.9765 14.8511C11.0206 14.807 11.0948 14.807 11.1388 14.8511C11.162 14.8742 11.1713 14.9021 11.1713 14.9322C11.1713 14.9624 11.1597 14.9902 11.1388 15.0134C11.1157 15.0366 11.0878 15.0482 11.0577 15.0482C11.0275 15.0458 10.9974 15.0343 10.9765 15.0134ZM11.2989 14.6887C11.2757 14.6655 11.2641 14.6377 11.2641 14.6076C11.2641 14.5774 11.2757 14.5496 11.2989 14.5264C11.3429 14.4823 11.4171 14.4823 11.4612 14.5264C11.4844 14.5496 11.4936 14.5774 11.4936 14.6076C11.4936 14.6377 11.482 14.6655 11.4612 14.6887C11.438 14.7119 11.4102 14.7235 11.38 14.7235C11.3522 14.7212 11.322 14.7119 11.2989 14.6887ZM11.6235 14.3641C11.6003 14.3409 11.591 14.3131 11.591 14.2829C11.591 14.2528 11.6026 14.2249 11.6235 14.2018C11.6676 14.1577 11.7418 14.1577 11.7858 14.2018C11.809 14.2249 11.8206 14.2528 11.8206 14.2829C11.8206 14.3131 11.809 14.3409 11.7858 14.3641C11.7626 14.3873 11.7348 14.3989 11.7047 14.3989C11.6745 14.3989 11.6467 14.3873 11.6235 14.3641ZM11.9481 14.0418C11.925 14.0186 11.9157 13.9907 11.9157 13.9606C11.9157 13.9304 11.9273 13.9026 11.9481 13.8794C11.9922 13.8354 12.0664 13.8354 12.1105 13.8794C12.1337 13.9026 12.1453 13.9304 12.1453 13.9606C12.1453 13.9907 12.1337 14.0186 12.1105 14.0418C12.0873 14.0649 12.0595 14.0765 12.0293 14.0765C11.9992 14.0742 11.9713 14.0626 11.9481 14.0418ZM12.2728 13.7171C12.2496 13.6939 12.238 13.6661 12.238 13.6359C12.238 13.6058 12.2496 13.578 12.2728 13.5548C12.3169 13.5107 12.3887 13.5107 12.4351 13.5548C12.4583 13.578 12.4699 13.6058 12.4699 13.6359C12.4699 13.6661 12.4583 13.6939 12.4351 13.7171C12.4119 13.7403 12.3841 13.7496 12.354 13.7496C12.3238 13.7496 12.2937 13.738 12.2728 13.7171ZM12.5951 13.3925C12.5719 13.3693 12.5603 13.3414 12.5603 13.3113C12.5603 13.2811 12.5719 13.2533 12.5951 13.2301C12.6392 13.1861 12.7111 13.1861 12.7574 13.2301C12.7806 13.2533 12.7899 13.2811 12.7899 13.3113C12.7899 13.3414 12.7783 13.3693 12.7574 13.3925C12.7343 13.4156 12.7064 13.4249 12.6763 13.4249C12.6485 13.4272 12.6183 13.4156 12.5951 13.3925ZM12.9198 13.0678C12.8966 13.0446 12.8873 13.0168 12.8873 12.9866C12.8873 12.9565 12.8989 12.9287 12.9198 12.9055C12.9638 12.8614 13.038 12.8614 13.0821 12.9055C13.1053 12.9287 13.1146 12.9565 13.1146 12.9866C13.1146 13.0168 13.103 13.0446 13.0821 13.0678C13.0589 13.091 13.0311 13.1026 13.0009 13.1026C12.9708 13.1026 12.943 13.091 12.9198 13.0678ZM13.2444 12.7455C13.2212 12.7223 13.212 12.6945 13.212 12.6643C13.212 12.6342 13.2236 12.6063 13.2444 12.5831C13.2885 12.5391 13.3627 12.5391 13.4067 12.5831C13.4299 12.6063 13.4392 12.6342 13.4392 12.6643C13.4392 12.6945 13.4276 12.7223 13.4067 12.7455C13.3836 12.7687 13.3557 12.7803 13.3256 12.7803C13.2954 12.7779 13.2676 12.7663 13.2444 12.7455ZM13.5691 12.4208C13.5459 12.3976 13.5366 12.3698 13.5366 12.3397C13.5366 12.3095 13.5482 12.2817 13.5691 12.2585C13.6131 12.2144 13.6873 12.2144 13.7314 12.2585C13.7546 12.2817 13.7662 12.3095 13.7662 12.3397C13.7662 12.3698 13.7546 12.3976 13.7314 12.4208C13.7082 12.444 13.6804 12.4533 13.6502 12.4533C13.6201 12.4533 13.5899 12.444 13.5691 12.4208ZM13.8914 12.0962C13.8682 12.073 13.8566 12.0452 13.8566 12.015C13.8566 11.9849 13.8682 11.957 13.8914 11.9338C13.9355 11.8898 14.0073 11.8898 14.0537 11.9338C14.0769 11.957 14.0862 11.9849 14.0862 12.015C14.0862 12.0452 14.0746 12.073 14.0537 12.0962C14.0305 12.1194 14.0027 12.1286 13.9726 12.1286C13.9424 12.131 13.9146 12.1194 13.8914 12.0962ZM14.216 11.7738C14.1929 11.7507 14.1836 11.7228 14.1836 11.6927C14.1836 11.6625 14.1952 11.6347 14.216 11.6115C14.2601 11.5675 14.3343 11.5675 14.3784 11.6115C14.4016 11.6347 14.4132 11.6625 14.4132 11.6927C14.4132 11.7228 14.4016 11.7507 14.3784 11.7738C14.3552 11.797 14.3274 11.8063 14.2972 11.8063C14.2671 11.8063 14.2392 11.7947 14.216 11.7738ZM14.5407 11.4492C14.5175 11.426 14.5059 11.3982 14.5059 11.368C14.5059 11.3379 14.5175 11.3101 14.5407 11.2869C14.5848 11.2428 14.659 11.2428 14.703 11.2869C14.7262 11.3101 14.7378 11.3379 14.7378 11.368C14.7378 11.3982 14.7262 11.426 14.703 11.4492C14.6798 11.4724 14.652 11.484 14.6219 11.484C14.5917 11.4817 14.5616 11.4701 14.5407 11.4492ZM14.863 11.1245C14.8398 11.1014 14.8282 11.0735 14.8282 11.0434C14.8282 11.0132 14.8398 10.9854 14.863 10.9622C14.9071 10.9182 14.9813 10.9182 15.0253 10.9622C15.0485 10.9854 15.0578 11.0132 15.0578 11.0434C15.0578 11.0735 15.0462 11.1014 15.0253 11.1245C15.0022 11.1477 14.9743 11.1593 14.9442 11.1593C14.9164 11.1593 14.8862 11.1477 14.863 11.1245ZM15.1877 10.7999C15.1645 10.7767 15.1552 10.7489 15.1552 10.7187C15.1552 10.6886 15.1668 10.6608 15.1877 10.6376C15.2317 10.5935 15.3059 10.5935 15.35 10.6376C15.3732 10.6608 15.3848 10.6886 15.3848 10.7187C15.3848 10.7489 15.3732 10.7767 15.35 10.7999C15.3268 10.8231 15.299 10.8347 15.2688 10.8347C15.2387 10.8347 15.2109 10.8231 15.1877 10.7999ZM15.5123 10.4776C15.4891 10.4544 15.4775 10.4265 15.4775 10.3964C15.4775 10.3663 15.4891 10.3384 15.5123 10.3152C15.5564 10.2712 15.6283 10.2712 15.6746 10.3152C15.6978 10.3384 15.7094 10.3663 15.7094 10.3964C15.7094 10.4265 15.6978 10.4544 15.6746 10.4776C15.6515 10.5008 15.6236 10.51 15.5935 10.51C15.5633 10.51 15.5332 10.4984 15.5123 10.4776ZM15.837 10.1529C15.8138 10.1297 15.8022 10.1019 15.8022 10.0718C15.8022 10.0416 15.8138 10.0138 15.837 9.99059C15.881 9.94653 15.9529 9.94653 15.9993 9.99059C16.0225 10.0138 16.0318 10.0416 16.0318 10.0718C16.0318 10.1019 16.0202 10.1297 15.9993 10.1529C15.9761 10.1761 15.9483 10.1854 15.9181 10.1854C15.888 10.1854 15.8578 10.1761 15.837 10.1529ZM16.1593 9.82827C16.1361 9.80508 16.1268 9.77725 16.1268 9.74711C16.1268 9.71696 16.1384 9.68913 16.1593 9.66594C16.2034 9.62188 16.2776 9.62188 16.3216 9.66594C16.3448 9.68913 16.3564 9.71696 16.3564 9.74711C16.3564 9.77725 16.3448 9.80508 16.3216 9.82827C16.2984 9.85146 16.2706 9.86305 16.2405 9.86305C16.2126 9.86305 16.1825 9.85146 16.1593 9.82827ZM16.4839 9.50362C16.4608 9.48043 16.4492 9.4526 16.4492 9.42246C16.4492 9.39231 16.4608 9.36448 16.4839 9.34129C16.528 9.29723 16.6022 9.29723 16.6463 9.34129C16.6695 9.36448 16.6787 9.39231 16.6787 9.42246C16.6787 9.4526 16.6671 9.48043 16.6463 9.50362C16.6231 9.52681 16.5953 9.53608 16.5651 9.53608C16.535 9.5384 16.5071 9.52681 16.4839 9.50362ZM16.8086 9.18129C16.7854 9.1581 16.7761 9.13027 16.7761 9.10012C16.7761 9.06998 16.7877 9.04215 16.8086 9.01896C16.8527 8.9749 16.9269 8.9749 16.9709 9.01896C16.9941 9.04215 17.0034 9.06998 17.0034 9.10012C17.0034 9.13027 16.9918 9.1581 16.9709 9.18129C16.9477 9.20448 16.9199 9.21607 16.8898 9.21607C16.8596 9.21375 16.8295 9.20216 16.8086 9.18129ZM17.1309 8.85664C17.1077 8.83345 17.0985 8.80562 17.0985 8.77548C17.0985 8.74533 17.1101 8.7175 17.1309 8.69431C17.175 8.65025 17.2492 8.65025 17.2932 8.69431C17.3164 8.7175 17.328 8.74533 17.328 8.77548C17.328 8.80562 17.3164 8.83345 17.2932 8.85664C17.2701 8.87983 17.2422 8.8891 17.2121 8.8891C17.1843 8.89142 17.1541 8.87983 17.1309 8.85664ZM17.4556 8.53199C17.4324 8.5088 17.4208 8.48097 17.4208 8.45083C17.4208 8.42068 17.4324 8.39285 17.4556 8.36966C17.4996 8.3256 17.5715 8.3256 17.6179 8.36966C17.6411 8.39285 17.6527 8.42068 17.6527 8.45083C17.6527 8.48097 17.6411 8.5088 17.6179 8.53199C17.5947 8.55518 17.5669 8.56677 17.5367 8.56677C17.5066 8.56677 17.4788 8.55518 17.4556 8.53199ZM17.7802 8.20966C17.757 8.18647 17.7454 8.15864 17.7454 8.1285C17.7454 8.09835 17.757 8.07052 17.7802 8.04733C17.8243 8.00327 17.8985 8.00327 17.9425 8.04733C17.9657 8.07052 17.9773 8.09835 17.9773 8.1285C17.9773 8.15864 17.9657 8.18647 17.9425 8.20966C17.9194 8.23285 17.8915 8.24212 17.8614 8.24212C17.8312 8.24212 17.8011 8.23053 17.7802 8.20966ZM18.1049 7.88501C18.0817 7.86182 18.0701 7.83399 18.0701 7.80385C18.0701 7.7737 18.0817 7.74587 18.1049 7.72268C18.1489 7.67862 18.2231 7.67862 18.2672 7.72268C18.2904 7.74587 18.2997 7.7737 18.2997 7.80385C18.2997 7.83399 18.2881 7.86182 18.2672 7.88501C18.244 7.9082 18.2162 7.91747 18.186 7.91747C18.1559 7.91747 18.1257 7.9082 18.1049 7.88501ZM18.4272 7.56036C18.3831 7.5163 18.3831 7.44209 18.4272 7.39803C18.4713 7.35398 18.5455 7.35398 18.5895 7.39803C18.6336 7.44209 18.6336 7.51398 18.5895 7.56036C18.5663 7.58355 18.5385 7.59282 18.5084 7.59282C18.4805 7.59514 18.4504 7.58355 18.4272 7.56036Z" fill="white"/>
<path d="M18.5148 19.5631C19.1052 19.5631 19.5838 19.0845 19.5838 18.4941C19.5838 17.9037 19.1052 17.425 18.5148 17.425C17.9244 17.425 17.4458 17.9037 17.4458 18.4941C17.4458 19.0845 17.9244 19.5631 18.5148 19.5631Z" fill="white"/>
<path d="M7.49969 19.5655C8.0901 19.5655 8.56872 19.0869 8.56872 18.4965C8.56872 17.9061 8.0901 17.4275 7.49969 17.4275C6.90928 17.4275 6.43066 17.9061 6.43066 18.4965C6.43066 19.0869 6.90928 19.5655 7.49969 19.5655Z" fill="white"/>
<path d="M18.5241 8.53892C19.1145 8.53892 19.5931 8.0603 19.5931 7.4699C19.5931 6.8795 19.1145 6.40088 18.5241 6.40088C17.9337 6.40088 17.4551 6.8795 17.4551 7.4699C17.4551 8.0603 17.9337 8.53892 18.5241 8.53892Z" fill="white"/>
<path d="M7.47185 8.52037C8.06226 8.52037 8.54088 8.04175 8.54088 7.45135C8.54088 6.86094 8.06226 6.38232 7.47185 6.38232C6.88145 6.38232 6.40283 6.86094 6.40283 7.45135C6.40283 8.04175 6.88145 8.52037 7.47185 8.52037Z" fill="white"/>
</svg>
