<svg width="26" height="26" viewBox="0 0 26 26" fill="none" xmlns="http://www.w3.org/2000/svg">
<circle cx="13" cy="13" r="13" fill="#EDEFF7"/>
<g clip-path="url(#clip0_844:5944)">
<path d="M14.7834 9.44503C14.7834 6.93399 13.5684 4.77063 12.6377 4.06239C12.6377 4.06239 12.5731 4.02376 12.5731 4.12678C12.4955 8.98145 10.0266 10.3078 8.65646 12.072C5.51541 16.1669 8.43671 20.6481 11.4097 21.4723C13.0772 21.9358 11.0219 20.6481 10.7634 17.9439C10.4532 14.6603 14.7834 12.1621 14.7834 9.44503Z" fill="#282E5B"/>
<path d="M16.412 11.1063C16.3991 11.0935 16.3733 11.0935 16.3474 11.1063C16.3474 11.1063 16.3474 11.1063 16.3345 11.1192C16.2828 11.7244 15.6106 13.0379 14.7704 14.2355C11.9137 18.3046 13.5424 20.262 14.4602 21.3179C14.9902 21.936 14.4602 21.3179 15.7916 20.6869C15.895 20.6354 18.3768 19.3219 18.6483 16.3473C18.9197 13.45 17.0713 11.6343 16.412 11.1063Z" fill="#059BDC"/>
</g>
<defs>
<clipPath id="clip0_844:5944">
<rect width="11.375" height="17.5" fill="white" transform="translate(7.3125 4.0625)"/>
</clipPath>
</defs>
</svg>
