<svg width="149" height="38" viewBox="0 0 149 38" fill="none" xmlns="http://www.w3.org/2000/svg">
<path fill-rule="evenodd" clip-rule="evenodd" d="M19.0261 25.8603L10.1193 32.7415L16.5396 37.6882C17.0793 38.1039 17.8535 38.1039 18.3931 37.6882L34.1299 25.5863L26.7445 19.9121L19.0261 25.8603ZM16.3339 26.1897L13.4722 23.9843L13.4681 23.9923L-0.000814227 13.7695C-0.000825671 13.7719 -0.000829486 13.7743 -0.000829486 13.7767L-0.000829602 15.0982L-0.000833417 15.1005L-0.000830284 22.8995L-0.000834214 24.2234C-0.000834255 24.6853 0.210321 25.101 0.562246 25.3782L8.95505 31.8445L16.3339 26.1897ZM0.703589 12.513L8.07427 18.1758L16.5396 11.6518C16.6142 11.5944 16.6933 11.5449 16.7756 11.5033L24.8748 5.29637L18.3931 0.311823C17.8535 -0.103902 17.0793 -0.103902 16.5396 0.311823L0.703589 12.513ZM26.0537 6.20298L18.6676 11.8634L27.928 19L27.9217 19.0048L34.9265 24.3865C34.9312 24.34 34.9336 24.2932 34.9336 24.2465L34.9336 22.902L34.9336 22.8995L34.9336 13.7536C34.9336 13.3147 34.7224 12.8759 34.3705 12.5988L26.0537 6.20298Z" fill="#040D27"/>
<path opacity="0.9" d="M44.7273 14.0909H42.4634L45.8672 19.5455L42.4208 25H44.7006L47.1296 21.0316H47.2148L49.6438 25H51.9343L48.5199 19.5455L51.881 14.0909H49.6278L47.2148 18.0859H47.1296L44.7273 14.0909ZM53.8824 25H55.8586V21.3139H57.9467C60.4662 21.3139 61.8192 19.8011 61.8192 17.7024C61.8192 15.6197 60.4822 14.0909 57.9733 14.0909H53.8824V25ZM55.8586 19.6893V15.7422H57.6697C59.1506 15.7422 59.8057 16.5412 59.8057 17.7024C59.8057 18.8636 59.1506 19.6893 57.6804 19.6893H55.8586ZM64.5757 25.1172C65.2042 25.1172 65.7422 24.5952 65.7476 23.9453C65.7422 23.3061 65.2042 22.7841 64.5757 22.7841C63.9258 22.7841 63.3985 23.3061 63.4038 23.9453C63.3985 24.5952 63.9258 25.1172 64.5757 25.1172ZM77.2385 14.0909H75.2729V21.527H75.1771L70.0421 14.0909H68.2737V25H70.2499V17.5692H70.3404L75.4807 25H77.2385V14.0909ZM79.8418 25H86.9796V23.3434H81.818V20.3658H86.5694V18.7092H81.818V15.7475H86.937V14.0909H79.8418V25ZM88.9237 15.7475H92.2955V25H94.2558V15.7475H97.6276V14.0909H88.9237V15.7475ZM102.051 25H104.001L106.19 17.3455H106.275L108.459 25H110.409L113.488 14.0909H111.362L109.397 22.1129H109.301L107.197 14.0909H105.263L103.165 22.1076H103.063L101.098 14.0909H98.9725L102.051 25ZM124.47 19.5455C124.47 16.0192 122.318 13.9418 119.458 13.9418C116.592 13.9418 114.445 16.0192 114.445 19.5455C114.445 23.0664 116.592 25.1491 119.458 25.1491C122.318 25.1491 124.47 23.0717 124.47 19.5455ZM122.483 19.5455C122.483 22.0277 121.237 23.3754 119.458 23.3754C117.684 23.3754 116.432 22.0277 116.432 19.5455C116.432 17.0632 117.684 15.7156 119.458 15.7156C121.237 15.7156 122.483 17.0632 122.483 19.5455ZM126.788 25H128.765V21.005H130.778L132.919 25H135.125L132.765 20.6747C134.049 20.158 134.725 19.0607 134.725 17.5799C134.725 15.4972 133.383 14.0909 130.879 14.0909H126.788V25ZM128.765 19.3643V15.7422H130.576C132.051 15.7422 132.712 16.4187 132.712 17.5799C132.712 18.7411 132.051 19.3643 130.586 19.3643H128.765ZM136.994 25H138.97V21.7507L140.18 20.3232L143.434 25H145.81L141.554 18.9862L145.773 14.0909H143.36L139.104 19.1033H138.97V14.0909H136.994V25Z" fill="#040D27"/>
</svg>
