<svg width="16" height="14" viewBox="0 0 16 14" fill="none" xmlns="http://www.w3.org/2000/svg">
<path fill-rule="evenodd" clip-rule="evenodd" d="M1.45455 2.46644V11.2815C2.11497 11.0867 3.07201 10.9091 4.36364 10.9091C5.65526 10.9091 6.6123 11.0867 7.27273 11.2815V2.46644C7.16244 2.36213 6.99134 2.21925 6.7552 2.07393C6.2682 1.77424 5.48972 1.45455 4.36364 1.45455C3.23755 1.45455 2.45908 1.77424 1.97207 2.07393C1.73593 2.21925 1.56484 2.36213 1.45455 2.46644ZM8 2.18182L8.58182 1.74545C8.67623 1.87134 8.72727 2.02446 8.72727 2.18182V12.3636C8.72727 12.6319 8.57965 12.8783 8.34317 13.0049C8.10931 13.13 7.82609 13.1178 7.604 12.9736M7.59896 12.9703L7.6009 12.9716L7.604 12.9736C7.60486 12.9742 7.60495 12.9742 7.60495 12.9742C7.60481 12.9741 7.60422 12.9738 7.604 12.9736C7.60192 12.9724 7.59638 12.969 7.58733 12.9638C7.56734 12.9524 7.53016 12.9321 7.47506 12.9057C7.36497 12.8528 7.18273 12.7752 6.92248 12.6951C6.40289 12.5352 5.56601 12.3636 4.36364 12.3636C3.16126 12.3636 2.32439 12.5352 1.80479 12.6951C1.54454 12.7752 1.36231 12.8528 1.25221 12.9057C1.19712 12.9321 1.15993 12.9524 1.13995 12.9638C1.13089 12.969 1.12536 12.9724 1.12327 12.9736C1.12554 12.9722 1.12781 12.9707 1.13007 12.9692C1.13027 12.969 1.13048 12.9689 1.13069 12.9688L0.727273 12.3636C1.13069 12.9688 1.13038 12.969 1.13007 12.9692L1.12834 12.9703L1.12637 12.9716L1.12327 12.9736C1.12251 12.9741 1.12194 12.9745 1.12327 12.9736C1.12305 12.9738 1.12341 12.9736 1.12327 12.9736C0.901186 13.1178 0.617971 13.13 0.384103 13.0049C0.147625 12.8783 0 12.6319 0 12.3636V2.18182C0 2.02446 0.0510384 1.87134 0.145455 1.74545L0.727273 2.18182C0.145455 1.74545 0.145698 1.74513 0.145945 1.7448L0.146463 1.74411L0.147578 1.74264L0.150131 1.73928L0.15653 1.73098C0.161373 1.72476 0.167375 1.71716 0.174547 1.70829C0.18889 1.69055 0.207936 1.66767 0.231791 1.64041C0.279474 1.58591 0.346543 1.51371 0.433841 1.4299C0.60831 1.26241 0.864753 1.04746 1.20975 0.835158C1.90456 0.407581 2.94426 0 4.36364 0C5.78301 0 6.82271 0.407581 7.51753 0.835158C7.86252 1.04746 8.11896 1.26241 8.29343 1.4299C8.38073 1.51371 8.4478 1.58591 8.49548 1.64041C8.51934 1.66767 8.53838 1.69055 8.55273 1.70829C8.5599 1.71716 8.5659 1.72476 8.57074 1.73098L8.57714 1.73928L8.57969 1.74264L8.58081 1.74411L8.58133 1.7448C8.58158 1.74513 8.58182 1.74545 8 2.18182" fill="#6F7BA5"/>
<path fill-rule="evenodd" clip-rule="evenodd" d="M8.72798 2.46644V11.2815C9.38841 11.0867 10.3454 10.9091 11.6371 10.9091C12.9287 10.9091 13.8857 11.0867 14.5462 11.2815V2.46644C14.4359 2.36213 14.2648 2.21925 14.0286 2.07393C13.5416 1.77424 12.7632 1.45455 11.6371 1.45455C10.511 1.45455 9.73252 1.77424 9.24551 2.07393C9.00937 2.21925 8.83827 2.36213 8.72798 2.46644ZM15.2734 2.18182L15.8553 1.74545C15.9497 1.87134 16.0007 2.02446 16.0007 2.18182V12.3636C16.0007 12.6319 15.8531 12.8783 15.6166 13.0049C15.3827 13.13 15.0995 13.1178 14.8774 12.9736M14.8724 12.9703L14.8743 12.9716L14.8774 12.9736C14.8783 12.9742 14.8784 12.9742 14.8784 12.9742C14.8782 12.9741 14.8777 12.9738 14.8774 12.9736C14.8754 12.9724 14.8698 12.969 14.8608 12.9638C14.8408 12.9524 14.8036 12.9321 14.7485 12.9057C14.6384 12.8528 14.4562 12.7752 14.1959 12.6951C13.6763 12.5352 12.8394 12.3636 11.6371 12.3636C10.4347 12.3636 9.59782 12.5352 9.07823 12.6951C8.81798 12.7752 8.63574 12.8528 8.52565 12.9057C8.47056 12.9321 8.43337 12.9524 8.41339 12.9638C8.40433 12.969 8.39879 12.9724 8.39671 12.9736C8.39898 12.9722 8.40125 12.9707 8.4035 12.9692C8.40371 12.969 8.40392 12.9689 8.40413 12.9688L8.00071 12.3636C8.40413 12.9688 8.40381 12.969 8.4035 12.9692L8.40178 12.9703L8.39981 12.9716L8.39671 12.9736C8.39595 12.9741 8.39538 12.9745 8.39671 12.9736C8.39649 12.9738 8.39685 12.9736 8.39671 12.9736C8.17462 13.1178 7.89141 13.13 7.65754 13.0049C7.42106 12.8783 7.27344 12.6319 7.27344 12.3636V2.18182C7.27344 2.02446 7.32448 1.87134 7.41889 1.74545L8.00071 2.18182C7.41889 1.74545 7.41914 1.74513 7.41938 1.7448L7.4199 1.74411L7.42102 1.74264L7.42357 1.73928L7.42997 1.73098C7.43481 1.72476 7.44081 1.71716 7.44798 1.70829C7.46233 1.69055 7.48137 1.66767 7.50523 1.64041C7.55291 1.58591 7.61998 1.51371 7.70728 1.4299C7.88175 1.26241 8.13819 1.04746 8.48318 0.835158C9.178 0.407581 10.2177 0 11.6371 0C13.0564 0 14.0962 0.407581 14.791 0.835158C15.136 1.04746 15.3924 1.26241 15.5669 1.4299C15.6542 1.51371 15.7212 1.58591 15.7689 1.64041C15.7928 1.66767 15.8118 1.69055 15.8262 1.70829C15.8333 1.71716 15.8393 1.72476 15.8442 1.73098L15.8506 1.73928L15.8531 1.74264L15.8542 1.74411L15.8548 1.7448C15.855 1.74513 15.8553 1.74545 15.2734 2.18182" fill="#6F7BA5"/>
</svg>
