<svg width="16" height="16" viewBox="0 0 16 16" fill="none" xmlns="http://www.w3.org/2000/svg">
<path fill-rule="evenodd" clip-rule="evenodd" d="M8 16C12.4183 16 16 12.4183 16 8C16 3.58172 12.4183 0 8 0C3.58172 0 0 3.58172 0 8C0 12.4183 3.58172 16 8 16ZM7.53924 4.20241C7.6849 4.06586 7.86666 4 8.07328 4C8.27894 4 8.45872 4.06538 8.59839 4.2041C8.74563 4.34306 8.81672 4.52395 8.81672 4.73271C8.81672 4.94752 8.74649 5.13468 8.60014 5.28103C8.46023 5.42095 8.2798 5.48688 8.07328 5.48688C7.86666 5.48688 7.6849 5.42102 7.53924 5.28447L7.53202 5.2777C7.39433 5.13082 7.32985 4.94462 7.32985 4.73271C7.32985 4.52619 7.39578 4.34576 7.53569 4.20585L7.53924 4.20241ZM6.66458 6.38207H8.67723V10.9776C8.67723 11.1012 8.6799 11.1962 8.68487 11.2642C8.68705 11.294 8.68955 11.3168 8.69209 11.3335C8.70932 11.3393 8.73687 11.3459 8.7779 11.3511L9.50344 11.4303V12H6.66458V11.4303L7.39013 11.3511C7.43116 11.3459 7.45871 11.3393 7.47594 11.3335C7.47848 11.3168 7.48098 11.294 7.48316 11.2642C7.48813 11.1962 7.4908 11.1012 7.4908 10.9776V7.40449C7.4908 7.28084 7.48813 7.18583 7.48316 7.11791C7.48098 7.08811 7.47848 7.06532 7.47594 7.04863C7.4589 7.0428 7.43176 7.03629 7.39146 7.03113L6.66458 6.96505V6.38207Z" fill="#6F7BA5"/>
</svg>
