<svg width="24" height="24" viewBox="0 0 24 24" fill="none" xmlns="http://www.w3.org/2000/svg">
<circle cx="12" cy="12" r="11" fill="white"/>
<path d="M12 2C6.47768 2 2 6.47768 2 12C2 17.5223 6.47768 22 12 22C17.5223 22 22 17.5223 22 12C22 6.47768 17.5223 2 12 2ZM16.3192 8.73438L11.6183 15.2522C11.5526 15.3439 11.466 15.4187 11.3656 15.4702C11.2653 15.5218 11.1541 15.5486 11.0413 15.5486C10.9285 15.5486 10.8173 15.5218 10.7169 15.4702C10.6166 15.4187 10.53 15.3439 10.4643 15.2522L7.6808 11.3951C7.59598 11.2768 7.6808 11.1116 7.82589 11.1116H8.87277C9.10045 11.1116 9.31696 11.221 9.45089 11.4085L11.0402 13.6138L14.5491 8.74777C14.683 8.5625 14.8973 8.45089 15.1272 8.45089H16.1741C16.3192 8.45089 16.404 8.61607 16.3192 8.73438Z" fill="#3E64ED"/>
</svg>
