<svg width="25" height="24" viewBox="0 0 25 24" fill="none" xmlns="http://www.w3.org/2000/svg">
<circle cx="12.5" cy="12" r="11" fill="white"/>
<path d="M12.5 2C6.97768 2 2.5 6.47768 2.5 12C2.5 17.5223 6.97768 22 12.5 22C18.0223 22 22.5 17.5223 22.5 12C22.5 6.47768 18.0223 2 12.5 2ZM16.8192 8.73438L12.1183 15.2522C12.0526 15.3439 11.966 15.4187 11.8656 15.4702C11.7653 15.5218 11.6541 15.5486 11.5413 15.5486C11.4285 15.5486 11.3173 15.5218 11.2169 15.4702C11.1166 15.4187 11.03 15.3439 10.9643 15.2522L8.1808 11.3951C8.09598 11.2768 8.1808 11.1116 8.32589 11.1116H9.37277C9.60045 11.1116 9.81696 11.221 9.95089 11.4085L11.5402 13.6138L15.0491 8.74777C15.183 8.5625 15.3973 8.45089 15.6272 8.45089H16.6741C16.8192 8.45089 16.904 8.61607 16.8192 8.73438Z" fill="#3E64ED"/>
</svg>
