<svg width="16" height="16" viewBox="0 0 16 16" fill="none" xmlns="http://www.w3.org/2000/svg">
<mask id="path-1-inside-1_1129:1454" fill="white">
<path fill-rule="evenodd" clip-rule="evenodd" d="M8 16C12.4183 16 16 12.4183 16 8C16 3.58172 12.4183 0 8 0C3.58172 0 0 3.58172 0 8C0 12.4183 3.58172 16 8 16ZM7.54237 4.20241C7.68802 4.06586 7.86979 4 8.07641 4C8.28206 4 8.46185 4.06538 8.60152 4.2041C8.74876 4.34306 8.81985 4.52395 8.81985 4.73271C8.81985 4.94752 8.74962 5.13468 8.60327 5.28103C8.46335 5.42095 8.28292 5.48688 8.07641 5.48688C7.86979 5.48688 7.68802 5.42102 7.54237 5.28447L7.53515 5.2777C7.39745 5.13082 7.33297 4.94462 7.33297 4.73271C7.33297 4.52619 7.3989 4.34576 7.53882 4.20585L7.54237 4.20241ZM6.66771 6.38207H8.68036V10.9776C8.68036 11.1012 8.68303 11.1962 8.68799 11.2642C8.69018 11.294 8.69268 11.3168 8.69521 11.3335C8.71244 11.3393 8.74 11.3459 8.78103 11.3511L9.50657 11.4303V12H6.66771V11.4303L7.39325 11.3511C7.43428 11.3459 7.46184 11.3393 7.47906 11.3335C7.4816 11.3168 7.4841 11.294 7.48628 11.2642C7.49125 11.1962 7.49392 11.1012 7.49392 10.9776V7.40449C7.49392 7.28084 7.49125 7.18583 7.48628 7.11791C7.4841 7.08811 7.4816 7.06532 7.47906 7.04863C7.46202 7.0428 7.43488 7.03629 7.39459 7.03113L6.66771 6.96505V6.38207Z"/>
</mask>
<path fill-rule="evenodd" clip-rule="evenodd" d="M8 16C12.4183 16 16 12.4183 16 8C16 3.58172 12.4183 0 8 0C3.58172 0 0 3.58172 0 8C0 12.4183 3.58172 16 8 16ZM7.54237 4.20241C7.68802 4.06586 7.86979 4 8.07641 4C8.28206 4 8.46185 4.06538 8.60152 4.2041C8.74876 4.34306 8.81985 4.52395 8.81985 4.73271C8.81985 4.94752 8.74962 5.13468 8.60327 5.28103C8.46335 5.42095 8.28292 5.48688 8.07641 5.48688C7.86979 5.48688 7.68802 5.42102 7.54237 5.28447L7.53515 5.2777C7.39745 5.13082 7.33297 4.94462 7.33297 4.73271C7.33297 4.52619 7.3989 4.34576 7.53882 4.20585L7.54237 4.20241ZM6.66771 6.38207H8.68036V10.9776C8.68036 11.1012 8.68303 11.1962 8.68799 11.2642C8.69018 11.294 8.69268 11.3168 8.69521 11.3335C8.71244 11.3393 8.74 11.3459 8.78103 11.3511L9.50657 11.4303V12H6.66771V11.4303L7.39325 11.3511C7.43428 11.3459 7.46184 11.3393 7.47906 11.3335C7.4816 11.3168 7.4841 11.294 7.48628 11.2642C7.49125 11.1962 7.49392 11.1012 7.49392 10.9776V7.40449C7.49392 7.28084 7.49125 7.18583 7.48628 7.11791C7.4841 7.08811 7.4816 7.06532 7.47906 7.04863C7.46202 7.0428 7.43488 7.03629 7.39459 7.03113L6.66771 6.96505V6.38207Z" fill="white"/>
<path d="M7.54237 4.20241L7.13195 3.76463L7.12502 3.77134L7.54237 4.20241ZM8.60152 4.2041L8.1787 4.62981L8.18414 4.6352L8.1897 4.64046L8.60152 4.2041ZM8.60327 5.28103L9.02753 5.70529L9.02753 5.70529L8.60327 5.28103ZM7.54237 5.28447L7.13199 5.72218L7.132 5.72219L7.54237 5.28447ZM7.53515 5.2777L7.09742 5.68806L7.11066 5.70218L7.12477 5.71541L7.53515 5.2777ZM7.53882 4.20585L7.12141 3.77472L7.11455 3.78158L7.53882 4.20585ZM8.68036 6.38207H9.28036V5.78207H8.68036V6.38207ZM6.66771 6.38207V5.78207H6.06771V6.38207H6.66771ZM8.68799 11.2642L9.2864 11.2204V11.2204L8.68799 11.2642ZM8.69521 11.3335L8.10203 11.4236L8.15672 11.7834L8.50111 11.9012L8.69521 11.3335ZM8.78103 11.3511L8.7058 11.9465L8.71596 11.9476L8.78103 11.3511ZM9.50657 11.4303H10.1066V10.8922L9.57164 10.8338L9.50657 11.4303ZM9.50657 12V12.6H10.1066V12H9.50657ZM6.66771 12H6.06771V12.6H6.66771V12ZM6.66771 11.4303L6.60264 10.8338L6.06771 10.8922V11.4303H6.66771ZM7.39325 11.3511L7.45833 11.9477L7.46846 11.9464L7.39325 11.3511ZM7.47906 11.3335L7.67317 11.9012L8.01756 11.7834L8.07225 11.4236L7.47906 11.3335ZM7.48628 11.2642L8.08468 11.308V11.3079L7.48628 11.2642ZM7.48628 7.11791L8.08468 7.07413V7.07413L7.48628 7.11791ZM7.47906 7.04863L8.07225 6.95846L8.01756 6.59865L7.67319 6.4809L7.47906 7.04863ZM7.39459 7.03113L7.47078 6.43599L7.45987 6.43459L7.44891 6.43359L7.39459 7.03113ZM6.66771 6.96505H6.06771V7.51298L6.61339 7.56258L6.66771 6.96505ZM15.4 8C15.4 12.0869 12.0869 15.4 8 15.4V16.6C12.7496 16.6 16.6 12.7496 16.6 8H15.4ZM8 0.6C12.0869 0.6 15.4 3.91309 15.4 8H16.6C16.6 3.25035 12.7496 -0.6 8 -0.6V0.6ZM0.6 8C0.6 3.91309 3.91309 0.6 8 0.6V-0.6C3.25035 -0.6 -0.6 3.25035 -0.6 8H0.6ZM8 15.4C3.91309 15.4 0.6 12.0869 0.6 8H-0.6C-0.6 12.7496 3.25035 16.6 8 16.6V15.4ZM8.07641 3.4C7.73319 3.4 7.39991 3.51353 7.132 3.76469L7.95273 4.64013C7.97614 4.61819 8.00638 4.6 8.07641 4.6V3.4ZM9.02433 3.77839C8.7569 3.51278 8.41743 3.4 8.07641 3.4V4.6C8.11545 4.6 8.13804 4.60611 8.14945 4.61047C8.15963 4.61436 8.1684 4.61958 8.1787 4.62981L9.02433 3.77839ZM9.41985 4.73271C9.41985 4.37648 9.29297 4.03165 9.01333 3.76774L8.1897 4.64046C8.20221 4.65226 8.20718 4.66109 8.21034 4.66885C8.21393 4.67764 8.21985 4.69697 8.21985 4.73271H9.41985ZM9.02753 5.70529C9.29886 5.43396 9.41985 5.08811 9.41985 4.73271H8.21985C8.21985 4.80692 8.20037 4.8354 8.17901 4.85677L9.02753 5.70529ZM8.07641 6.08688C8.41898 6.08688 8.75977 5.97306 9.02753 5.70529L8.17901 4.85676C8.16857 4.86721 8.15974 4.87245 8.1496 4.87635C8.13823 4.88072 8.1156 4.88688 8.07641 4.88688V6.08688ZM7.132 5.72219C7.39991 5.97335 7.73319 6.08688 8.07641 6.08688V4.88688C8.00638 4.88688 7.97614 4.86869 7.95273 4.84675L7.132 5.72219ZM7.12477 5.71541L7.13199 5.72218L7.95274 4.84675L7.94552 4.83998L7.12477 5.71541ZM6.73297 4.73271C6.73297 5.07315 6.8402 5.41369 7.09742 5.68806L7.97287 4.86733C7.95471 4.84796 7.93297 4.81609 7.93297 4.73271H6.73297ZM7.11455 3.78158C6.84679 4.04935 6.73297 4.39014 6.73297 4.73271H7.93297C7.93297 4.69351 7.93913 4.67089 7.9435 4.65951C7.94739 4.64938 7.95264 4.64055 7.96308 4.63011L7.11455 3.78158ZM7.12502 3.77134L7.12147 3.77478L7.95617 4.63691L7.95972 4.63348L7.12502 3.77134ZM8.68036 5.78207H6.66771V6.98207H8.68036V5.78207ZM9.28036 10.9776V6.38207H8.08036V10.9776H9.28036ZM9.2864 11.2204C9.28298 11.1736 9.28036 11.0952 9.28036 10.9776H8.08036C8.08036 11.1072 8.08308 11.2189 8.08959 11.308L9.2864 11.2204ZM9.2884 11.2433C9.28877 11.2457 9.28862 11.2451 9.28816 11.2407C9.28771 11.2365 9.28709 11.2299 9.2864 11.2204L8.08959 11.308C8.09248 11.3474 8.09641 11.3866 8.10203 11.4236L9.2884 11.2433ZM8.85624 10.7559C8.85027 10.7551 8.85011 10.7548 8.85475 10.7558C8.85888 10.7567 8.87118 10.7595 8.88932 10.7657L8.50111 11.9012C8.56862 11.9243 8.63876 11.9379 8.70581 11.9464L8.85624 10.7559ZM9.57164 10.8338L8.84609 10.7547L8.71596 11.9476L9.4415 12.0267L9.57164 10.8338ZM10.1066 12V11.4303H8.90657V12H10.1066ZM6.66771 12.6H9.50657V11.4H6.66771V12.6ZM6.06771 11.4303V12H7.26771V11.4303H6.06771ZM7.32818 10.7547L6.60264 10.8338L6.73278 12.0267L7.45832 11.9476L7.32818 10.7547ZM7.28496 10.7657C7.3031 10.7595 7.3154 10.7567 7.31952 10.7558C7.32417 10.7548 7.32401 10.7551 7.31804 10.7559L7.46846 11.9464C7.53552 11.9379 7.60566 11.9243 7.67317 11.9012L7.28496 10.7657ZM6.88788 11.2204C6.88719 11.2299 6.88657 11.2365 6.88612 11.2408C6.88566 11.2451 6.8855 11.2457 6.88588 11.2433L8.07225 11.4236C8.07787 11.3866 8.0818 11.3474 8.08468 11.308L6.88788 11.2204ZM6.89392 10.9776C6.89392 11.0952 6.8913 11.1736 6.88788 11.2204L8.08468 11.3079C8.0912 11.2189 8.09392 11.1072 8.09392 10.9776H6.89392ZM6.89392 7.40449V10.9776H8.09392V7.40449H6.89392ZM6.88788 7.1617C6.8913 7.20844 6.89392 7.28685 6.89392 7.40449H8.09392C8.09392 7.27484 8.0912 7.16322 8.08468 7.07413L6.88788 7.1617ZM6.88588 7.13879C6.88551 7.13634 6.88566 7.13694 6.88612 7.14132C6.88657 7.14554 6.88719 7.15222 6.88788 7.1617L8.08468 7.07413C8.0818 7.0347 8.07787 6.99545 8.07225 6.95846L6.88588 7.13879ZM7.3184 7.62627C7.32409 7.627 7.32408 7.62722 7.31936 7.62621C7.31515 7.6253 7.30291 7.6225 7.28494 7.61636L7.67319 6.4809C7.60633 6.45804 7.53697 6.44446 7.47078 6.43599L7.3184 7.62627ZM6.61339 7.56258L7.34027 7.62866L7.44891 6.43359L6.72203 6.36751L6.61339 7.56258ZM6.06771 6.38207V6.96505H7.26771V6.38207H6.06771Z" fill="white" mask="url(#path-1-inside-1_1129:1454)"/>
</svg>
