<svg width="12" height="12" viewBox="0 0 12 12" fill="none" xmlns="http://www.w3.org/2000/svg">
<path fill-rule="evenodd" clip-rule="evenodd" d="M6 12C9.31371 12 12 9.31371 12 6C12 2.68629 9.31371 0 6 0C2.68629 0 0 2.68629 0 6C0 9.31371 2.68629 12 6 12ZM5.65661 3.15181C5.76585 3.04939 5.90217 3 6.05714 3C6.21138 3 6.34621 3.04904 6.45097 3.15307C6.5614 3.2573 6.61471 3.39296 6.61471 3.54953C6.61471 3.71064 6.56204 3.85101 6.45228 3.96077C6.34734 4.06571 6.21202 4.11516 6.05714 4.11516C5.90217 4.11516 5.76585 4.06576 5.65661 3.96335L5.65119 3.95827C5.54792 3.84812 5.49956 3.70847 5.49956 3.54953C5.49956 3.39464 5.54901 3.25932 5.65394 3.15439L5.65661 3.15181ZM5.00061 4.78655H6.5101V8.23319C6.5101 8.32593 6.5121 8.39719 6.51583 8.44812C6.51746 8.47048 6.51934 8.48757 6.52124 8.50009C6.53416 8.50451 6.55483 8.50945 6.5856 8.51334L7.12976 8.5727V9.00001H5.00061V8.5727L5.54477 8.51334C5.57554 8.50945 5.59621 8.50451 5.60913 8.50009C5.61103 8.48757 5.61291 8.47048 5.61454 8.44812C5.61827 8.39719 5.62027 8.32593 5.62027 8.23319V5.55337C5.62027 5.46063 5.61827 5.38937 5.61454 5.33844C5.61291 5.31608 5.61103 5.29899 5.60913 5.28647C5.59635 5.2821 5.57599 5.27722 5.54577 5.27335L5.00061 5.22379V4.78655Z" fill="#6C6F7B"/>
</svg>
