<svg width="20" height="20" viewBox="0 0 20 20" fill="none" xmlns="http://www.w3.org/2000/svg">
<path d="M16.8061 0H7.59522V12.3448H19.957V3.21186C19.962 1.47776 18.5426 0 16.8061 0ZM4.76652 0H3.2213C1.48482 0 0 1.41242 0 3.21689V4.75999H4.76652V0ZM0 7.65016H4.76652V12.4102H0V7.65016ZM15.1955 19.995H16.7407C18.4772 19.995 19.962 18.5826 19.962 16.7781V15.24H15.1955V19.995ZM7.59522 15.24H12.3617V20H7.59522V15.24ZM0 15.24V16.7831C0 18.5172 1.41435 20 3.2213 20H4.76652V15.24H0Z" fill="#333745"/>
</svg>
