<svg width="24" height="24" viewBox="0 0 24 24" fill="none" xmlns="http://www.w3.org/2000/svg">
<path d="M20.6476 2.67432L13.1523 8.24117L14.5384 4.9568L20.6476 2.67432Z" fill="#E2761B"/>
<path fill-rule="evenodd" clip-rule="evenodd" d="M20.7785 2.60326C20.8137 2.66809 20.7959 2.74898 20.7367 2.79298L13.2414 8.35984C13.1877 8.39967 13.1141 8.39868 13.0615 8.35742C13.009 8.31617 12.9906 8.24485 13.0165 8.1833L14.4026 4.89893C14.4185 4.86138 14.4491 4.83202 14.4873 4.81776L20.5965 2.53527C20.6656 2.50944 20.7432 2.53843 20.7785 2.60326ZM14.6508 5.07297L13.5007 7.79816L19.7199 3.17908L14.6508 5.07297Z" fill="#E2761B"/>
<path d="M3.34473 2.67383L10.7798 8.29341L9.46149 4.95631L3.34473 2.67383Z" fill="#E4761B"/>
<path fill-rule="evenodd" clip-rule="evenodd" d="M3.21459 2.60274C3.24999 2.53827 3.32733 2.50954 3.39624 2.53525L9.513 4.81773C9.55233 4.83241 9.58358 4.86307 9.599 4.9021L10.9173 8.2392C10.9417 8.30096 10.922 8.3714 10.8691 8.41158C10.8163 8.45176 10.7431 8.45186 10.6902 8.41182L3.25512 2.79224C3.19644 2.74789 3.17919 2.66721 3.21459 2.60274ZM4.24295 3.16745L10.4478 7.85724L9.34765 5.07228L4.24295 3.16745Z" fill="#E4761B"/>
<path d="M17.9503 15.5781L15.9541 18.6365L20.2253 19.8116L21.4532 15.6459L17.9503 15.5781Z" fill="#E4761B"/>
<path fill-rule="evenodd" clip-rule="evenodd" d="M17.827 15.4969C17.8549 15.4541 17.9028 15.4287 17.9539 15.4297L21.4567 15.4975C21.5029 15.4984 21.546 15.5208 21.5733 15.5581C21.6007 15.5953 21.609 15.6432 21.596 15.6875L20.3681 19.8532C20.3452 19.9307 20.2646 19.9756 20.1867 19.9542L15.9155 18.7791C15.8699 18.7665 15.833 18.7329 15.8162 18.6887C15.7995 18.6444 15.8049 18.5949 15.8307 18.5552L17.827 15.4969ZM18.0302 15.7275L16.1898 18.5472L20.125 19.6299L21.2568 15.79L18.0302 15.7275Z" fill="#E4761B"/>
<path d="M2.55371 15.6459L3.77405 19.8116L8.04524 18.6365L6.049 15.5781L2.55371 15.6459Z" fill="#E4761B"/>
<path fill-rule="evenodd" clip-rule="evenodd" d="M6.04584 15.4297C6.0969 15.4287 6.14486 15.4541 6.17278 15.4969L8.16901 18.5552C8.19487 18.5949 8.20025 18.6444 8.1835 18.6887C8.16674 18.7329 8.12986 18.7665 8.08425 18.7791L3.81306 19.9542C3.73509 19.9757 3.65432 19.9306 3.63159 19.853L2.41125 15.6873C2.39827 15.643 2.40668 15.5952 2.434 15.558C2.46131 15.5208 2.5044 15.4984 2.55055 15.4975L6.04584 15.4297ZM2.75009 15.79L3.87497 19.6299L7.80995 18.5472L5.96952 15.7275L2.75009 15.79Z" fill="#E4761B"/>
<path d="M7.80349 10.4105L6.61328 12.2109L10.8543 12.3992L10.7037 7.8418L7.80349 10.4105Z" fill="#E4761B"/>
<path fill-rule="evenodd" clip-rule="evenodd" d="M10.7629 7.70543C10.8157 7.72813 10.8505 7.77924 10.8524 7.83662L11.0031 12.3941C11.0045 12.4353 10.9885 12.4753 10.9592 12.5043C10.9298 12.5333 10.8897 12.5488 10.8485 12.5469L6.6074 12.3586C6.55409 12.3563 6.50618 12.3254 6.48196 12.2779C6.45774 12.2303 6.46096 12.1734 6.49038 12.1289L7.68059 10.3285C7.68773 10.3177 7.69626 10.3079 7.70595 10.2993L10.6061 7.73061C10.6491 7.69255 10.7102 7.68274 10.7629 7.70543ZM7.917 10.5082L6.88174 12.0742L10.7017 12.2438L10.5667 8.16134L7.917 10.5082Z" fill="#E4761B"/>
<path d="M16.1881 10.4105L13.2503 7.78906L13.1523 12.3992L17.3859 12.2109L16.1881 10.4105Z" fill="#E4761B"/>
<path fill-rule="evenodd" clip-rule="evenodd" d="M13.1909 7.65294C13.2439 7.62986 13.3055 7.63974 13.3486 7.67824L16.2865 10.2997C16.2959 10.3081 16.3042 10.3177 16.3112 10.3282L17.5089 12.1286C17.5385 12.173 17.5419 12.23 17.5177 12.2777C17.4935 12.3253 17.4455 12.3562 17.3922 12.3586L13.1586 12.5469C13.1177 12.5488 13.0778 12.5335 13.0485 12.5049C13.0192 12.4763 13.0031 12.4368 13.0039 12.3958L13.1019 7.78563C13.1031 7.72782 13.1378 7.67601 13.1909 7.65294ZM13.3913 8.1134L13.3035 12.2439L17.1169 12.0743L16.075 10.5081L13.3913 8.1134Z" fill="#E4761B"/>
<path d="M8.04492 18.6362L10.5911 17.3933L8.39144 15.6758L8.04492 18.6362Z" fill="#E4761B"/>
<path fill-rule="evenodd" clip-rule="evenodd" d="M8.33405 15.5393C8.38345 15.5186 8.44013 15.5263 8.48233 15.5592L10.6819 17.2767C10.7222 17.3082 10.7434 17.3581 10.7381 17.4089C10.7328 17.4597 10.7017 17.5042 10.6558 17.5266L8.10963 18.7696C8.06094 18.7933 8.00317 18.7886 7.95897 18.7573C7.91477 18.726 7.89119 18.673 7.89749 18.6192L8.24401 15.6588C8.25023 15.6056 8.28465 15.5599 8.33405 15.5393ZM8.50766 15.9549L8.2233 18.3844L10.3127 17.3644L8.50766 15.9549Z" fill="#E4761B"/>
<path d="M13.4014 17.3933L15.955 18.6362L15.601 15.6758L13.4014 17.3933Z" fill="#E4761B"/>
<path fill-rule="evenodd" clip-rule="evenodd" d="M15.6576 15.5392C15.707 15.5598 15.7414 15.6053 15.7478 15.6584L16.1018 18.6188C16.1083 18.6727 16.0848 18.7257 16.0406 18.7571C15.9965 18.7886 15.9387 18.7934 15.8899 18.7696L13.3362 17.5267C13.2903 17.5043 13.2591 17.4598 13.2537 17.409C13.2484 17.3582 13.2696 17.3082 13.3099 17.2767L15.5095 15.5592C15.5517 15.5263 15.6083 15.5187 15.6576 15.5392ZM13.6794 17.3642L15.7754 18.3844L15.4848 15.9544L13.6794 17.3642Z" fill="#E4761B"/>
<path d="M15.955 18.6365L13.4014 17.3936L13.6048 19.0583L13.5822 19.7589L15.955 18.6365Z" fill="#D7C1B3"/>
<path fill-rule="evenodd" clip-rule="evenodd" d="M13.315 17.2732C13.3592 17.2416 13.4171 17.2368 13.4659 17.2605L16.0196 18.5035C16.0708 18.5284 16.1032 18.5805 16.1029 18.6375C16.1026 18.6945 16.0696 18.7463 16.0181 18.7706L13.6452 19.893C13.5986 19.9151 13.5438 19.9113 13.5006 19.883C13.4574 19.8547 13.4321 19.8059 13.4338 19.7543L13.456 19.0652L13.254 17.4117C13.2474 17.3578 13.2709 17.3047 13.315 17.2732ZM13.5812 17.6462L13.7515 19.0406C13.7524 19.0481 13.7528 19.0557 13.7525 19.0633L13.7378 19.5215L15.6123 18.6348L13.5812 17.6462Z" fill="#D7C1B3"/>
<path d="M8.0459 18.6365L10.4188 19.7589L10.4037 19.0583L10.592 17.3936L8.0459 18.6365Z" fill="#D7C1B3"/>
<path fill-rule="evenodd" clip-rule="evenodd" d="M10.6772 17.2727C10.7214 17.3039 10.745 17.3567 10.739 17.4104L10.5518 19.0653L10.5666 19.7559C10.5677 19.8072 10.5422 19.8555 10.4991 19.8834C10.456 19.9113 10.4016 19.915 10.3551 19.893L7.98226 18.7706C7.93078 18.7463 7.89781 18.6946 7.89746 18.6376C7.89711 18.5807 7.92944 18.5285 7.98062 18.5036L10.5268 17.2606C10.5754 17.2369 10.633 17.2415 10.6772 17.2727ZM8.38763 18.6346L10.2652 19.5227L10.2553 19.0617C10.2552 19.0551 10.2555 19.0485 10.2562 19.0419L10.4142 17.6453L8.38763 18.6346Z" fill="#D7C1B3"/>
<path d="M10.4553 14.5764L8.33105 13.9511L9.83011 13.2656L10.4553 14.5764Z" fill="#233447"/>
<path fill-rule="evenodd" clip-rule="evenodd" d="M9.76919 13.1306C9.84275 13.097 9.9297 13.1286 9.96452 13.2016L10.5898 14.5123C10.6149 14.5651 10.6067 14.6277 10.5688 14.6722C10.5308 14.7167 10.4703 14.7347 10.4142 14.7182L8.28991 14.093C8.23061 14.0755 8.18838 14.0231 8.18397 13.9614C8.17957 13.8998 8.21391 13.8418 8.27013 13.8161L9.76919 13.1306ZM8.75395 13.9207L10.1794 14.3402L9.75985 13.4607L8.75395 13.9207Z" fill="#233447"/>
<path d="M13.5371 14.5764L14.1623 13.2656L15.6689 13.9511L13.5371 14.5764Z" fill="#233447"/>
<path fill-rule="evenodd" clip-rule="evenodd" d="M14.0283 13.2016C14.0631 13.1287 14.1499 13.0971 14.2234 13.1305L15.73 13.816C15.7863 13.8417 15.8208 13.8996 15.8164 13.9614C15.812 14.0231 15.7697 14.0756 15.7103 14.093L13.5785 14.7183C13.5224 14.7347 13.4619 14.7167 13.424 14.6722C13.3861 14.6277 13.3779 14.5651 13.4031 14.5123L14.0283 13.2016ZM14.2331 13.4605L13.8133 14.3406L15.2448 13.9208L14.2331 13.4605Z" fill="#233447"/>
<path d="M8.04506 18.637L8.40664 15.5786L6.04883 15.6464L8.04506 18.637Z" fill="#CD6116"/>
<path fill-rule="evenodd" clip-rule="evenodd" d="M8.51566 15.4783C8.54473 15.5101 8.55853 15.553 8.55348 15.5957L8.1919 18.6541C8.18461 18.7157 8.13968 18.7663 8.07933 18.7808C8.01898 18.7952 7.95601 18.7706 7.92155 18.719L5.92532 15.7284C5.8954 15.6835 5.89218 15.626 5.91691 15.5781C5.94164 15.5303 5.99041 15.4996 6.04428 15.498L8.4021 15.4302C8.44514 15.429 8.4866 15.4466 8.51566 15.4783ZM6.32037 15.7865L7.94484 18.2201L8.23908 15.7313L6.32037 15.7865Z" fill="#CD6116"/>
<path d="M15.5928 15.5786L15.9544 18.637L17.9506 15.6464L15.5928 15.5786Z" fill="#CD6116"/>
<path fill-rule="evenodd" clip-rule="evenodd" d="M15.4832 15.4783C15.5122 15.4466 15.5537 15.429 15.5967 15.4302L17.9546 15.498C18.0084 15.4996 18.0572 15.5303 18.0819 15.5781C18.1067 15.626 18.1034 15.6835 18.0735 15.7284L16.0773 18.719C16.0428 18.7706 15.9799 18.7952 15.9195 18.7808C15.8592 18.7663 15.8142 18.7157 15.8069 18.6541L15.4454 15.5957C15.4403 15.553 15.4541 15.5101 15.4832 15.4783ZM15.7598 15.7313L16.054 18.2201L17.6785 15.7865L15.7598 15.7313Z" fill="#CD6116"/>
<path d="M17.3859 12.2109L13.1523 12.3993L13.5441 14.5763L14.1693 13.2656L15.6759 13.9511L17.3859 12.2109Z" fill="#CD6116"/>
<path fill-rule="evenodd" clip-rule="evenodd" d="M17.5209 12.1508C17.5457 12.2064 17.5339 12.2715 17.4912 12.315L15.7813 14.0551C15.7376 14.0995 15.6709 14.1119 15.6142 14.0861L14.2401 13.4609L13.6775 14.6403C13.6498 14.6983 13.5878 14.7319 13.524 14.7233C13.4603 14.7148 13.4094 14.666 13.398 14.6027L13.0062 12.4257C12.9987 12.3836 13.0096 12.3404 13.0363 12.307C13.063 12.2736 13.1028 12.2534 13.1455 12.2515L17.379 12.0631C17.4398 12.0604 17.4961 12.0952 17.5209 12.1508ZM13.3279 12.5399L13.6081 14.0975L14.0353 13.202C14.0701 13.1291 14.1568 13.0975 14.2304 13.1309L15.6426 13.7735L17.016 12.3759L13.3279 12.5399Z" fill="#CD6116"/>
<path d="M8.3308 13.9511L9.83739 13.2656L10.4551 14.5763L10.8543 12.3993L6.61328 12.2109L8.3308 13.9511Z" fill="#CD6116"/>
<path fill-rule="evenodd" clip-rule="evenodd" d="M6.47859 12.151C6.50334 12.0953 6.55966 12.0604 6.62054 12.0631L10.8616 12.2515C10.9044 12.2534 10.9442 12.2737 10.9709 12.3072C10.9976 12.3407 11.0085 12.3841 11.0007 12.4262L10.6015 14.6032C10.5899 14.6665 10.5387 14.7151 10.4749 14.7234C10.4111 14.7317 10.3492 14.6979 10.3218 14.6396L9.76638 13.4611L8.39284 14.0861C8.33629 14.1118 8.26969 14.0995 8.22605 14.0553L6.50853 12.3152C6.46572 12.2718 6.45384 12.2067 6.47859 12.151ZM6.98475 12.3759L8.36427 13.7736L9.77672 13.1309C9.85049 13.0973 9.93754 13.1293 9.97209 13.2026L10.3932 14.0962L10.6786 12.5399L6.98475 12.3759Z" fill="#CD6116"/>
<path d="M6.61426 12.2109L8.39204 15.6761L8.33177 13.9511L6.61426 12.2109Z" fill="#E4751F"/>
<path fill-rule="evenodd" clip-rule="evenodd" d="M6.52713 12.0911C6.58637 12.0482 6.66805 12.055 6.71942 12.1071L8.43693 13.8472C8.46304 13.8736 8.47826 13.9089 8.47955 13.9461L8.53982 15.6711C8.54224 15.7405 8.49621 15.8022 8.42905 15.8197C8.3619 15.8371 8.29162 15.8057 8.25995 15.7439L6.48217 12.2788C6.44878 12.2137 6.46788 12.134 6.52713 12.0911ZM7.18604 13.0016L8.22052 15.018L8.18546 14.0142L7.18604 13.0016Z" fill="#E4751F"/>
<path d="M15.6759 13.9511L15.6006 15.6761L17.3859 12.2109L15.6759 13.9511Z" fill="#E4751F"/>
<path fill-rule="evenodd" clip-rule="evenodd" d="M17.4724 12.0911C17.5318 12.134 17.5508 12.2139 17.5173 12.279L15.732 15.7442C15.7001 15.806 15.6295 15.8373 15.5623 15.8195C15.495 15.8016 15.4493 15.7394 15.4523 15.6698L15.5276 13.9448C15.5292 13.9082 15.5443 13.8735 15.57 13.8474L17.2799 12.1073C17.3313 12.0551 17.4131 12.0482 17.4724 12.0911ZM15.8212 14.0145L15.7778 15.0084L16.8063 13.012L15.8212 14.0145Z" fill="#E4751F"/>
<path d="M10.8553 12.3994L10.4561 14.5764L10.9532 17.1452L11.0662 13.7629L10.8553 12.3994Z" fill="#E4751F"/>
<path fill-rule="evenodd" clip-rule="evenodd" d="M10.8571 12.2515C10.9294 12.2525 10.9904 12.3055 11.0014 12.377L11.2123 13.7404C11.2138 13.7496 11.2143 13.7588 11.214 13.768L11.101 17.1503C11.0985 17.2257 11.0398 17.2871 10.9646 17.2931C10.8895 17.299 10.8218 17.2475 10.8075 17.1735L10.3103 14.6048C10.3068 14.5867 10.3067 14.5681 10.31 14.5499L10.7093 12.3729C10.7223 12.3018 10.7848 12.2505 10.8571 12.2515ZM10.6065 14.5759L10.8487 15.8274L10.9174 13.772L10.8426 13.2885L10.6065 14.5759Z" fill="#E4751F"/>
<path d="M13.1526 12.3994L12.9492 13.7553L13.0396 17.1452L13.5443 14.5764L13.1526 12.3994Z" fill="#E4751F"/>
<path fill-rule="evenodd" clip-rule="evenodd" d="M13.1502 12.2515C13.2227 12.2504 13.2853 12.302 13.2981 12.3734L13.6898 14.5504C13.6931 14.5685 13.693 14.5871 13.6894 14.6052L13.1847 17.1739C13.1701 17.248 13.1022 17.2993 13.0269 17.293C12.9517 17.2867 12.8932 17.2248 12.8912 17.1493L12.8008 13.7595C12.8006 13.7508 12.8011 13.7421 12.8024 13.7336L13.0058 12.3776C13.0166 12.3059 13.0777 12.2525 13.1502 12.2515ZM13.1656 13.3099L13.0974 13.7646L13.1518 15.8046L13.3933 14.5754L13.1656 13.3099Z" fill="#E4751F"/>
<path d="M13.5447 14.5764L13.04 17.1451L13.4016 17.3937L15.6012 15.6762L15.6766 13.9512L13.5447 14.5764Z" fill="#F6851B"/>
<path fill-rule="evenodd" clip-rule="evenodd" d="M15.7677 13.8343C15.8053 13.8637 15.8264 13.9096 15.8243 13.9573L15.749 15.6824C15.7471 15.7257 15.7263 15.766 15.6921 15.7927L13.4925 17.5102C13.4416 17.55 13.3707 17.5522 13.3174 17.5155L12.9558 17.2669C12.9071 17.2335 12.883 17.1743 12.8944 17.1163L13.3991 14.5476C13.4098 14.4933 13.4497 14.4495 13.5028 14.434L15.6346 13.8087C15.6805 13.7953 15.73 13.8048 15.7677 13.8343ZM13.6725 14.693L13.2039 17.0779L13.3958 17.2098L15.4559 15.6012L15.5192 14.1513L13.6725 14.693Z" fill="#F6851B"/>
<path d="M8.33105 13.9512L8.39132 15.6762L10.5909 17.3937L10.9525 17.1451L10.4553 14.5764L8.33105 13.9512Z" fill="#F6851B"/>
<path fill-rule="evenodd" clip-rule="evenodd" d="M8.24094 13.8338C8.27856 13.8046 8.3279 13.7953 8.37357 13.8088L10.4979 14.434C10.551 14.4496 10.591 14.4936 10.6015 14.548L11.0987 17.1167C11.1099 17.1746 11.0857 17.2336 11.0371 17.2669L10.6756 17.5155C10.6223 17.5522 10.5514 17.55 10.5005 17.5102L8.30083 15.7927C8.2663 15.7657 8.24548 15.7249 8.24395 15.6811L8.18368 13.9561C8.18202 13.9085 8.20332 13.863 8.24094 13.8338ZM8.48697 14.151L8.53765 15.6017L10.5972 17.2098L10.7893 17.0777L10.3277 14.6928L8.48697 14.151Z" fill="#F6851B"/>
<path d="M13.5816 19.7591L13.6042 19.0586L13.4159 18.8928H10.576L10.4027 19.0586L10.4178 19.7591L8.04492 18.6367L8.87355 19.3147L10.5534 20.4823H13.4385L15.1259 19.3147L15.9545 18.6367L13.5816 19.7591Z" fill="#C0AD9E"/>
<path fill-rule="evenodd" clip-rule="evenodd" d="M7.9204 18.5573C7.96039 18.494 8.0413 18.4705 8.10896 18.5025L10.2652 19.5225L10.2553 19.0615C10.2544 19.0199 10.271 18.98 10.301 18.9512L10.4743 18.7855C10.5019 18.7591 10.5385 18.7444 10.5767 18.7444H13.4166C13.4526 18.7444 13.4874 18.7576 13.5145 18.7814L13.7028 18.9471C13.736 18.9763 13.7544 19.0189 13.753 19.0631L13.7382 19.5212L15.8919 18.5025C15.9595 18.4705 16.0404 18.494 16.0804 18.5573C16.1204 18.6205 16.107 18.7037 16.049 18.7511L15.2204 19.4291C15.2173 19.4316 15.2142 19.434 15.2109 19.4362L13.5235 20.6039C13.4987 20.621 13.4693 20.6302 13.4392 20.6302H10.5541C10.5239 20.6302 10.4944 20.6209 10.4695 20.6037L8.78969 19.4361C8.78651 19.4339 8.78342 19.4315 8.78043 19.4291L7.9518 18.7511C7.89387 18.7037 7.8804 18.6205 7.9204 18.5573ZM9.13676 19.3165L10.6005 20.3339H13.393L14.8616 19.3177L13.6457 19.8928C13.599 19.9149 13.5442 19.911 13.5011 19.8827C13.4579 19.8544 13.4326 19.8057 13.4343 19.7541L13.4546 19.1234L13.3607 19.0407H10.6361L10.5529 19.1203L10.5666 19.7557C10.5677 19.807 10.5422 19.8552 10.4991 19.8832C10.456 19.9111 10.4016 19.9147 10.3551 19.8928L9.13676 19.3165Z" fill="#C0AD9E"/>
<path d="M13.4014 17.3936L13.0399 17.145H10.9532L10.5916 17.3936L10.4033 19.0584L10.5766 18.8927H13.4165L13.6048 19.0584L13.4014 17.3936Z" fill="#161616"/>
<path fill-rule="evenodd" clip-rule="evenodd" d="M10.869 17.0231C10.8937 17.0062 10.923 16.9971 10.9529 16.9971H13.0396C13.0695 16.9971 13.0988 17.0062 13.1235 17.0231L13.4851 17.2717C13.5201 17.2958 13.5431 17.3337 13.5482 17.3758L13.7516 19.0406C13.7591 19.1016 13.728 19.1609 13.6737 19.1896C13.6193 19.2183 13.5528 19.2104 13.5067 19.1698L13.3603 19.041H10.6357L10.5054 19.1656C10.4604 19.2088 10.3931 19.219 10.3372 19.1913C10.2814 19.1636 10.2488 19.1039 10.2558 19.0419L10.4442 17.3772C10.449 17.3345 10.4721 17.296 10.5074 17.2717L10.869 17.0231ZM10.999 17.2934L10.731 17.4776L10.5876 18.7447H13.4162C13.4165 18.7447 13.4167 18.7447 13.4169 18.7447L13.2622 17.4781L12.9936 17.2934H10.999Z" fill="#161616"/>
<path d="M20.9635 8.60226L21.6038 5.52882L20.6471 2.67383L13.4004 8.05236L16.1876 10.4102L20.1273 11.5627L21.0011 10.5458L20.6245 10.2746L21.2271 9.72467L20.7601 9.36309L21.3627 8.90358L20.9635 8.60226Z" fill="#763D16"/>
<path fill-rule="evenodd" clip-rule="evenodd" d="M20.6922 2.53269C20.7375 2.54692 20.7732 2.58197 20.7883 2.62696L21.7449 5.48195C21.7533 5.50685 21.7549 5.53352 21.7495 5.55923L21.1283 8.54077L21.4527 8.78553C21.4897 8.81345 21.5114 8.85707 21.5116 8.90342C21.5117 8.94976 21.4901 8.99349 21.4532 9.02159L21.0039 9.36419L21.3185 9.60773C21.3531 9.63451 21.3741 9.67519 21.3758 9.71889C21.3776 9.76259 21.36 9.80483 21.3277 9.83431L20.8599 10.2612L21.0884 10.4257C21.1221 10.45 21.144 10.4873 21.1489 10.5285C21.1538 10.5697 21.1412 10.611 21.1142 10.6425L20.2404 11.6595C20.2025 11.7036 20.1422 11.7214 20.0864 11.7051L16.1467 10.5526C16.1268 10.5468 16.1084 10.5368 16.0926 10.5235L13.3054 8.16567C13.2709 8.13645 13.2516 8.09306 13.253 8.04785C13.2544 8.00263 13.2765 7.96056 13.3128 7.9336L20.5595 2.55507C20.5976 2.52679 20.6469 2.51847 20.6922 2.53269ZM13.6394 8.06015L16.26 10.277L20.0779 11.3939L20.7843 10.5719L20.5386 10.395C20.5024 10.3689 20.4799 10.3279 20.4773 10.2833C20.4747 10.2388 20.4924 10.1954 20.5253 10.1653L20.9978 9.73418L20.6701 9.48044C20.6337 9.45226 20.6125 9.40877 20.6126 9.36275C20.6128 9.31673 20.6343 9.27339 20.6709 9.24549L21.1183 8.90439L20.8749 8.72072C20.8292 8.68619 20.8074 8.62836 20.8191 8.57225L21.4513 5.53806L20.5722 2.91464L13.6394 8.06015Z" fill="#763D16"/>
<path d="M2.39551 5.52882L3.03581 8.60226L2.62903 8.90358L3.23167 9.36309L2.77216 9.72467L3.37479 10.2746L2.99814 10.5458L3.86444 11.5627L7.80417 10.4102L10.5914 8.05236L3.34466 2.67383L2.39551 5.52882Z" fill="#763D16"/>
<path fill-rule="evenodd" clip-rule="evenodd" d="M3.29979 2.53275C3.3451 2.51845 3.39451 2.52675 3.43267 2.55507L10.6794 7.9336C10.7157 7.96056 10.7377 8.00264 10.7391 8.04785C10.7406 8.09306 10.7213 8.13645 10.6868 8.16567L7.89956 10.5235C7.88376 10.5368 7.86534 10.5468 7.84548 10.5526L3.90574 11.7051C3.84969 11.7215 3.78924 11.7034 3.75137 11.659L2.88508 10.642C2.85824 10.6105 2.8458 10.5692 2.85078 10.5281C2.85576 10.4871 2.8777 10.4499 2.91129 10.4257L3.13983 10.2612L2.67201 9.83431C2.63985 9.80497 2.62223 9.76297 2.62382 9.71947C2.6254 9.67597 2.64604 9.63537 2.68025 9.60845L2.98946 9.36514L2.53891 9.02159C2.50187 8.99335 2.48027 8.94933 2.4806 8.90275C2.48092 8.85618 2.50313 8.81246 2.54056 8.78474L2.87115 8.53986L2.25018 5.55923C2.24485 5.53364 2.24639 5.50709 2.25464 5.48228L3.20379 2.62729C3.21878 2.58221 3.25448 2.54705 3.29979 2.53275ZM3.4204 2.91495L2.54839 5.53788L3.18055 8.57225C3.19234 8.62883 3.17015 8.68711 3.1237 8.72151L2.87532 8.9055L3.32121 9.24549C3.35764 9.27327 3.37917 9.31635 3.37952 9.36217C3.37987 9.40798 3.359 9.45139 3.32299 9.47972L3.00081 9.73324L3.47436 10.1653C3.50733 10.1954 3.52498 10.2388 3.5224 10.2833C3.51982 10.3279 3.49729 10.3689 3.46107 10.395L3.21487 10.5723L3.91468 11.3938L7.73216 10.277L10.3527 8.06015L3.4204 2.91495Z" fill="#763D16"/>
<path d="M20.1279 11.5632L16.1882 10.4106L17.3859 12.211L15.6006 15.6762L17.9509 15.646H21.4537L20.1279 11.5632Z" fill="#F6851B"/>
<path fill-rule="evenodd" clip-rule="evenodd" d="M16.0695 10.3226C16.1064 10.2724 16.1707 10.2507 16.2304 10.2682L20.1702 11.4207C20.2172 11.4345 20.2544 11.4706 20.2695 11.5172L21.5953 15.6C21.6099 15.6451 21.6021 15.6945 21.5742 15.7329C21.5463 15.7712 21.5018 15.7939 21.4544 15.7939H17.9525L15.6032 15.824C15.5512 15.8247 15.5026 15.7981 15.4753 15.7538C15.4479 15.7096 15.4458 15.6543 15.4696 15.608L17.215 12.2203L16.0655 10.4924C16.031 10.4406 16.0326 10.3727 16.0695 10.3226ZM16.5373 10.6667L17.5099 12.1287C17.5397 12.1734 17.5429 12.2308 17.5183 12.2786L15.8459 15.5246L17.9516 15.4976L21.2505 15.4976L20.0118 11.6831L16.5373 10.6667Z" fill="#F6851B"/>
<path d="M7.80418 10.4106L3.86444 11.5632L2.55371 15.646H6.049L8.39175 15.6762L6.61397 12.211L7.80418 10.4106Z" fill="#F6851B"/>
<path fill-rule="evenodd" clip-rule="evenodd" d="M7.92311 10.3224C7.96002 10.3724 7.96177 10.4402 7.92748 10.4921L6.78504 12.2202L8.52328 15.6083C8.547 15.6545 8.54476 15.7098 8.51739 15.7539C8.49002 15.7981 8.44151 15.8247 8.38956 15.824L6.04773 15.7939H2.55342C2.50609 15.7939 2.46161 15.7713 2.43372 15.7331C2.40583 15.6948 2.3979 15.6455 2.41237 15.6005L3.7231 11.5176C3.73812 11.4708 3.77538 11.4345 3.82256 11.4207L7.7623 10.2682C7.82197 10.2507 7.8862 10.2724 7.92311 10.3224ZM3.98119 11.683L2.75658 15.4976H6.05062L8.14734 15.5246L6.48188 12.2784C6.45745 12.2308 6.4606 12.1737 6.4901 12.129L7.45721 10.6661L3.98119 11.683Z" fill="#F6851B"/>
<path d="M13.1521 12.3991L13.4007 8.05259L14.5457 4.95654H9.46094L10.5909 8.05259L10.8545 12.3991L10.9449 13.7701L10.9525 17.1449H13.0391L13.0542 13.7701L13.1521 12.3991Z" fill="#F6851B"/>
<path fill-rule="evenodd" clip-rule="evenodd" d="M9.34023 4.87182C9.36795 4.8322 9.41327 4.80859 9.46163 4.80859H14.5464C14.5948 4.80859 14.6403 4.8323 14.668 4.87208C14.6956 4.91186 14.7021 4.96267 14.6853 5.00813L13.548 8.08338L13.3006 12.4099L13.203 13.7759L13.1879 17.1457C13.1876 17.2273 13.1213 17.2932 13.0398 17.2932H10.9532C10.8715 17.2932 10.8052 17.2271 10.805 17.1454L10.7975 13.7753L10.7074 12.4091L10.7073 12.4083L10.445 8.0833L9.32246 5.00753C9.30588 4.96211 9.31251 4.91145 9.34023 4.87182ZM9.6734 5.10489L10.7307 8.002C10.7356 8.01544 10.7386 8.02953 10.7394 8.04382L11.0031 12.3896L11.0031 12.3903L11.0934 13.7606C11.0937 13.7637 11.0938 13.7668 11.0938 13.77L11.101 16.9969H12.8923L12.9067 13.7696C12.9067 13.7663 12.9068 13.763 12.9071 13.7597L13.0049 12.3898L13.2535 8.04433C13.2543 8.02965 13.2573 8.01519 13.2624 8.0014L14.3336 5.10489H9.6734Z" fill="#F6851B"/>
</svg>
