<svg width="24" height="24" viewBox="0 0 24 24" fill="none" xmlns="http://www.w3.org/2000/svg">
<g clip-path="url(#clip0_1129:226)">
<path d="M12.3646 0C9.03557 0 6.34142 2.66593 6.34142 5.96011V8.19391C5.17239 8.40333 4 8.68255 4 9.04488V20.7025C4 20.7025 4 21.0249 4.36616 21.1778C5.69308 21.7097 10.9134 23.538 12.1127 23.9568C12.2672 24.0133 12.3109 24.0133 12.3512 24.0133C12.4083 24.0133 12.4352 24.0133 12.5897 23.9568C13.789 23.538 19.0227 21.7097 20.3496 21.1778C20.6889 21.0382 20.7024 20.7158 20.7024 20.7158V9.04488C20.7024 8.68255 19.5468 8.39003 18.3744 8.19391V5.96011C18.3912 2.66593 15.6802 0 12.3646 0ZM12.3646 2.84875C14.3264 2.84875 15.5123 4.02216 15.5123 5.96344V7.90471C13.3119 7.7518 11.4341 7.7518 9.22033 7.90471V5.96344C9.22033 4.01884 10.4062 2.84875 12.3646 2.84875ZM12.3512 10.7634C15.089 10.7634 17.3868 10.9729 17.3868 11.3485V18.6216C17.3868 18.7346 17.3733 18.7479 17.2725 18.7878C17.1751 18.831 12.6031 20.4632 12.6031 20.4632C12.6031 20.4632 12.4184 20.5197 12.3646 20.5197C12.3075 20.5197 12.1261 20.4499 12.1261 20.4499C12.1261 20.4499 7.55412 18.8177 7.45671 18.7745C7.35929 18.7313 7.34249 18.718 7.34249 18.6083V11.3352C7.31562 10.9596 9.61337 10.7634 12.3512 10.7634Z" fill="black"/>
</g>
<defs>
<clipPath id="clip0_1129:226">
<rect width="24" height="24" fill="white"/>
</clipPath>
</defs>
</svg>
