<svg width="24" height="24" viewBox="0 0 24 24" fill="none" xmlns="http://www.w3.org/2000/svg">
<circle cx="12" cy="12" r="12" fill="#0D0234"/>
<path d="M9.77093 8.37829C10.4388 7.94376 11.1773 7.72329 11.9864 7.72329C12.787 7.72115 13.5254 7.94162 14.204 8.38472L15.6253 6.96339C14.5208 6.11573 13.3071 5.68976 11.9864 5.6919C10.6593 5.69404 9.44771 6.11573 8.34961 6.96125L9.77093 8.37829Z" fill="white"/>
<path d="M8.37082 14.2178C7.91916 13.5329 7.6944 12.7922 7.69655 11.9981C7.69869 11.1911 7.9213 10.4526 8.36654 9.78051L6.94949 8.36133C6.11682 9.44658 5.69941 10.6581 5.69727 11.9981C5.69513 13.3252 6.11468 14.5368 6.95377 15.637L8.37082 14.2178Z" fill="white"/>
<path d="M14.2161 15.6284C13.5418 16.0822 12.8033 16.3134 12.0006 16.3198C11.185 16.3262 10.438 16.0951 9.75944 15.6327L8.34668 17.0455C9.44478 17.8995 10.6649 18.3212 12.0092 18.3105C13.3384 18.2998 14.5457 17.8781 15.631 17.0433L14.2161 15.6284Z" fill="white"/>
<path d="M15.6144 9.77806C16.0704 10.4652 16.293 11.2186 16.2844 12.0385C16.2759 12.8283 16.0511 13.5561 15.6123 14.2218L17.0315 15.641C17.8663 14.5536 18.2901 13.3463 18.3008 12.0213C18.3115 10.6771 17.8898 9.45698 17.0357 8.35889L15.6144 9.77806Z" fill="white"/>
<path d="M17.0089 17.148C16.9875 17.1266 16.9767 17.1009 16.9767 17.0731C16.9767 17.0452 16.9875 17.0196 17.0089 16.9982C17.0495 16.9575 17.1159 16.9575 17.1587 16.9982C17.1801 17.0196 17.1908 17.0452 17.1908 17.0731C17.1908 17.1009 17.1801 17.1266 17.1587 17.148C17.1373 17.1694 17.1116 17.178 17.0838 17.178C17.0559 17.178 17.0303 17.1673 17.0089 17.148ZM16.7092 16.8483C16.6878 16.8269 16.6792 16.8012 16.6792 16.7734C16.6792 16.7456 16.6899 16.7199 16.7092 16.6985C16.7499 16.6578 16.8183 16.6578 16.859 16.6985C16.8804 16.7199 16.889 16.7456 16.889 16.7734C16.889 16.8012 16.8783 16.8269 16.859 16.8483C16.8376 16.8697 16.8119 16.8783 16.7841 16.8783C16.7584 16.8783 16.7306 16.8697 16.7092 16.8483ZM16.4116 16.5486C16.3902 16.5272 16.3795 16.5015 16.3795 16.4737C16.3795 16.4459 16.3902 16.4202 16.4116 16.3988C16.4523 16.3581 16.5208 16.3581 16.5615 16.3988C16.5829 16.4202 16.5915 16.4459 16.5915 16.4737C16.5915 16.5015 16.5807 16.5272 16.5615 16.5486C16.5401 16.57 16.5144 16.5807 16.4866 16.5807C16.4587 16.5807 16.4309 16.57 16.4116 16.5486ZM16.112 16.249C16.0906 16.2276 16.082 16.2019 16.082 16.174C16.082 16.1462 16.0927 16.1205 16.112 16.0991C16.1526 16.0585 16.2211 16.0585 16.2618 16.0991C16.2832 16.1205 16.2918 16.1462 16.2918 16.174C16.2918 16.2019 16.2811 16.2276 16.2618 16.249C16.2404 16.2704 16.2147 16.2811 16.1869 16.2811C16.1591 16.2811 16.1334 16.2704 16.112 16.249ZM15.8123 15.9514C15.7909 15.93 15.7802 15.9043 15.7802 15.8765C15.7802 15.8487 15.7909 15.823 15.8123 15.8016C15.853 15.7609 15.9193 15.7609 15.9621 15.8016C15.9835 15.823 15.9921 15.8487 15.9921 15.8765C15.9921 15.9043 15.9814 15.93 15.9621 15.9514C15.9407 15.9728 15.915 15.9814 15.8872 15.9814C15.8615 15.9814 15.8337 15.9707 15.8123 15.9514ZM15.5148 15.6518C15.4934 15.6303 15.4827 15.6047 15.4827 15.5768C15.4827 15.549 15.4934 15.5233 15.5148 15.5019C15.5554 15.4612 15.6218 15.4612 15.6646 15.5019C15.686 15.5233 15.6967 15.549 15.6967 15.5768C15.6967 15.6047 15.686 15.6303 15.6646 15.6518C15.6432 15.6732 15.6175 15.6817 15.5897 15.6817C15.5619 15.6817 15.534 15.6732 15.5148 15.6518ZM15.2151 15.3521C15.1937 15.3307 15.1851 15.305 15.1851 15.2772C15.1851 15.2493 15.1958 15.2236 15.2151 15.2022C15.2558 15.1616 15.3242 15.1616 15.3649 15.2022C15.3863 15.2236 15.397 15.2493 15.397 15.2772C15.397 15.305 15.3863 15.3307 15.3649 15.3521C15.3435 15.3735 15.3178 15.3842 15.29 15.3842C15.2622 15.3842 15.2365 15.3735 15.2151 15.3521ZM14.9154 15.0545C14.894 15.0331 14.8833 15.0074 14.8833 14.9796C14.8833 14.9518 14.894 14.9261 14.9154 14.9047C14.9561 14.864 15.0246 14.864 15.0652 14.9047C15.0866 14.9261 15.0952 14.9518 15.0952 14.9796C15.0952 15.0074 15.0845 15.0331 15.0652 15.0545C15.0438 15.0759 15.0182 15.0845 14.9903 15.0845C14.9646 15.0845 14.9368 15.0738 14.9154 15.0545ZM14.6157 14.7549C14.5943 14.7335 14.5836 14.7078 14.5836 14.6799C14.5836 14.6521 14.5943 14.6264 14.6157 14.605C14.6564 14.5644 14.7249 14.5644 14.7656 14.605C14.787 14.6264 14.7977 14.6521 14.7977 14.6799C14.7977 14.7078 14.787 14.7335 14.7656 14.7549C14.7442 14.7763 14.7185 14.787 14.6906 14.787C14.665 14.7848 14.6371 14.7741 14.6157 14.7549ZM14.3182 14.4552C14.2968 14.4338 14.2861 14.4081 14.2861 14.3803C14.2861 14.3524 14.2968 14.3268 14.3182 14.3054C14.3589 14.2647 14.4252 14.2647 14.468 14.3054C14.4894 14.3268 14.5001 14.3524 14.5001 14.3803C14.5001 14.4081 14.4894 14.4338 14.468 14.4552C14.4466 14.4766 14.4209 14.4873 14.3931 14.4873C14.3653 14.4873 14.3375 14.4766 14.3182 14.4552ZM14.0185 14.1577C13.9971 14.1362 13.9864 14.1106 13.9864 14.0827C13.9864 14.0549 13.9971 14.0292 14.0185 14.0078C14.0592 13.9671 14.1255 13.9671 14.1684 14.0078C14.1898 14.0292 14.2005 14.0549 14.2005 14.0827C14.2005 14.1106 14.1898 14.1362 14.1684 14.1577C14.147 14.1791 14.1213 14.1876 14.0934 14.1876C14.0656 14.1876 14.0399 14.1769 14.0185 14.1577ZM13.7188 13.858C13.6974 13.8366 13.6889 13.8109 13.6889 13.7831C13.6889 13.7552 13.6996 13.7295 13.7188 13.7081C13.7595 13.6675 13.828 13.6675 13.8687 13.7081C13.8901 13.7295 13.9008 13.7552 13.9008 13.7831C13.9008 13.8109 13.8901 13.8366 13.8687 13.858C13.8473 13.8794 13.8216 13.8901 13.7938 13.8901C13.7681 13.8879 13.7402 13.8772 13.7188 13.858ZM13.4213 13.5583C13.3999 13.5369 13.3913 13.5112 13.3913 13.4834C13.3913 13.4556 13.402 13.4299 13.4213 13.4085C13.462 13.3678 13.5305 13.3678 13.5711 13.4085C13.5926 13.4299 13.6033 13.4556 13.6033 13.4834C13.6033 13.5112 13.5926 13.5369 13.5711 13.5583C13.5497 13.5797 13.5241 13.5904 13.4962 13.5904C13.4684 13.5883 13.4406 13.5797 13.4213 13.5583ZM13.1216 13.2586C13.1002 13.2372 13.0895 13.2115 13.0895 13.1837C13.0895 13.1559 13.1002 13.1302 13.1216 13.1088C13.1623 13.0681 13.2308 13.0681 13.2715 13.1088C13.2929 13.1302 13.3014 13.1559 13.3014 13.1837C13.3014 13.2115 13.2907 13.2372 13.2715 13.2586C13.2501 13.28 13.2244 13.2907 13.1965 13.2907C13.1687 13.2907 13.1409 13.28 13.1216 13.2586ZM12.822 12.9611C12.8005 12.9397 12.7898 12.914 12.7898 12.8862C12.7898 12.8583 12.8005 12.8327 12.822 12.8113C12.8626 12.7706 12.9311 12.7706 12.9718 12.8113C12.9932 12.8327 13.0039 12.8583 13.0039 12.8862C13.0039 12.914 12.9932 12.9397 12.9718 12.9611C12.9504 12.9825 12.9247 12.9932 12.8969 12.9932C12.869 12.9911 12.8434 12.9804 12.822 12.9611ZM12.5244 12.6614C12.503 12.64 12.4923 12.6143 12.4923 12.5865C12.4923 12.5587 12.503 12.533 12.5244 12.5116C12.5651 12.4709 12.6314 12.4709 12.6743 12.5116C12.6957 12.533 12.7064 12.5587 12.7064 12.5865C12.7064 12.6143 12.6957 12.64 12.6743 12.6614C12.6529 12.6828 12.6272 12.6914 12.5993 12.6914C12.5715 12.6914 12.5437 12.6807 12.5244 12.6614ZM12.2247 12.3617C12.2033 12.3403 12.1948 12.3146 12.1948 12.2868C12.1948 12.259 12.2055 12.2333 12.2247 12.2119C12.2654 12.1712 12.3339 12.1712 12.3746 12.2119C12.396 12.2333 12.4067 12.259 12.4067 12.2868C12.4067 12.3146 12.396 12.3403 12.3746 12.3617C12.3532 12.3831 12.3275 12.3917 12.2997 12.3917C12.2718 12.3938 12.244 12.3831 12.2247 12.3617ZM11.9251 12.0621C11.9037 12.0407 11.8951 12.015 11.8951 11.9871C11.8951 11.9593 11.9058 11.9336 11.9251 11.9122C11.9657 11.8716 12.0342 11.8716 12.0749 11.9122C12.0963 11.9336 12.1049 11.9593 12.1049 11.9871C12.1049 12.015 12.0942 12.0407 12.0749 12.0621C12.0535 12.0835 12.0278 12.0942 12 12.0942C11.9722 12.0942 11.9465 12.0835 11.9251 12.0621ZM11.6254 11.7645C11.604 11.7431 11.5933 11.7174 11.5933 11.6896C11.5933 11.6618 11.604 11.6361 11.6254 11.6147C11.6661 11.574 11.7346 11.574 11.7752 11.6147C11.7966 11.6361 11.8052 11.6618 11.8052 11.6896C11.8052 11.7174 11.7945 11.7431 11.7752 11.7645C11.7538 11.7859 11.7281 11.7966 11.7003 11.7966C11.6746 11.7945 11.6468 11.7838 11.6254 11.7645ZM11.3279 11.4649C11.3064 11.4434 11.2957 11.4178 11.2957 11.3899C11.2957 11.3621 11.3064 11.3364 11.3279 11.315C11.3685 11.2743 11.437 11.2743 11.4777 11.315C11.4991 11.3364 11.5077 11.3621 11.5077 11.3899C11.5077 11.4178 11.497 11.4434 11.4777 11.4649C11.4563 11.4863 11.4306 11.4948 11.4028 11.4948C11.3749 11.4948 11.3471 11.4863 11.3279 11.4649ZM11.0282 11.1652C11.0068 11.1438 10.9961 11.1181 10.9961 11.0903C10.9961 11.0624 11.0068 11.0367 11.0282 11.0153C11.0688 10.9747 11.1352 10.9747 11.178 11.0153C11.1994 11.0367 11.2101 11.0624 11.2101 11.0903C11.2101 11.1181 11.1994 11.1438 11.178 11.1652C11.1566 11.1866 11.1309 11.1973 11.1031 11.1973C11.0753 11.1973 11.0474 11.1866 11.0282 11.1652ZM10.7285 10.8676C10.7071 10.8462 10.6985 10.8205 10.6985 10.7927C10.6985 10.7649 10.7092 10.7392 10.7285 10.7178C10.7692 10.6771 10.8377 10.6771 10.8783 10.7178C10.8997 10.7392 10.9104 10.7649 10.9104 10.7927C10.9104 10.8205 10.8997 10.8462 10.8783 10.8676C10.8569 10.889 10.8312 10.8976 10.8034 10.8976C10.7756 10.8976 10.7499 10.8869 10.7285 10.8676ZM10.4288 10.568C10.4074 10.5466 10.3967 10.5209 10.3967 10.493C10.3967 10.4652 10.4074 10.4395 10.4288 10.4181C10.4695 10.3775 10.5359 10.3775 10.5787 10.4181C10.6001 10.4395 10.6086 10.4652 10.6086 10.493C10.6086 10.5209 10.5979 10.5466 10.5787 10.568C10.5573 10.5894 10.5316 10.5979 10.5037 10.5979C10.4781 10.5979 10.4502 10.5872 10.4288 10.568ZM10.1313 10.2683C10.1099 10.2469 10.1013 10.2212 10.1013 10.1934C10.1013 10.1655 10.112 10.1399 10.1313 10.1185C10.172 10.0778 10.2405 10.0778 10.2811 10.1185C10.3025 10.1399 10.3132 10.1655 10.3132 10.1934C10.3132 10.2212 10.3025 10.2469 10.2811 10.2683C10.2597 10.2897 10.234 10.3004 10.2062 10.3004C10.1784 10.3004 10.1506 10.2897 10.1313 10.2683ZM9.83161 9.96861C9.81021 9.94721 9.80165 9.92152 9.80165 9.8937C9.80165 9.86587 9.81235 9.84018 9.83161 9.81878C9.87229 9.77811 9.94078 9.77811 9.98145 9.81878C10.0029 9.84018 10.0114 9.86587 10.0114 9.8937C10.0114 9.92152 10.0007 9.94721 9.98145 9.96861C9.96005 9.99002 9.93436 10.0007 9.90653 10.0007C9.87871 10.0007 9.85302 9.99002 9.83161 9.96861ZM9.53194 9.67108C9.51053 9.64967 9.49983 9.62399 9.49983 9.59616C9.49983 9.56833 9.51053 9.54265 9.53194 9.52124C9.57261 9.48057 9.64111 9.48057 9.68178 9.52124C9.70318 9.54265 9.71174 9.56833 9.71174 9.59616C9.71174 9.62399 9.70104 9.64967 9.68178 9.67108C9.66037 9.69248 9.63468 9.70105 9.60686 9.70105C9.58117 9.70105 9.55334 9.69034 9.53194 9.67108ZM9.2344 9.3714C9.213 9.35 9.20444 9.32431 9.20444 9.29648C9.20444 9.26866 9.21514 9.24297 9.2344 9.22157C9.27507 9.1809 9.34357 9.1809 9.38424 9.22157C9.40565 9.24297 9.41635 9.26866 9.41635 9.29648C9.41635 9.32431 9.40565 9.35 9.38424 9.3714C9.36284 9.39281 9.33715 9.40137 9.30932 9.40137C9.28149 9.40137 9.25367 9.39281 9.2344 9.3714ZM8.93473 9.07173C8.91332 9.05032 8.90262 9.02464 8.90262 8.99681C8.90262 8.96898 8.91332 8.9433 8.93473 8.92189C8.9754 8.88122 9.04175 8.88122 9.08456 8.92189C9.10597 8.9433 9.11453 8.96898 9.11453 8.99681C9.11453 9.02464 9.10383 9.05032 9.08456 9.07173C9.06316 9.09313 9.03747 9.10384 9.00965 9.10384C8.98182 9.10384 8.95613 9.09313 8.93473 9.07173ZM8.63505 8.77205C8.61365 8.75065 8.60508 8.72496 8.60508 8.69713C8.60508 8.66931 8.61579 8.64362 8.63505 8.62221C8.67572 8.58154 8.74422 8.58154 8.78489 8.62221C8.80629 8.64362 8.817 8.66931 8.817 8.69713C8.817 8.72496 8.80629 8.75065 8.78489 8.77205C8.76348 8.79346 8.7378 8.80202 8.70997 8.80202C8.68214 8.80416 8.65646 8.79346 8.63505 8.77205ZM8.33537 8.47452C8.31397 8.45311 8.30327 8.42742 8.30327 8.3996C8.30327 8.37177 8.31397 8.34608 8.33537 8.32468C8.37604 8.28401 8.44454 8.28401 8.48521 8.32468C8.50662 8.34608 8.51518 8.37177 8.51518 8.3996C8.51518 8.42742 8.50448 8.45311 8.48521 8.47452C8.46381 8.49592 8.43812 8.50662 8.41029 8.50662C8.38461 8.50448 8.35678 8.49378 8.33537 8.47452ZM8.03784 8.17484C8.01643 8.15344 8.00787 8.12775 8.00787 8.09992C8.00787 8.07209 8.01857 8.04641 8.03784 8.025C8.07851 7.98433 8.14701 7.98433 8.18768 8.025C8.20908 8.04641 8.21979 8.07209 8.21979 8.09992C8.21979 8.12775 8.20908 8.15344 8.18768 8.17484C8.16627 8.19625 8.14059 8.20481 8.11276 8.20481C8.08493 8.20695 8.0571 8.19625 8.03784 8.17484ZM7.73816 7.87516C7.71676 7.85376 7.70605 7.82807 7.70605 7.80025C7.70605 7.77242 7.71676 7.74673 7.73816 7.72533C7.77883 7.68466 7.84519 7.68466 7.888 7.72533C7.90941 7.74673 7.91797 7.77242 7.91797 7.80025C7.91797 7.82807 7.90727 7.85376 7.888 7.87516C7.8666 7.89657 7.84091 7.90727 7.81308 7.90727C7.78525 7.90727 7.75957 7.89657 7.73816 7.87516Z" fill="white"/>
<path d="M6.84149 17.1479C6.82009 17.1265 6.81152 17.1008 6.81152 17.073C6.81152 17.0452 6.82223 17.0195 6.84149 16.9981C6.88216 16.9574 6.95066 16.9574 6.99133 16.9981C7.01273 17.0195 7.02344 17.0452 7.02344 17.073C7.02344 17.1008 7.01273 17.1265 6.99133 17.1479C6.96992 17.1693 6.94424 17.1779 6.91641 17.1779C6.88858 17.1779 6.86076 17.1672 6.84149 17.1479ZM7.14117 16.8482C7.11976 16.8268 7.10906 16.8012 7.10906 16.7733C7.10906 16.7455 7.11976 16.7198 7.14117 16.6984C7.18184 16.6577 7.25033 16.6577 7.291 16.6984C7.31241 16.7198 7.32097 16.7455 7.32097 16.7733C7.32097 16.8012 7.31027 16.8268 7.291 16.8482C7.2696 16.8696 7.24391 16.8782 7.21608 16.8782C7.18826 16.8782 7.16043 16.8696 7.14117 16.8482ZM7.4387 16.5486C7.4173 16.5272 7.40873 16.5015 7.40873 16.4736C7.40873 16.4458 7.41944 16.4201 7.4387 16.3987C7.47937 16.3581 7.54787 16.3581 7.58854 16.3987C7.60994 16.4201 7.61851 16.4458 7.61851 16.4736C7.61851 16.5015 7.6078 16.5272 7.58854 16.5486C7.56713 16.57 7.54145 16.5807 7.51362 16.5807C7.48793 16.5807 7.46011 16.57 7.4387 16.5486ZM7.73838 16.2489C7.71697 16.2275 7.70841 16.2018 7.70841 16.174C7.70841 16.1461 7.71911 16.1205 7.73838 16.0991C7.77905 16.0584 7.84754 16.0584 7.88821 16.0991C7.90962 16.1205 7.92032 16.1461 7.92032 16.174C7.92032 16.2018 7.90962 16.2275 7.88821 16.2489C7.86681 16.2703 7.84112 16.281 7.81329 16.281C7.78547 16.281 7.75978 16.2703 7.73838 16.2489ZM8.03805 15.9514C8.01665 15.9299 8.00594 15.9043 8.00594 15.8764C8.00594 15.8486 8.01665 15.8229 8.03805 15.8015C8.07872 15.7608 8.14508 15.7608 8.18789 15.8015C8.20929 15.8229 8.22 15.8486 8.22 15.8764C8.22 15.9043 8.20929 15.9299 8.18789 15.9514C8.16648 15.9728 8.1408 15.9813 8.11297 15.9813C8.08514 15.9813 8.05732 15.9706 8.03805 15.9514ZM8.33559 15.6517C8.31418 15.6303 8.30562 15.6046 8.30562 15.5768C8.30562 15.5489 8.31632 15.5232 8.33559 15.5018C8.37626 15.4612 8.44475 15.4612 8.48542 15.5018C8.50683 15.5232 8.51753 15.5489 8.51753 15.5768C8.51753 15.6046 8.50683 15.6303 8.48542 15.6517C8.46402 15.6731 8.43833 15.6816 8.4105 15.6816C8.38482 15.6816 8.35699 15.6731 8.33559 15.6517ZM8.63526 15.352C8.61386 15.3306 8.60315 15.3049 8.60315 15.2771C8.60315 15.2493 8.61386 15.2236 8.63526 15.2022C8.67593 15.1615 8.74443 15.1615 8.7851 15.2022C8.8065 15.2236 8.81507 15.2493 8.81507 15.2771C8.81507 15.3049 8.80436 15.3306 8.7851 15.352C8.76369 15.3734 8.73801 15.3841 8.71018 15.3841C8.68235 15.3841 8.65667 15.3734 8.63526 15.352ZM8.93494 15.0545C8.91353 15.0331 8.90283 15.0074 8.90283 14.9795C8.90283 14.9517 8.91353 14.926 8.93494 14.9046C8.97561 14.864 9.0441 14.864 9.08477 14.9046C9.10618 14.926 9.11688 14.9517 9.11688 14.9795C9.11688 15.0074 9.10618 15.0331 9.08477 15.0545C9.06337 15.0759 9.03768 15.0844 9.00985 15.0844C8.98203 15.0844 8.95634 15.0737 8.93494 15.0545ZM9.23461 14.7548C9.21321 14.7334 9.20464 14.7077 9.20464 14.6799C9.20464 14.652 9.21535 14.6264 9.23461 14.605C9.27528 14.5643 9.34378 14.5643 9.38445 14.605C9.40585 14.6264 9.41442 14.652 9.41442 14.6799C9.41442 14.7077 9.40371 14.7334 9.38445 14.7548C9.36304 14.7762 9.33736 14.7869 9.30953 14.7869C9.2817 14.7848 9.25388 14.7741 9.23461 14.7548ZM9.53215 14.4551C9.51074 14.4337 9.50218 14.408 9.50218 14.3802C9.50218 14.3524 9.51288 14.3267 9.53215 14.3053C9.57282 14.2646 9.64131 14.2646 9.68198 14.3053C9.70339 14.3267 9.71409 14.3524 9.71409 14.3802C9.71409 14.408 9.70339 14.4337 9.68198 14.4551C9.66058 14.4765 9.63489 14.4872 9.60706 14.4872C9.58138 14.4872 9.55355 14.4765 9.53215 14.4551ZM9.83182 14.1576C9.81042 14.1362 9.79971 14.1105 9.79971 14.0827C9.79971 14.0548 9.81042 14.0291 9.83182 14.0077C9.87249 13.9671 9.93885 13.9671 9.98166 14.0077C10.0031 14.0291 10.0116 14.0548 10.0116 14.0827C10.0116 14.1105 10.0009 14.1362 9.98166 14.1576C9.96025 14.179 9.93457 14.1875 9.90674 14.1875C9.87891 14.1875 9.85323 14.1768 9.83182 14.1576ZM10.1315 13.8579C10.1101 13.8365 10.1015 13.8108 10.1015 13.783C10.1015 13.7552 10.1122 13.7295 10.1315 13.7081C10.1722 13.6674 10.2407 13.6674 10.2813 13.7081C10.3027 13.7295 10.3113 13.7552 10.3113 13.783C10.3113 13.8108 10.3006 13.8365 10.2813 13.8579C10.2599 13.8793 10.2342 13.89 10.2064 13.89C10.1786 13.8879 10.1508 13.8772 10.1315 13.8579ZM10.429 13.5582C10.4076 13.5368 10.3969 13.5111 10.3969 13.4833C10.3969 13.4555 10.4076 13.4298 10.429 13.4084C10.4697 13.3677 10.5382 13.3677 10.5789 13.4084C10.6003 13.4298 10.6088 13.4555 10.6088 13.4833C10.6088 13.5111 10.5981 13.5368 10.5789 13.5582C10.5575 13.5796 10.5318 13.5903 10.5039 13.5903C10.4783 13.5882 10.4504 13.5796 10.429 13.5582ZM10.7287 13.2585C10.7073 13.2371 10.6987 13.2115 10.6987 13.1836C10.6987 13.1558 10.7094 13.1301 10.7287 13.1087C10.7694 13.068 10.8379 13.068 10.8785 13.1087C10.8999 13.1301 10.9107 13.1558 10.9107 13.1836C10.9107 13.2115 10.8999 13.2371 10.8785 13.2585C10.8571 13.28 10.8315 13.2907 10.8036 13.2907C10.7758 13.2907 10.7501 13.28 10.7287 13.2585ZM11.0284 12.961C11.007 12.9396 10.9984 12.9139 10.9984 12.8861C10.9984 12.8583 11.0091 12.8326 11.0284 12.8112C11.0691 12.7705 11.1375 12.7705 11.1782 12.8112C11.1996 12.8326 11.2103 12.8583 11.2103 12.8861C11.2103 12.9139 11.1996 12.9396 11.1782 12.961C11.1568 12.9824 11.1311 12.9931 11.1033 12.9931C11.0755 12.991 11.0498 12.9803 11.0284 12.961ZM11.3281 12.6613C11.3067 12.6399 11.2959 12.6142 11.2959 12.5864C11.2959 12.5586 11.3067 12.5329 11.3281 12.5115C11.3687 12.4708 11.4351 12.4708 11.4779 12.5115C11.4993 12.5329 11.51 12.5586 11.51 12.5864C11.51 12.6142 11.4993 12.6399 11.4779 12.6613C11.4565 12.6827 11.4308 12.6913 11.403 12.6913C11.3751 12.6913 11.3473 12.6806 11.3281 12.6613ZM11.6256 12.3617C11.6042 12.3403 11.5935 12.3146 11.5935 12.2867C11.5935 12.2589 11.6042 12.2332 11.6256 12.2118C11.6663 12.1712 11.7326 12.1712 11.7754 12.2118C11.7968 12.2332 11.8054 12.2589 11.8054 12.2867C11.8054 12.3146 11.7947 12.3403 11.7754 12.3617C11.754 12.3831 11.7283 12.3916 11.7005 12.3916C11.6748 12.3938 11.647 12.3831 11.6256 12.3617ZM11.9253 12.062C11.9039 12.0406 11.8953 12.0149 11.8953 11.9871C11.8953 11.9592 11.906 11.9336 11.9253 11.9121C11.9659 11.8715 12.0344 11.8715 12.0751 11.9121C12.0965 11.9336 12.1051 11.9592 12.1051 11.9871C12.1051 12.0149 12.0944 12.0406 12.0751 12.062C12.0537 12.0834 12.028 12.0941 12.0002 12.0941C11.9724 12.0941 11.9467 12.0834 11.9253 12.062ZM12.2249 11.7644C12.2035 11.743 12.195 11.7174 12.195 11.6895C12.195 11.6617 12.2057 11.636 12.2249 11.6146C12.2656 11.5739 12.3341 11.5739 12.3748 11.6146C12.3962 11.636 12.4047 11.6617 12.4047 11.6895C12.4047 11.7174 12.394 11.743 12.3748 11.7644C12.3534 11.7859 12.3277 11.7966 12.2999 11.7966C12.272 11.7944 12.2463 11.7837 12.2249 11.7644ZM12.5246 11.4648C12.5032 11.4434 12.4946 11.4177 12.4946 11.3899C12.4946 11.362 12.5054 11.3363 12.5246 11.3149C12.5653 11.2743 12.6338 11.2743 12.6745 11.3149C12.6959 11.3363 12.7066 11.362 12.7066 11.3899C12.7066 11.4177 12.6959 11.4434 12.6745 11.4648C12.653 11.4862 12.6274 11.4947 12.5995 11.4947C12.5717 11.4947 12.5439 11.4862 12.5246 11.4648ZM12.8222 11.1651C12.8007 11.1437 12.79 11.118 12.79 11.0902C12.79 11.0624 12.8007 11.0367 12.8222 11.0153C12.8628 10.9746 12.9292 10.9746 12.972 11.0153C12.9934 11.0367 13.002 11.0624 13.002 11.0902C13.002 11.118 12.9913 11.1437 12.972 11.1651C12.9506 11.1865 12.9249 11.1951 12.8971 11.1951C12.8692 11.1972 12.8436 11.1865 12.8222 11.1651ZM13.1218 10.8676C13.1004 10.8462 13.0919 10.8205 13.0919 10.7926C13.0919 10.7648 13.1026 10.7391 13.1218 10.7177C13.1625 10.6771 13.231 10.6771 13.2717 10.7177C13.2931 10.7391 13.3038 10.7648 13.3038 10.7926C13.3038 10.8205 13.2931 10.8462 13.2717 10.8676C13.2503 10.889 13.2246 10.8975 13.1967 10.8975C13.1689 10.8975 13.1432 10.8868 13.1218 10.8676ZM13.4215 10.5679C13.4001 10.5465 13.3894 10.5208 13.3894 10.493C13.3894 10.4651 13.4001 10.4395 13.4215 10.418C13.4622 10.3774 13.5307 10.3774 13.5713 10.418C13.5927 10.4395 13.6034 10.4651 13.6034 10.493C13.6034 10.5208 13.5927 10.5465 13.5713 10.5679C13.5499 10.5893 13.5242 10.6 13.4964 10.6C13.4686 10.5979 13.4408 10.5872 13.4215 10.5679ZM13.719 10.2682C13.6976 10.2468 13.6869 10.2211 13.6869 10.1933C13.6869 10.1655 13.6976 10.1398 13.719 10.1184C13.7597 10.0777 13.8282 10.0777 13.8689 10.1184C13.8903 10.1398 13.8988 10.1655 13.8988 10.1933C13.8988 10.2211 13.8881 10.2468 13.8689 10.2682C13.8475 10.2896 13.8218 10.3003 13.794 10.3003C13.7683 10.3003 13.7404 10.2896 13.719 10.2682ZM14.0187 9.96853C13.9973 9.94713 13.9887 9.92144 13.9887 9.89361C13.9887 9.86579 13.9994 9.8401 14.0187 9.8187C14.0594 9.77802 14.1279 9.77802 14.1685 9.8187C14.19 9.8401 14.2007 9.86579 14.2007 9.89361C14.2007 9.92144 14.19 9.94713 14.1685 9.96853C14.1471 9.98994 14.1215 10.0006 14.0936 10.0006C14.0658 10.0006 14.0401 9.98994 14.0187 9.96853ZM14.3184 9.671C14.297 9.64959 14.2863 9.62391 14.2863 9.59608C14.2863 9.56825 14.297 9.54257 14.3184 9.52116C14.3591 9.48049 14.4254 9.48049 14.4682 9.52116C14.4896 9.54257 14.5003 9.56825 14.5003 9.59608C14.5003 9.62391 14.4896 9.64959 14.4682 9.671C14.4468 9.6924 14.4211 9.70097 14.3933 9.70097C14.3655 9.70097 14.3377 9.69026 14.3184 9.671ZM14.6181 9.37132C14.5967 9.34992 14.586 9.32423 14.586 9.2964C14.586 9.26858 14.5967 9.24289 14.6181 9.22148C14.6587 9.18081 14.7251 9.18081 14.7679 9.22148C14.7893 9.24289 14.7979 9.26858 14.7979 9.2964C14.7979 9.32423 14.7872 9.34992 14.7679 9.37132C14.7465 9.39273 14.7208 9.40129 14.693 9.40129C14.6652 9.40129 14.6373 9.39273 14.6181 9.37132ZM14.9156 9.07165C14.8942 9.05024 14.8856 9.02455 14.8856 8.99673C14.8856 8.9689 14.8963 8.94321 14.9156 8.92181C14.9563 8.88114 15.0248 8.88114 15.0654 8.92181C15.0868 8.94321 15.0975 8.9689 15.0975 8.99673C15.0975 9.02455 15.0868 9.05024 15.0654 9.07165C15.044 9.09305 15.0183 9.10375 14.9905 9.10375C14.9648 9.10375 14.937 9.09305 14.9156 9.07165ZM15.2153 8.77197C15.1939 8.75056 15.1832 8.72488 15.1832 8.69705C15.1832 8.66922 15.1939 8.64354 15.2153 8.62213C15.2559 8.58146 15.3244 8.58146 15.3651 8.62213C15.3865 8.64354 15.3951 8.66922 15.3951 8.69705C15.3951 8.72488 15.3844 8.75056 15.3651 8.77197C15.3437 8.79337 15.318 8.80194 15.2902 8.80194C15.2624 8.80408 15.2367 8.79337 15.2153 8.77197ZM15.5149 8.47443C15.4935 8.45303 15.485 8.42734 15.485 8.39951C15.485 8.37169 15.4957 8.346 15.5149 8.32459C15.5556 8.28392 15.6241 8.28392 15.6648 8.32459C15.6862 8.346 15.6948 8.37169 15.6948 8.39951C15.6948 8.42734 15.684 8.45303 15.6648 8.47443C15.6434 8.49584 15.6177 8.50654 15.5899 8.50654C15.562 8.5044 15.5342 8.4937 15.5149 8.47443ZM15.8125 8.17476C15.7911 8.15335 15.7825 8.12766 15.7825 8.09984C15.7825 8.07201 15.7932 8.04632 15.8125 8.02492C15.8532 7.98425 15.9216 7.98425 15.9623 8.02492C15.9837 8.04632 15.9944 8.07201 15.9944 8.09984C15.9944 8.12766 15.9837 8.15335 15.9623 8.17476C15.9409 8.19616 15.9152 8.20472 15.8874 8.20472C15.8617 8.20687 15.8339 8.19616 15.8125 8.17476ZM16.1122 7.87508C16.0908 7.85367 16.08 7.82799 16.08 7.80016C16.08 7.77233 16.0908 7.74665 16.1122 7.72524C16.1528 7.68457 16.2192 7.68457 16.262 7.72524C16.2834 7.74665 16.2941 7.77233 16.2941 7.80016C16.2941 7.82799 16.2834 7.85367 16.262 7.87508C16.2406 7.89649 16.2149 7.90719 16.1871 7.90719C16.1592 7.90719 16.1336 7.89649 16.1122 7.87508ZM16.4118 7.57754C16.3904 7.55614 16.3797 7.53045 16.3797 7.50263C16.3797 7.4748 16.3904 7.44911 16.4118 7.42771C16.4525 7.38704 16.521 7.38704 16.5617 7.42771C16.5831 7.44911 16.5938 7.4748 16.5938 7.50263C16.5938 7.53045 16.5831 7.55614 16.5617 7.57754C16.5403 7.59895 16.5146 7.60751 16.4867 7.60751C16.4589 7.60751 16.4311 7.59681 16.4118 7.57754ZM16.7115 7.27787C16.6901 7.25646 16.6794 7.23078 16.6794 7.20295C16.6794 7.17512 16.6901 7.14944 16.7115 7.12803C16.7522 7.08736 16.8207 7.08736 16.8613 7.12803C16.8827 7.14944 16.8913 7.17512 16.8913 7.20295C16.8913 7.23078 16.8806 7.25646 16.8613 7.27787C16.8399 7.29927 16.8143 7.30784 16.7864 7.30784C16.7586 7.30784 16.7308 7.29927 16.7115 7.27787ZM17.009 6.97819C16.9684 6.93752 16.9684 6.86902 17.009 6.82835C17.0497 6.78768 17.1182 6.78768 17.1589 6.82835C17.1995 6.86902 17.1995 6.93538 17.1589 6.97819C17.1375 6.9996 17.1118 7.00816 17.084 7.00816C17.0583 7.0103 17.0304 6.9996 17.009 6.97819Z" fill="white"/>
<path d="M17.0893 18.0576C17.6343 18.0576 18.0761 17.6158 18.0761 17.0708C18.0761 16.5258 17.6343 16.084 17.0893 16.084C16.5443 16.084 16.1025 16.5258 16.1025 17.0708C16.1025 17.6158 16.5443 18.0576 17.0893 18.0576Z" fill="white"/>
<path d="M6.92234 18.06C7.46733 18.06 7.90914 17.6182 7.90914 17.0732C7.90914 16.5282 7.46733 16.0864 6.92234 16.0864C6.37735 16.0864 5.93555 16.5282 5.93555 17.0732C5.93555 17.6182 6.37735 18.06 6.92234 18.06Z" fill="white"/>
<path d="M17.0981 7.88178C17.6431 7.88178 18.0849 7.43998 18.0849 6.89499C18.0849 6.35 17.6431 5.9082 17.0981 5.9082C16.5531 5.9082 16.1113 6.35 16.1113 6.89499C16.1113 7.43998 16.5531 7.88178 17.0981 7.88178Z" fill="white"/>
<path d="M6.89695 7.86469C7.44193 7.86469 7.88373 7.42289 7.88373 6.8779C7.88373 6.33291 7.44193 5.89111 6.89695 5.89111C6.35196 5.89111 5.91016 6.33291 5.91016 6.8779C5.91016 7.42289 6.35196 7.86469 6.89695 7.86469Z" fill="white"/>
</svg>
