<svg width="24" height="24" viewBox="0 0 24 24" fill="none" xmlns="http://www.w3.org/2000/svg">
<path d="M5.38345 8.56462C9.11854 4.86127 15.173 4.86127 18.9129 8.56462L19.3622 9.00981C19.5507 9.19571 19.5507 9.49413 19.3622 9.68003L17.8257 11.2064C17.7339 11.2993 17.5793 11.2993 17.4875 11.2064L16.869 10.5949C14.2646 8.01181 10.0366 8.01181 7.43219 10.5949L6.77022 11.2504C6.67841 11.3434 6.52379 11.3434 6.43198 11.2504L4.89059 9.72406C4.70215 9.53816 4.70215 9.23974 4.89059 9.05384L5.38345 8.56462ZM22.0923 11.7152L23.4597 13.0703C23.6482 13.2562 23.6482 13.5546 23.4597 13.7405L17.2893 19.8606C17.1009 20.0465 16.8013 20.0465 16.6129 19.8606L12.2303 15.5164C12.182 15.4723 12.1095 15.4723 12.0612 15.5164L7.68345 19.8606C7.49501 20.0465 7.19543 20.0465 7.00698 19.8606L0.831764 13.7454C0.643318 13.5595 0.643318 13.2611 0.831764 13.0752L2.1992 11.7201C2.38765 11.5342 2.68723 11.5342 2.87567 11.7201L7.25824 16.0643C7.30656 16.1083 7.37904 16.1083 7.42736 16.0643L11.8051 11.7201C11.9935 11.5342 12.2931 11.5342 12.4816 11.7201L16.8641 16.0643C16.9125 16.1083 16.9849 16.1083 17.0333 16.0643L21.4158 11.7201C21.5994 11.5293 21.9038 11.5293 22.0923 11.7152Z" fill="#3A99FB"/>
</svg>
