<?xml version="1.0" standalone="no"?>
<!DOCTYPE svg PUBLIC "-//W3C//DTD SVG 20010904//EN"
 "http://www.w3.org/TR/2001/REC-SVG-20010904/DTD/svg10.dtd">
<svg version="1.0" xmlns="http://www.w3.org/2000/svg"
 width="132.000000pt" height="132.000000pt" viewBox="0 0 132.000000 132.000000"
 preserveAspectRatio="xMidYMid meet">
<metadata>
Created by potrace 1.14, written by Peter Selinger 2001-2017
</metadata>
<g transform="translate(0.000000,132.000000) scale(0.100000,-0.100000)"
fill="#000000" stroke="none">
<path d="M0 660 l0 -660 414 0 414 0 35 39 c52 57 67 83 83 143 26 100 14 224
-32 326 -26 57 -43 122 -31 122 6 0 8 3 5 6 -8 7 -88 -15 -88 -24 0 -4 16 -27
35 -51 19 -24 35 -45 35 -46 0 -5 -110 -86 -124 -91 -10 -4 -26 12 -48 45 -18
28 -35 51 -38 51 -3 0 -18 -23 -35 -50 -16 -28 -33 -50 -37 -50 -13 0 -127 84
-128 94 0 4 13 25 28 45 47 60 47 58 -18 77 -33 9 -60 20 -60 23 0 13 43 136
50 144 3 4 22 1 41 -7 82 -33 79 -35 79 39 l0 66 83 -3 82 -3 -4 -62 c-1 -35
0 -63 3 -63 3 0 28 9 56 20 28 11 54 20 59 20 5 0 16 -17 25 -37 10 -23 14
-29 11 -14 -2 14 0 30 6 37 5 7 12 20 14 30 2 11 9 35 15 54 31 98 40 149 41
243 0 56 -5 123 -11 150 l-12 47 -474 0 -474 0 0 -660z"/>
</g>
</svg>
