<svg width="16" height="16" viewBox="0 0 15 15"  xmlns="http://www.w3.org/2000/svg">
<path d="M6.7448 10.1533C6.82567 10.2341 6.8711 10.3438 6.8711 10.4582C6.8711 10.5726 6.82567 10.6823 6.7448 10.7632L5.0198 12.4882C5.01775 12.4902 5.01549 12.4919 5.01344 12.4939C5.00537 12.5018 4.99699 12.5093 4.98832 12.5166C4.98277 12.5211 4.977 12.5252 4.97123 12.5294C4.96568 12.5335 4.96024 12.5379 4.95447 12.5417C4.94795 12.546 4.94115 12.5499 4.93447 12.5539C4.92908 12.5571 4.9238 12.5605 4.9183 12.5635C4.91156 12.567 4.90471 12.57 4.89787 12.5733C4.89194 12.5761 4.88606 12.579 4.87997 12.5816C4.87339 12.5843 4.86671 12.5865 4.86002 12.5888C4.85339 12.5912 4.84687 12.5938 4.84013 12.5959C4.8335 12.5978 4.82671 12.5993 4.81997 12.601C4.81307 12.6028 4.80623 12.6047 4.79916 12.6061C4.79151 12.6076 4.78375 12.6085 4.77604 12.6096C4.76984 12.6105 4.76369 12.6117 4.75744 12.6123C4.72912 12.6151 4.70059 12.6151 4.67227 12.6123C4.66602 12.6117 4.65987 12.6105 4.65367 12.6096C4.64596 12.6085 4.6382 12.6076 4.63055 12.6061C4.62354 12.6047 4.61664 12.6028 4.60974 12.601C4.603 12.5994 4.59626 12.5978 4.58958 12.5958C4.58284 12.5938 4.57632 12.5912 4.56968 12.5888C4.563 12.5865 4.55632 12.5843 4.54974 12.5816C4.54365 12.579 4.53777 12.5761 4.53184 12.5733C4.525 12.57 4.51815 12.567 4.51147 12.5635C4.50591 12.5605 4.50069 12.5571 4.49529 12.5539C4.48856 12.5499 4.48182 12.5461 4.47524 12.5417C4.46947 12.5379 4.46403 12.5335 4.45853 12.5293C4.45276 12.5251 4.44694 12.5211 4.44139 12.5166C4.43272 12.5094 4.42434 12.5018 4.41627 12.4939C4.41422 12.4919 4.41196 12.4901 4.40991 12.4882L2.68491 10.7632C2.64486 10.7231 2.61309 10.6756 2.59142 10.6232C2.56975 10.5709 2.55859 10.5148 2.55859 10.4582C2.55859 10.4016 2.56975 10.3455 2.59142 10.2932C2.61309 10.2408 2.64486 10.1933 2.68491 10.1533C2.76578 10.0724 2.87548 10.0269 2.98985 10.0269C3.04649 10.0269 3.10257 10.0381 3.15489 10.0598C3.20721 10.0814 3.25476 10.1132 3.2948 10.1533L4.2836 11.1421V3.5582C4.2836 3.44383 4.32904 3.33414 4.40991 3.25326C4.49079 3.17239 4.60048 3.12695 4.71485 3.12695C4.82923 3.12695 4.93892 3.17239 5.01979 3.25326C5.10067 3.33414 5.1461 3.44383 5.1461 3.5582V11.1421L6.13491 10.1533C6.21579 10.0724 6.32548 10.027 6.43985 10.027C6.55423 10.027 6.66392 10.0724 6.7448 10.1533ZM11.9198 4.97826L10.1948 3.25326C10.1929 3.25137 10.1909 3.24981 10.1889 3.24797C10.1807 3.23992 10.1722 3.23218 10.1633 3.22479C10.1578 3.22026 10.152 3.21633 10.1463 3.21213C10.1407 3.20792 10.1352 3.20355 10.1294 3.19973C10.1229 3.19536 10.1163 3.19164 10.1096 3.18765C10.1042 3.18442 10.0988 3.18097 10.0932 3.17795C10.0866 3.17439 10.0798 3.17143 10.0731 3.16825C10.067 3.16539 10.0611 3.16237 10.0549 3.15984C10.0484 3.15714 10.0418 3.15498 10.0352 3.15267C10.0286 3.15024 10.0219 3.14765 10.0151 3.14555C10.0085 3.14361 10.0019 3.1421 9.99519 3.14043C9.98818 3.1387 9.98128 3.13671 9.97416 3.13531C9.96656 3.1338 9.95885 3.13288 9.9512 3.1318C9.94495 3.13094 9.9388 3.1297 9.93244 3.12911C9.90412 3.12632 9.87559 3.12632 9.84727 3.12911C9.84096 3.1297 9.83476 3.13094 9.82851 3.1318C9.82085 3.13288 9.81314 3.1338 9.8056 3.13531C9.79843 3.13671 9.79153 3.1387 9.78452 3.14043C9.77784 3.1421 9.77121 3.14361 9.76458 3.14555C9.75778 3.14765 9.7511 3.15024 9.74447 3.15267C9.73789 3.15498 9.73126 3.15714 9.72479 3.15984C9.71859 3.16237 9.71266 3.16539 9.70663 3.16825C9.69989 3.17143 9.6931 3.17439 9.68647 3.17795C9.68086 3.18097 9.67558 3.18442 9.67008 3.18765C9.66345 3.19159 9.65676 3.19536 9.65029 3.19967C9.64447 3.20355 9.63898 3.20792 9.63337 3.21207C9.62771 3.21633 9.62189 3.22026 9.61639 3.22479C9.60756 3.23219 9.59901 3.23992 9.59078 3.24797C9.58884 3.24981 9.58679 3.25137 9.58485 3.25326L7.85985 4.97826C7.77898 5.05914 7.73354 5.16884 7.73355 5.28322C7.73355 5.3976 7.779 5.5073 7.85988 5.58818C7.94076 5.66905 8.05046 5.71449 8.16485 5.71448C8.27923 5.71448 8.38892 5.66903 8.4698 5.58815L9.4586 4.59935V12.1832C9.4586 12.2976 9.50404 12.4073 9.58491 12.4881C9.66579 12.569 9.77548 12.6145 9.88985 12.6145C10.0042 12.6145 10.1139 12.569 10.1948 12.4881C10.2757 12.4073 10.3211 12.2976 10.3211 12.1832V4.59935L11.3099 5.58815C11.3908 5.66903 11.5005 5.71446 11.6149 5.71446C11.7292 5.71446 11.8389 5.66903 11.9198 5.58815C12.0007 5.50727 12.0461 5.39758 12.0461 5.2832C12.0461 5.16883 12.0007 5.05913 11.9198 4.97826Z"/>
</svg>
