<svg width="285" height="38" viewBox="0 0 285 38" fill="none" xmlns="http://www.w3.org/2000/svg">
<path fill-rule="evenodd" clip-rule="evenodd" d="M19.0261 25.8603L10.1193 32.7415L16.5396 37.6882C17.0793 38.1039 17.8535 38.1039 18.3931 37.6882L34.1299 25.5863L26.7445 19.9121L19.0261 25.8603ZM16.3339 26.1897L13.4722 23.9843L13.4681 23.9923L-0.000814227 13.7695C-0.000825671 13.7719 -0.000829486 13.7743 -0.000829486 13.7767L-0.000829602 15.0982L-0.000833417 15.1005L-0.000830284 22.8995L-0.000834214 24.2234C-0.000834255 24.6853 0.210321 25.101 0.562246 25.3782L8.95505 31.8445L16.3339 26.1897ZM0.703589 12.513L8.07427 18.1758L16.5396 11.6518C16.6142 11.5944 16.6933 11.5449 16.7756 11.5033L24.8748 5.29637L18.3931 0.311823C17.8535 -0.103902 17.0793 -0.103902 16.5396 0.311823L0.703589 12.513ZM26.0537 6.20298L18.6676 11.8634L27.928 19L27.9217 19.0048L34.9265 24.3865C34.9312 24.34 34.9336 24.2932 34.9336 24.2465L34.9336 22.902L34.9336 22.8995L34.9336 13.7536C34.9336 13.3147 34.7224 12.8759 34.3705 12.5988L26.0537 6.20298Z" fill="#040D27"/>
<g opacity="0.9">
<path d="M55.2045 16.4996C54.7997 14.2624 53.0099 12.9414 50.8153 12.9414C48.0241 12.9414 46 15.0934 46 18.5451C46 21.9968 48.0241 24.1488 50.8153 24.1488C53.0099 24.1488 54.7997 22.8278 55.2045 20.5906H53.8835C53.5639 22.1033 52.2642 22.913 50.8153 22.913C48.8338 22.913 47.2784 21.3789 47.2784 18.5451C47.2784 15.7113 48.8338 14.1772 50.8153 14.1772C52.2642 14.1772 53.5639 14.9869 53.8835 16.4996H55.2045Z" fill="#040D27"/>
<path d="M57.7892 23.9996H59.1102V19.7383H61.4966C61.5925 19.7383 61.683 19.7383 61.7736 19.733L64.0747 23.9996H65.6088L63.1426 19.4933C64.5328 19.0192 65.1827 17.8846 65.1827 16.4357C65.1827 14.5075 64.0321 13.0906 61.4753 13.0906H57.7892V23.9996ZM59.1102 18.5451V14.2624H61.4327C63.2012 14.2624 63.883 15.1254 63.883 16.4357C63.883 17.7461 63.2012 18.5451 61.454 18.5451H59.1102Z" fill="#040D27"/>
<path d="M77.0385 18.5451C77.0385 15.0934 75.0143 12.9414 72.2232 12.9414C69.432 12.9414 67.4078 15.0934 67.4078 18.5451C67.4078 21.9968 69.432 24.1488 72.2232 24.1488C75.0143 24.1488 77.0385 21.9968 77.0385 18.5451ZM75.7601 18.5451C75.7601 21.3789 74.2047 22.913 72.2232 22.913C70.2416 22.913 68.6862 21.3789 68.6862 18.5451C68.6862 15.7113 70.2416 14.1772 72.2232 14.1772C74.2047 14.1772 75.7601 15.7113 75.7601 18.5451Z" fill="#040D27"/>
<path d="M85.6756 15.8178H86.954C86.8955 14.1719 85.3773 12.9414 83.268 12.9414C81.1799 12.9414 79.5393 14.1559 79.5393 15.9883C79.5393 17.4585 80.6046 18.332 82.3092 18.8221L83.6515 19.2056C84.8021 19.5252 85.8248 19.93 85.8248 21.0167C85.8248 22.2099 84.6742 22.9982 83.1614 22.9982C81.8617 22.9982 80.7111 22.4229 80.6046 21.1871H79.241C79.3688 22.9769 80.8177 24.1914 83.1614 24.1914C85.6756 24.1914 87.1032 22.8065 87.1032 21.038C87.1032 18.9925 85.1643 18.332 84.035 18.0337L82.9271 17.7354C82.1174 17.5224 80.8177 17.0962 80.8177 15.9244C80.8177 14.8803 81.7765 14.1133 83.2254 14.1133C84.5464 14.1133 85.5478 14.7418 85.6756 15.8178Z" fill="#040D27"/>
<path d="M95.6911 15.8178H96.9695C96.9109 14.1719 95.3928 12.9414 93.2834 12.9414C91.1953 12.9414 89.5547 14.1559 89.5547 15.9883C89.5547 17.4585 90.62 18.332 92.3246 18.8221L93.6669 19.2056C94.8175 19.5252 95.8402 19.93 95.8402 21.0167C95.8402 22.2099 94.6896 22.9982 93.1769 22.9982C91.8771 22.9982 90.7266 22.4229 90.62 21.1871H89.2564C89.3842 22.9769 90.8331 24.1914 93.1769 24.1914C95.6911 24.1914 97.1186 22.8065 97.1186 21.038C97.1186 18.9925 95.1797 18.332 94.0504 18.0337L92.9425 17.7354C92.1328 17.5224 90.8331 17.0962 90.8331 15.9244C90.8331 14.8803 91.7919 14.1133 93.2408 14.1133C94.5618 14.1133 95.5632 14.7418 95.6911 15.8178Z" fill="#040D27"/>
<path d="M104.258 17.9592H99.4849V19.131H104.258V17.9592Z" fill="#040D27"/>
<path d="M115.868 16.4996C115.464 14.2624 113.674 12.9414 111.479 12.9414C108.688 12.9414 106.664 15.0934 106.664 18.5451C106.664 21.9968 108.688 24.1488 111.479 24.1488C113.674 24.1488 115.464 22.8278 115.868 20.5906H114.547C114.228 22.1033 112.928 22.913 111.479 22.913C109.498 22.913 107.942 21.3789 107.942 18.5451C107.942 15.7113 109.498 14.1772 111.479 14.1772C112.928 14.1772 114.228 14.9869 114.547 16.4996H115.868Z" fill="#040D27"/>
<path d="M118.453 23.9996H119.774V19.1204H125.591V23.9996H126.912V13.0906H125.591V17.9485H119.774V13.0906H118.453V23.9996Z" fill="#040D27"/>
<path d="M130.454 23.9996L131.551 20.9102H135.962L137.059 23.9996H138.444L134.438 13.0906H133.075L129.069 23.9996H130.454ZM131.967 19.7383L133.714 14.8164H133.799L135.546 19.7383H131.967Z" fill="#040D27"/>
<path d="M141.914 13.0906H140.593V23.9996H141.914V13.0906Z" fill="#040D27"/>
<path d="M153.664 13.0906H152.364V21.6772H152.257L146.291 13.0906H145.013V23.9996H146.334V15.4343H146.441L152.385 23.9996H153.664V13.0906Z" fill="#040D27"/>
<path d="M161.426 23.9996H165.368C167.946 23.9996 169.011 22.7425 169.011 21.1019C169.011 19.3761 167.818 18.4386 166.816 18.3746V18.2681C167.754 18.0124 168.585 17.3945 168.585 15.9883C168.585 14.3903 167.519 13.0906 165.24 13.0906H161.426V23.9996ZM162.747 22.8278V19.0352H165.431C166.859 19.0352 167.754 19.994 167.754 21.1019C167.754 22.0607 167.093 22.8278 165.368 22.8278H162.747ZM162.747 17.8846V14.2624H165.24C166.689 14.2624 167.328 15.0295 167.328 15.9883C167.328 17.1388 166.39 17.8846 165.197 17.8846H162.747Z" fill="#040D27"/>
<path d="M171.632 23.9996H172.953V19.7383H175.339C175.435 19.7383 175.525 19.7383 175.616 19.733L177.917 23.9996H179.451L176.985 19.4933C178.375 19.0192 179.025 17.8846 179.025 16.4357C179.025 14.5075 177.875 13.0906 175.318 13.0906H171.632V23.9996ZM172.953 18.5451V14.2624H175.275C177.044 14.2624 177.725 15.1254 177.725 16.4357C177.725 17.7461 177.044 18.5451 175.296 18.5451H172.953Z" fill="#040D27"/>
<path d="M182.997 13.0906H181.676V23.9996H182.997V13.0906Z" fill="#040D27"/>
<path d="M189.463 23.9996C192.786 23.9996 194.661 21.9329 194.661 18.5238C194.661 15.136 192.786 13.0906 189.612 13.0906H186.096V23.9996H189.463ZM187.417 22.8278V14.2624H189.526C192.083 14.2624 193.383 15.8817 193.383 18.5238C193.383 21.1871 192.083 22.8278 189.377 22.8278H187.417Z" fill="#040D27"/>
<path d="M204.785 16.4996H206.148C205.744 14.3903 203.975 12.9414 201.674 12.9414C198.877 12.9414 196.901 15.0934 196.901 18.5451C196.901 21.9968 198.861 24.1488 201.759 24.1488C204.359 24.1488 206.212 22.4176 206.212 19.717V18.5451H202.057V19.717H204.934C204.897 21.6772 203.607 22.913 201.759 22.913C199.735 22.913 198.18 21.3789 198.18 18.5451C198.18 15.7113 199.735 14.1772 201.674 14.1772C203.251 14.1772 204.321 15.0668 204.785 16.4996Z" fill="#040D27"/>
<path d="M208.925 23.9996H215.594V22.8278H210.246V19.1204H215.168V17.9485H210.246V14.2624H215.509V13.0906H208.925V23.9996Z" fill="#040D27"/>
</g>
<rect x="227.105" y="8" width="57" height="20" rx="4" fill="#DFE4F7"/>
<path d="M232.83 23.09L233.854 20.2065H237.97L238.994 23.09H240.287L236.548 12.9082H235.276L231.537 23.09H232.83ZM234.242 19.1127L235.872 14.519H235.952L237.583 19.1127H234.242Z" fill="#3E64ED"/>
<path d="M242.573 23.09H248.539V21.9963H243.806V12.9082H242.573V23.09Z" fill="#3E64ED"/>
<path d="M251.148 23.09H252.381V19.3713H254.608C256.98 19.3713 258.049 17.9295 258.049 16.1298C258.049 14.3301 256.98 12.9082 254.588 12.9082H251.148V23.09ZM252.381 18.2775V14.002H254.549C256.204 14.002 256.836 14.9068 256.836 16.1298C256.836 17.3528 256.204 18.2775 254.569 18.2775H252.381Z" fill="#3E64ED"/>
<path d="M260.735 23.09H261.968V18.536H267.397V23.09H268.63V12.9082H267.397V17.4423H261.968V12.9082H260.735V23.09Z" fill="#3E64ED"/>
<path d="M272.216 23.09L273.24 20.2065H277.356L278.38 23.09H279.673L275.934 12.9082H274.662L270.923 23.09H272.216ZM273.628 19.1127L275.258 14.519H275.338L276.968 19.1127H273.628Z" fill="#3E64ED"/>
</svg>
