<svg width="36" height="36" viewBox="0 0 36 36" fill="none" xmlns="http://www.w3.org/2000/svg">
<circle cx="18" cy="18" r="18" fill="#0D0234"/>
<path d="M14.6583 12.5673C15.6601 11.9155 16.7679 11.5848 17.9815 11.5848C19.1824 11.5816 20.2901 11.9123 21.3079 12.577L23.4399 10.445C21.7831 9.17348 19.9626 8.53452 17.9815 8.53773C15.9908 8.54094 14.1735 9.17348 12.5264 10.4418L14.6583 12.5673Z" fill="white"/>
<path d="M12.5582 21.3264C11.8807 20.2989 11.5436 19.188 11.5468 17.9968C11.55 16.7863 11.8839 15.6786 12.5518 14.6704L10.4262 12.5416C9.17718 14.1695 8.55107 15.9868 8.54786 17.9968C8.54465 19.9875 9.17397 21.8048 10.4326 23.4552L12.5582 21.3264Z" fill="white"/>
<path d="M21.3265 23.4423C20.3151 24.123 19.2074 24.4698 18.0033 24.4794C16.78 24.489 15.6594 24.1423 14.6416 23.4487L12.5225 25.5679C14.1696 26.849 15.9998 27.4815 18.0162 27.4655C20.0101 27.4494 21.821 26.8169 23.4489 25.5647L21.3265 23.4423Z" fill="white"/>
<path d="M23.4241 14.6672C24.108 15.6978 24.4419 16.828 24.4291 18.0578C24.4162 19.2426 24.0791 20.3342 23.4209 21.3328L25.5496 23.4615C26.8018 21.8305 27.4376 20.0196 27.4536 18.0321C27.4697 16.0157 26.8372 14.1855 25.5561 12.5384L23.4241 14.6672Z" fill="white"/>
<path d="M25.5138 25.7219C25.4817 25.6898 25.4656 25.6513 25.4656 25.6095C25.4656 25.5678 25.4817 25.5293 25.5138 25.4972C25.5748 25.4362 25.6743 25.4362 25.7385 25.4972C25.7706 25.5293 25.7867 25.5678 25.7867 25.6095C25.7867 25.6513 25.7706 25.6898 25.7385 25.7219C25.7064 25.754 25.6679 25.7669 25.6262 25.7669C25.5844 25.7669 25.5459 25.7508 25.5138 25.7219ZM25.0643 25.2724C25.0322 25.2403 25.0193 25.2018 25.0193 25.16C25.0193 25.1183 25.0354 25.0798 25.0643 25.0477C25.1253 24.9866 25.228 24.9866 25.289 25.0477C25.3211 25.0798 25.334 25.1183 25.334 25.16C25.334 25.2018 25.3179 25.2403 25.289 25.2724C25.2569 25.3045 25.2184 25.3174 25.1766 25.3174C25.1381 25.3174 25.0964 25.3045 25.0643 25.2724ZM24.618 24.8229C24.5858 24.7908 24.5698 24.7523 24.5698 24.7105C24.5698 24.6688 24.5858 24.6302 24.618 24.5981C24.679 24.5371 24.7817 24.5371 24.8427 24.5981C24.8748 24.6302 24.8877 24.6688 24.8877 24.7105C24.8877 24.7523 24.8716 24.7908 24.8427 24.8229C24.8106 24.855 24.7721 24.8711 24.7303 24.8711C24.6886 24.8711 24.6469 24.855 24.618 24.8229ZM24.1684 24.3734C24.1363 24.3413 24.1235 24.3027 24.1235 24.261C24.1235 24.2193 24.1395 24.1807 24.1684 24.1486C24.2294 24.0876 24.3322 24.0876 24.3932 24.1486C24.4253 24.1807 24.4382 24.2193 24.4382 24.261C24.4382 24.3027 24.4221 24.3413 24.3932 24.3734C24.3611 24.4055 24.3226 24.4215 24.2808 24.4215C24.2391 24.4215 24.2006 24.4055 24.1684 24.3734ZM23.7189 23.9271C23.6868 23.895 23.6708 23.8564 23.6708 23.8147C23.6708 23.773 23.6868 23.7344 23.7189 23.7023C23.7799 23.6413 23.8795 23.6413 23.9437 23.7023C23.9758 23.7344 23.9886 23.773 23.9886 23.8147C23.9886 23.8564 23.9726 23.895 23.9437 23.9271C23.9116 23.9592 23.873 23.972 23.8313 23.972C23.7928 23.972 23.751 23.956 23.7189 23.9271ZM23.2726 23.4776C23.2405 23.4455 23.2245 23.4069 23.2245 23.3652C23.2245 23.3234 23.2405 23.2849 23.2726 23.2528C23.3336 23.1918 23.4332 23.1918 23.4974 23.2528C23.5295 23.2849 23.5455 23.3234 23.5455 23.3652C23.5455 23.4069 23.5295 23.4455 23.4974 23.4776C23.4653 23.5097 23.4267 23.5225 23.385 23.5225C23.3433 23.5225 23.3015 23.5097 23.2726 23.4776ZM22.8231 23.0281C22.791 22.9959 22.7782 22.9574 22.7782 22.9157C22.7782 22.8739 22.7942 22.8354 22.8231 22.8033C22.8841 22.7423 22.9869 22.7423 23.0479 22.8033C23.08 22.8354 23.096 22.8739 23.096 22.9157C23.096 22.9574 23.08 22.9959 23.0479 23.0281C23.0158 23.0602 22.9772 23.0762 22.9355 23.0762C22.8938 23.0762 22.8552 23.0602 22.8231 23.0281ZM22.3736 22.5817C22.3415 22.5496 22.3254 22.5111 22.3254 22.4694C22.3254 22.4276 22.3415 22.3891 22.3736 22.357C22.4346 22.296 22.5374 22.296 22.5984 22.357C22.6305 22.3891 22.6433 22.4276 22.6433 22.4694C22.6433 22.5111 22.6273 22.5496 22.5984 22.5817C22.5662 22.6139 22.5277 22.6267 22.486 22.6267C22.4474 22.6267 22.4057 22.6106 22.3736 22.5817ZM21.9241 22.1322C21.892 22.1001 21.8759 22.0616 21.8759 22.0199C21.8759 21.9781 21.892 21.9396 21.9241 21.9075C21.9851 21.8465 22.0878 21.8465 22.1488 21.9075C22.1809 21.9396 22.197 21.9781 22.197 22.0199C22.197 22.0616 22.1809 22.1001 22.1488 22.1322C22.1167 22.1643 22.0782 22.1804 22.0365 22.1804C21.9979 22.1772 21.9562 22.1611 21.9241 22.1322ZM21.4778 21.6827C21.4457 21.6506 21.4296 21.6121 21.4296 21.5703C21.4296 21.5286 21.4457 21.4901 21.4778 21.458C21.5388 21.397 21.6383 21.397 21.7025 21.458C21.7346 21.4901 21.7507 21.5286 21.7507 21.5703C21.7507 21.6121 21.7346 21.6506 21.7025 21.6827C21.6704 21.7148 21.6319 21.7309 21.5902 21.7309C21.5484 21.7309 21.5067 21.7148 21.4778 21.6827ZM21.0283 21.2364C20.9962 21.2043 20.9801 21.1658 20.9801 21.124C20.9801 21.0823 20.9962 21.0438 21.0283 21.0117C21.0893 20.9507 21.1888 20.9507 21.253 21.0117C21.2851 21.0438 21.3012 21.0823 21.3012 21.124C21.3012 21.1658 21.2851 21.2043 21.253 21.2364C21.2209 21.2685 21.1824 21.2814 21.1406 21.2814C21.0989 21.2814 21.0604 21.2653 21.0283 21.2364ZM20.5788 20.7869C20.5466 20.7548 20.5338 20.7163 20.5338 20.6745C20.5338 20.6328 20.5499 20.5943 20.5788 20.5621C20.6398 20.5011 20.7425 20.5011 20.8035 20.5621C20.8356 20.5943 20.8517 20.6328 20.8517 20.6745C20.8517 20.7163 20.8356 20.7548 20.8035 20.7869C20.7714 20.819 20.7329 20.8351 20.6911 20.8351C20.6526 20.8319 20.6109 20.8158 20.5788 20.7869ZM20.1324 20.3374C20.1003 20.3053 20.0875 20.2668 20.0875 20.225C20.0875 20.1833 20.1036 20.1447 20.1324 20.1126C20.1935 20.0516 20.2962 20.0516 20.3572 20.1126C20.3893 20.1447 20.4054 20.1833 20.4054 20.225C20.4054 20.2668 20.3893 20.3053 20.3572 20.3374C20.3251 20.3695 20.2866 20.3856 20.2448 20.3856C20.2031 20.3823 20.1613 20.3695 20.1324 20.3374ZM19.6829 19.8879C19.6508 19.8558 19.6348 19.8172 19.6348 19.7755C19.6348 19.7338 19.6508 19.6952 19.6829 19.6631C19.7439 19.6021 19.8467 19.6021 19.9077 19.6631C19.9398 19.6952 19.9526 19.7338 19.9526 19.7755C19.9526 19.8172 19.9366 19.8558 19.9077 19.8879C19.8756 19.92 19.8371 19.936 19.7953 19.936C19.7536 19.936 19.7118 19.92 19.6829 19.8879ZM19.2334 19.4416C19.2013 19.4095 19.1853 19.3709 19.1853 19.3292C19.1853 19.2875 19.2013 19.2489 19.2334 19.2168C19.2944 19.1558 19.3972 19.1558 19.4582 19.2168C19.4903 19.2489 19.5063 19.2875 19.5063 19.3292C19.5063 19.3709 19.4903 19.4095 19.4582 19.4416C19.4261 19.4737 19.3875 19.4897 19.3458 19.4897C19.3041 19.4865 19.2655 19.4705 19.2334 19.4416ZM18.7871 18.9921C18.755 18.96 18.739 18.9214 18.739 18.8797C18.739 18.8379 18.755 18.7994 18.7871 18.7673C18.8481 18.7063 18.9477 18.7063 19.0119 18.7673C19.044 18.7994 19.06 18.8379 19.06 18.8797C19.06 18.9214 19.044 18.96 19.0119 18.9921C18.9798 19.0242 18.9412 19.037 18.8995 19.037C18.8578 19.037 18.816 19.021 18.7871 18.9921ZM18.3376 18.5425C18.3055 18.5104 18.2927 18.4719 18.2927 18.4302C18.2927 18.3884 18.3087 18.3499 18.3376 18.3178C18.3986 18.2568 18.5014 18.2568 18.5624 18.3178C18.5945 18.3499 18.6105 18.3884 18.6105 18.4302C18.6105 18.4719 18.5945 18.5104 18.5624 18.5425C18.5303 18.5747 18.4917 18.5875 18.45 18.5875C18.4082 18.5907 18.3665 18.5747 18.3376 18.5425ZM17.8881 18.093C17.856 18.0609 17.8431 18.0224 17.8431 17.9807C17.8431 17.9389 17.8592 17.9004 17.8881 17.8683C17.9491 17.8073 18.0518 17.8073 18.1128 17.8683C18.145 17.9004 18.1578 17.9389 18.1578 17.9807C18.1578 18.0224 18.1417 18.0609 18.1128 18.093C18.0807 18.1251 18.0422 18.1412 18.0005 18.1412C17.9587 18.1412 17.9202 18.1251 17.8881 18.093ZM17.4386 17.6467C17.4065 17.6146 17.3904 17.5761 17.3904 17.5344C17.3904 17.4926 17.4065 17.4541 17.4386 17.422C17.4996 17.361 17.6023 17.361 17.6633 17.422C17.6954 17.4541 17.7083 17.4926 17.7083 17.5344C17.7083 17.5761 17.6922 17.6146 17.6633 17.6467C17.6312 17.6788 17.5927 17.6949 17.551 17.6949C17.5124 17.6917 17.4707 17.6756 17.4386 17.6467ZM16.9923 17.1972C16.9602 17.1651 16.9441 17.1266 16.9441 17.0848C16.9441 17.0431 16.9602 17.0046 16.9923 16.9725C17.0533 16.9115 17.156 16.9115 17.217 16.9725C17.2491 17.0046 17.262 17.0431 17.262 17.0848C17.262 17.1266 17.2459 17.1651 17.217 17.1972C17.1849 17.2293 17.1464 17.2422 17.1046 17.2422C17.0629 17.2422 17.0212 17.2293 16.9923 17.1972ZM16.5428 16.7477C16.5106 16.7156 16.4946 16.6771 16.4946 16.6353C16.4946 16.5936 16.5106 16.5551 16.5428 16.5229C16.6038 16.4619 16.7033 16.4619 16.7675 16.5229C16.7996 16.5551 16.8157 16.5936 16.8157 16.6353C16.8157 16.6771 16.7996 16.7156 16.7675 16.7477C16.7354 16.7798 16.6969 16.7959 16.6551 16.7959C16.6134 16.7959 16.5717 16.7798 16.5428 16.7477ZM16.0932 16.3014C16.0611 16.2693 16.0483 16.2308 16.0483 16.189C16.0483 16.1473 16.0643 16.1088 16.0932 16.0766C16.1542 16.0156 16.257 16.0156 16.318 16.0766C16.3501 16.1088 16.3662 16.1473 16.3662 16.189C16.3662 16.2308 16.3501 16.2693 16.318 16.3014C16.2859 16.3335 16.2474 16.3464 16.2056 16.3464C16.1639 16.3464 16.1254 16.3303 16.0932 16.3014ZM15.6437 15.8519C15.6116 15.8198 15.5956 15.7813 15.5956 15.7395C15.5956 15.6978 15.6116 15.6592 15.6437 15.6271C15.7047 15.5661 15.8043 15.5661 15.8685 15.6271C15.9006 15.6592 15.9134 15.6978 15.9134 15.7395C15.9134 15.7813 15.8974 15.8198 15.8685 15.8519C15.8364 15.884 15.7978 15.8968 15.7561 15.8968C15.7176 15.8968 15.6758 15.8808 15.6437 15.8519ZM15.1974 15.4024C15.1653 15.3703 15.1525 15.3317 15.1525 15.29C15.1525 15.2483 15.1685 15.2097 15.1974 15.1776C15.2584 15.1166 15.3612 15.1166 15.4222 15.1776C15.4543 15.2097 15.4703 15.2483 15.4703 15.29C15.4703 15.3317 15.4543 15.3703 15.4222 15.4024C15.3901 15.4345 15.3515 15.4505 15.3098 15.4505C15.2681 15.4505 15.2263 15.4345 15.1974 15.4024ZM14.7479 14.9529C14.7158 14.9208 14.703 14.8822 14.703 14.8405C14.703 14.7987 14.719 14.7602 14.7479 14.7281C14.8089 14.6671 14.9117 14.6671 14.9727 14.7281C15.0048 14.7602 15.0176 14.7987 15.0176 14.8405C15.0176 14.8822 15.0016 14.9208 14.9727 14.9529C14.9406 14.985 14.902 15.001 14.8603 15.001C14.8185 15.001 14.78 14.985 14.7479 14.9529ZM14.2984 14.5066C14.2663 14.4744 14.2502 14.4359 14.2502 14.3942C14.2502 14.3524 14.2663 14.3139 14.2984 14.2818C14.3594 14.2208 14.4621 14.2208 14.5232 14.2818C14.5553 14.3139 14.5681 14.3524 14.5681 14.3942C14.5681 14.4359 14.5521 14.4744 14.5232 14.5066C14.491 14.5387 14.4525 14.5515 14.4108 14.5515C14.3722 14.5515 14.3305 14.5355 14.2984 14.5066ZM13.8521 14.057C13.82 14.0249 13.8071 13.9864 13.8071 13.9447C13.8071 13.9029 13.8232 13.8644 13.8521 13.8323C13.9131 13.7713 14.0158 13.7713 14.0768 13.8323C14.109 13.8644 14.125 13.9029 14.125 13.9447C14.125 13.9864 14.109 14.0249 14.0768 14.057C14.0447 14.0892 14.0062 14.102 13.9645 14.102C13.9227 14.102 13.881 14.0892 13.8521 14.057ZM13.4026 13.6075C13.3705 13.5754 13.3544 13.5369 13.3544 13.4952C13.3544 13.4534 13.3705 13.4149 13.4026 13.3828C13.4636 13.3218 13.5631 13.3218 13.6273 13.3828C13.6594 13.4149 13.6723 13.4534 13.6723 13.4952C13.6723 13.5369 13.6562 13.5754 13.6273 13.6075C13.5952 13.6396 13.5567 13.6557 13.515 13.6557C13.4732 13.6557 13.4347 13.6396 13.4026 13.6075ZM12.9531 13.158C12.921 13.1259 12.9081 13.0874 12.9081 13.0456C12.9081 13.0039 12.9242 12.9654 12.9531 12.9333C13.0141 12.8723 13.1168 12.8723 13.1778 12.9333C13.2099 12.9654 13.226 13.0039 13.226 13.0456C13.226 13.0874 13.2099 13.1259 13.1778 13.158C13.1457 13.1901 13.1072 13.203 13.0654 13.203C13.0237 13.2062 12.9852 13.1901 12.9531 13.158ZM12.5035 12.7117C12.4714 12.6796 12.4554 12.6411 12.4554 12.5993C12.4554 12.5576 12.4714 12.5191 12.5035 12.487C12.5646 12.426 12.6673 12.426 12.7283 12.487C12.7604 12.5191 12.7733 12.5576 12.7733 12.5993C12.7733 12.6411 12.7572 12.6796 12.7283 12.7117C12.6962 12.7438 12.6577 12.7599 12.6159 12.7599C12.5774 12.7567 12.5357 12.7406 12.5035 12.7117ZM12.0572 12.2622C12.0251 12.2301 12.0123 12.1916 12.0123 12.1498C12.0123 12.1081 12.0283 12.0696 12.0572 12.0374C12.1183 11.9764 12.221 11.9764 12.282 12.0374C12.3141 12.0696 12.3302 12.1081 12.3302 12.1498C12.3302 12.1916 12.3141 12.2301 12.282 12.2622C12.2499 12.2943 12.2114 12.3072 12.1696 12.3072C12.1279 12.3104 12.0861 12.2943 12.0572 12.2622ZM11.6077 11.8127C11.5756 11.7806 11.5596 11.742 11.5596 11.7003C11.5596 11.6586 11.5756 11.62 11.6077 11.5879C11.6687 11.5269 11.7683 11.5269 11.8325 11.5879C11.8646 11.62 11.8774 11.6586 11.8774 11.7003C11.8774 11.742 11.8614 11.7806 11.8325 11.8127C11.8004 11.8448 11.7619 11.8608 11.7201 11.8608C11.6784 11.8608 11.6398 11.8448 11.6077 11.8127Z" fill="white"/>
<path d="M10.2627 25.722C10.2306 25.6899 10.2178 25.6514 10.2178 25.6096C10.2178 25.5679 10.2338 25.5293 10.2627 25.4972C10.3237 25.4362 10.4265 25.4362 10.4875 25.4972C10.5196 25.5293 10.5356 25.5679 10.5356 25.6096C10.5356 25.6514 10.5196 25.6899 10.4875 25.722C10.4554 25.7541 10.4168 25.767 10.3751 25.767C10.3334 25.767 10.2916 25.7509 10.2627 25.722ZM10.7122 25.2725C10.6801 25.2404 10.6641 25.2018 10.6641 25.1601C10.6641 25.1184 10.6801 25.0798 10.7122 25.0477C10.7732 24.9867 10.876 24.9867 10.937 25.0477C10.9691 25.0798 10.9819 25.1184 10.9819 25.1601C10.9819 25.2018 10.9659 25.2404 10.937 25.2725C10.9049 25.3046 10.8664 25.3174 10.8246 25.3174C10.7829 25.3174 10.7411 25.3046 10.7122 25.2725ZM11.1585 24.823C11.1264 24.7909 11.1136 24.7523 11.1136 24.7106C11.1136 24.6689 11.1296 24.6303 11.1585 24.5982C11.2195 24.5372 11.3223 24.5372 11.3833 24.5982C11.4154 24.6303 11.4282 24.6689 11.4282 24.7106C11.4282 24.7523 11.4122 24.7909 11.3833 24.823C11.3512 24.8551 11.3127 24.8711 11.2709 24.8711C11.2324 24.8711 11.1906 24.8551 11.1585 24.823ZM11.6081 24.3735C11.5759 24.3413 11.5631 24.3028 11.5631 24.2611C11.5631 24.2193 11.5792 24.1808 11.6081 24.1487C11.6691 24.0877 11.7718 24.0877 11.8328 24.1487C11.8649 24.1808 11.881 24.2193 11.881 24.2611C11.881 24.3028 11.8649 24.3413 11.8328 24.3735C11.8007 24.4056 11.7622 24.4216 11.7204 24.4216C11.6787 24.4216 11.6402 24.4056 11.6081 24.3735ZM12.0576 23.9272C12.0255 23.895 12.0094 23.8565 12.0094 23.8148C12.0094 23.773 12.0255 23.7345 12.0576 23.7024C12.1186 23.6414 12.2181 23.6414 12.2823 23.7024C12.3144 23.7345 12.3305 23.773 12.3305 23.8148C12.3305 23.8565 12.3144 23.895 12.2823 23.9272C12.2502 23.9593 12.2117 23.9721 12.1699 23.9721C12.1282 23.9721 12.0865 23.956 12.0576 23.9272ZM12.5039 23.4776C12.4718 23.4455 12.4589 23.407 12.4589 23.3653C12.4589 23.3235 12.475 23.285 12.5039 23.2529C12.5649 23.1919 12.6676 23.1919 12.7286 23.2529C12.7607 23.285 12.7768 23.3235 12.7768 23.3653C12.7768 23.407 12.7607 23.4455 12.7286 23.4776C12.6965 23.5097 12.658 23.5226 12.6162 23.5226C12.5777 23.5226 12.536 23.5097 12.5039 23.4776ZM12.9534 23.0281C12.9213 22.996 12.9052 22.9575 12.9052 22.9157C12.9052 22.874 12.9213 22.8355 12.9534 22.8034C13.0144 22.7424 13.1171 22.7424 13.1781 22.8034C13.2102 22.8355 13.2231 22.874 13.2231 22.9157C13.2231 22.9575 13.207 22.996 13.1781 23.0281C13.146 23.0602 13.1075 23.0763 13.0658 23.0763C13.024 23.0763 12.9855 23.0602 12.9534 23.0281ZM13.4029 22.5818C13.3708 22.5497 13.3547 22.5112 13.3547 22.4694C13.3547 22.4277 13.3708 22.3892 13.4029 22.3571C13.4639 22.2961 13.5666 22.2961 13.6276 22.3571C13.6598 22.3892 13.6758 22.4277 13.6758 22.4694C13.6758 22.5112 13.6598 22.5497 13.6276 22.5818C13.5955 22.6139 13.557 22.6268 13.5153 22.6268C13.4735 22.6268 13.435 22.6107 13.4029 22.5818ZM13.8524 22.1323C13.8203 22.1002 13.8075 22.0617 13.8075 22.0199C13.8075 21.9782 13.8235 21.9397 13.8524 21.9075C13.9134 21.8465 14.0162 21.8465 14.0772 21.9075C14.1093 21.9397 14.1221 21.9782 14.1221 22.0199C14.1221 22.0617 14.1061 22.1002 14.0772 22.1323C14.0451 22.1644 14.0065 22.1805 13.9648 22.1805C13.923 22.1773 13.8813 22.1612 13.8524 22.1323ZM14.2987 21.6828C14.2666 21.6507 14.2538 21.6122 14.2538 21.5704C14.2538 21.5287 14.2698 21.4901 14.2987 21.458C14.3597 21.397 14.4625 21.397 14.5235 21.458C14.5556 21.4901 14.5716 21.5287 14.5716 21.5704C14.5716 21.6122 14.5556 21.6507 14.5235 21.6828C14.4914 21.7149 14.4528 21.731 14.4111 21.731C14.3726 21.731 14.3308 21.7149 14.2987 21.6828ZM14.7482 21.2365C14.7161 21.2044 14.7001 21.1658 14.7001 21.1241C14.7001 21.0824 14.7161 21.0438 14.7482 21.0117C14.8092 20.9507 14.9088 20.9507 14.973 21.0117C15.0051 21.0438 15.0179 21.0824 15.0179 21.1241C15.0179 21.1658 15.0019 21.2044 14.973 21.2365C14.9409 21.2686 14.9023 21.2814 14.8606 21.2814C14.8189 21.2814 14.7803 21.2654 14.7482 21.2365ZM15.1977 20.787C15.1656 20.7549 15.1528 20.7163 15.1528 20.6746C15.1528 20.6329 15.1688 20.5943 15.1977 20.5622C15.2587 20.5012 15.3615 20.5012 15.4225 20.5622C15.4546 20.5943 15.4674 20.6329 15.4674 20.6746C15.4674 20.7163 15.4514 20.7549 15.4225 20.787C15.3904 20.8191 15.3519 20.8351 15.3101 20.8351C15.2684 20.8319 15.2266 20.8159 15.1977 20.787ZM15.644 20.3375C15.6119 20.3054 15.5959 20.2668 15.5959 20.2251C15.5959 20.1833 15.6119 20.1448 15.644 20.1127C15.705 20.0517 15.8078 20.0517 15.8688 20.1127C15.9009 20.1448 15.9137 20.1833 15.9137 20.2251C15.9137 20.2668 15.8977 20.3054 15.8688 20.3375C15.8367 20.3696 15.7982 20.3856 15.7564 20.3856C15.7179 20.3824 15.6761 20.3696 15.644 20.3375ZM16.0935 19.8879C16.0614 19.8558 16.0486 19.8173 16.0486 19.7756C16.0486 19.7338 16.0646 19.6953 16.0935 19.6632C16.1546 19.6022 16.2573 19.6022 16.3183 19.6632C16.3504 19.6953 16.3665 19.7338 16.3665 19.7756C16.3665 19.8173 16.3504 19.8558 16.3183 19.8879C16.2862 19.9201 16.2477 19.9361 16.2059 19.9361C16.1642 19.9361 16.1257 19.9201 16.0935 19.8879ZM16.5431 19.4416C16.511 19.4095 16.4981 19.371 16.4981 19.3293C16.4981 19.2875 16.5142 19.249 16.5431 19.2169C16.6041 19.1559 16.7068 19.1559 16.7678 19.2169C16.7999 19.249 16.816 19.2875 16.816 19.3293C16.816 19.371 16.7999 19.4095 16.7678 19.4416C16.7357 19.4738 16.6972 19.4898 16.6554 19.4898C16.6137 19.4866 16.5752 19.4705 16.5431 19.4416ZM16.9926 18.9921C16.9605 18.96 16.9444 18.9215 16.9444 18.8797C16.9444 18.838 16.9605 18.7995 16.9926 18.7674C17.0536 18.7064 17.1531 18.7064 17.2173 18.7674C17.2494 18.7995 17.2655 18.838 17.2655 18.8797C17.2655 18.9215 17.2494 18.96 17.2173 18.9921C17.1852 19.0242 17.1467 19.0371 17.105 19.0371C17.0632 19.0371 17.0215 19.021 16.9926 18.9921ZM17.4389 18.5426C17.4068 18.5105 17.3907 18.472 17.3907 18.4302C17.3907 18.3885 17.4068 18.35 17.4389 18.3179C17.4999 18.2569 17.5994 18.2569 17.6636 18.3179C17.6957 18.35 17.7086 18.3885 17.7086 18.4302C17.7086 18.472 17.6925 18.5105 17.6636 18.5426C17.6315 18.5747 17.593 18.5876 17.5513 18.5876C17.5127 18.5908 17.471 18.5747 17.4389 18.5426ZM17.8884 18.0931C17.8563 18.061 17.8434 18.0225 17.8434 17.9807C17.8434 17.939 17.8595 17.9005 17.8884 17.8683C17.9494 17.8073 18.0521 17.8073 18.1131 17.8683C18.1453 17.9005 18.1581 17.939 18.1581 17.9807C18.1581 18.0225 18.142 18.061 18.1131 18.0931C18.081 18.1252 18.0425 18.1413 18.0008 18.1413C17.959 18.1413 17.9205 18.1252 17.8884 18.0931ZM18.3379 17.6468C18.3058 17.6147 18.2929 17.5762 18.2929 17.5344C18.2929 17.4927 18.309 17.4541 18.3379 17.422C18.3989 17.361 18.5017 17.361 18.5627 17.422C18.5948 17.4541 18.6076 17.4927 18.6076 17.5344C18.6076 17.5762 18.5916 17.6147 18.5627 17.6468C18.5305 17.6789 18.492 17.695 18.4503 17.695C18.4085 17.6917 18.37 17.6757 18.3379 17.6468ZM18.7874 17.1973C18.7553 17.1652 18.7425 17.1266 18.7425 17.0849C18.7425 17.0432 18.7585 17.0046 18.7874 16.9725C18.8484 16.9115 18.9512 16.9115 19.0122 16.9725C19.0443 17.0046 19.0603 17.0432 19.0603 17.0849C19.0603 17.1266 19.0443 17.1652 19.0122 17.1973C18.9801 17.2294 18.9415 17.2422 18.8998 17.2422C18.858 17.2422 18.8163 17.2294 18.7874 17.1973ZM19.2337 16.7478C19.2016 16.7157 19.1856 16.6771 19.1856 16.6354C19.1856 16.5936 19.2016 16.5551 19.2337 16.523C19.2947 16.462 19.3943 16.462 19.4585 16.523C19.4906 16.5551 19.5034 16.5936 19.5034 16.6354C19.5034 16.6771 19.4874 16.7157 19.4585 16.7478C19.4264 16.7799 19.3878 16.7927 19.3461 16.7927C19.3044 16.7959 19.2658 16.7799 19.2337 16.7478ZM19.6832 16.3015C19.6511 16.2694 19.6383 16.2308 19.6383 16.1891C19.6383 16.1473 19.6543 16.1088 19.6832 16.0767C19.7442 16.0157 19.847 16.0157 19.908 16.0767C19.9401 16.1088 19.9561 16.1473 19.9561 16.1891C19.9561 16.2308 19.9401 16.2694 19.908 16.3015C19.8759 16.3336 19.8373 16.3464 19.7956 16.3464C19.7539 16.3464 19.7153 16.3304 19.6832 16.3015ZM20.1327 15.8519C20.1006 15.8198 20.0846 15.7813 20.0846 15.7396C20.0846 15.6978 20.1006 15.6593 20.1327 15.6272C20.1937 15.5662 20.2965 15.5662 20.3575 15.6272C20.3896 15.6593 20.4057 15.6978 20.4057 15.7396C20.4057 15.7813 20.3896 15.8198 20.3575 15.8519C20.3254 15.8841 20.2869 15.9001 20.2451 15.9001C20.2034 15.8969 20.1616 15.8808 20.1327 15.8519ZM20.579 15.4024C20.5469 15.3703 20.5309 15.3318 20.5309 15.2901C20.5309 15.2483 20.5469 15.2098 20.579 15.1777C20.64 15.1167 20.7428 15.1167 20.8038 15.1777C20.8359 15.2098 20.8487 15.2483 20.8487 15.2901C20.8487 15.3318 20.8327 15.3703 20.8038 15.4024C20.7717 15.4345 20.7332 15.4506 20.6914 15.4506C20.6529 15.4506 20.6111 15.4345 20.579 15.4024ZM21.0286 14.9529C20.9964 14.9208 20.9836 14.8823 20.9836 14.8405C20.9836 14.7988 20.9997 14.7603 21.0286 14.7282C21.0896 14.6672 21.1923 14.6672 21.2533 14.7282C21.2854 14.7603 21.3015 14.7988 21.3015 14.8405C21.3015 14.8823 21.2854 14.9208 21.2533 14.9529C21.2212 14.985 21.1827 15.0011 21.1409 15.0011C21.0992 15.0011 21.0607 14.985 21.0286 14.9529ZM21.4781 14.5066C21.446 14.4745 21.4299 14.436 21.4299 14.3942C21.4299 14.3525 21.446 14.314 21.4781 14.2819C21.5391 14.2209 21.6386 14.2209 21.7028 14.2819C21.7349 14.314 21.751 14.3525 21.751 14.3942C21.751 14.436 21.7349 14.4745 21.7028 14.5066C21.6707 14.5387 21.6322 14.5516 21.5904 14.5516C21.5487 14.5516 21.507 14.5355 21.4781 14.5066ZM21.9276 14.0571C21.8955 14.025 21.8794 13.9865 21.8794 13.9447C21.8794 13.903 21.8955 13.8645 21.9276 13.8323C21.9886 13.7713 22.0881 13.7713 22.1523 13.8323C22.1844 13.8645 22.1973 13.903 22.1973 13.9447C22.1973 13.9865 22.1812 14.025 22.1523 14.0571C22.1202 14.0892 22.0817 14.1021 22.04 14.1021C21.9982 14.1021 21.9565 14.0892 21.9276 14.0571ZM22.3739 13.6076C22.3418 13.5755 22.3289 13.537 22.3289 13.4952C22.3289 13.4535 22.345 13.4149 22.3739 13.3828C22.4349 13.3218 22.5376 13.3218 22.5986 13.3828C22.6307 13.4149 22.6468 13.4535 22.6468 13.4952C22.6468 13.537 22.6307 13.5755 22.5986 13.6076C22.5665 13.6397 22.528 13.6558 22.4863 13.6558C22.4477 13.6558 22.406 13.6397 22.3739 13.6076ZM22.8234 13.1581C22.7913 13.126 22.7752 13.0874 22.7752 13.0457C22.7752 13.004 22.7913 12.9654 22.8234 12.9333C22.8844 12.8723 22.9871 12.8723 23.0482 12.9333C23.0803 12.9654 23.0931 13.004 23.0931 13.0457C23.0931 13.0874 23.077 13.126 23.0482 13.1581C23.016 13.1902 22.9775 13.203 22.9358 13.203C22.894 13.2062 22.8555 13.1902 22.8234 13.1581ZM23.2729 12.7118C23.2408 12.6797 23.228 12.6411 23.228 12.5994C23.228 12.5577 23.244 12.5191 23.2729 12.487C23.3339 12.426 23.4367 12.426 23.4977 12.487C23.5298 12.5191 23.5426 12.5577 23.5426 12.5994C23.5426 12.6411 23.5266 12.6797 23.4977 12.7118C23.4656 12.7439 23.427 12.7599 23.3853 12.7599C23.3435 12.7567 23.3018 12.7407 23.2729 12.7118ZM23.7192 12.2623C23.6871 12.2301 23.6743 12.1916 23.6743 12.1499C23.6743 12.1081 23.6903 12.0696 23.7192 12.0375C23.7802 11.9765 23.883 11.9765 23.944 12.0375C23.9761 12.0696 23.9921 12.1081 23.9921 12.1499C23.9921 12.1916 23.9761 12.2301 23.944 12.2623C23.9119 12.2944 23.8733 12.3072 23.8316 12.3072C23.7931 12.3104 23.7513 12.2944 23.7192 12.2623ZM24.1687 11.8127C24.1366 11.7806 24.1206 11.7421 24.1206 11.7004C24.1206 11.6586 24.1366 11.6201 24.1687 11.588C24.2297 11.527 24.3293 11.527 24.3935 11.588C24.4256 11.6201 24.4416 11.6586 24.4416 11.7004C24.4416 11.7421 24.4256 11.7806 24.3935 11.8127C24.3614 11.8449 24.3228 11.8609 24.2811 11.8609C24.2394 11.8609 24.2008 11.8449 24.1687 11.8127ZM24.6182 11.3664C24.5861 11.3343 24.5701 11.2958 24.5701 11.2541C24.5701 11.2123 24.5861 11.1738 24.6182 11.1417C24.6792 11.0807 24.782 11.0807 24.843 11.1417C24.8751 11.1738 24.8912 11.2123 24.8912 11.2541C24.8912 11.2958 24.8751 11.3343 24.843 11.3664C24.8109 11.3985 24.7724 11.4114 24.7306 11.4114C24.6889 11.4114 24.6471 11.3953 24.6182 11.3664ZM25.0677 10.9169C25.0356 10.8848 25.0196 10.8463 25.0196 10.8045C25.0196 10.7628 25.0356 10.7243 25.0677 10.6922C25.1288 10.6312 25.2315 10.6312 25.2925 10.6922C25.3246 10.7243 25.3375 10.7628 25.3375 10.8045C25.3375 10.8463 25.3214 10.8848 25.2925 10.9169C25.2604 10.949 25.2219 10.9619 25.1801 10.9619C25.1384 10.9619 25.0966 10.949 25.0677 10.9169ZM25.514 10.4674C25.453 10.4064 25.453 10.3037 25.514 10.2427C25.5751 10.1816 25.6778 10.1816 25.7388 10.2427C25.7998 10.3037 25.7998 10.4032 25.7388 10.4674C25.7067 10.4995 25.6682 10.5124 25.6264 10.5124C25.5879 10.5156 25.5462 10.4995 25.514 10.4674Z" fill="white"/>
<path d="M25.6355 27.0865C26.4529 27.0865 27.1156 26.4238 27.1156 25.6063C27.1156 24.7889 26.4529 24.1262 25.6355 24.1262C24.818 24.1262 24.1553 24.7889 24.1553 25.6063C24.1553 26.4238 24.818 27.0865 25.6355 27.0865Z" fill="white"/>
<path d="M10.3845 27.0898C11.202 27.0898 11.8647 26.4271 11.8647 25.6096C11.8647 24.7921 11.202 24.1294 10.3845 24.1294C9.567 24.1294 8.9043 24.7921 8.9043 25.6096C8.9043 26.4271 9.567 27.0898 10.3845 27.0898Z" fill="white"/>
<path d="M25.6491 11.8224C26.4666 11.8224 27.1293 11.1597 27.1293 10.3422C27.1293 9.5247 26.4666 8.862 25.6491 8.862C24.8316 8.862 24.1689 9.5247 24.1689 10.3422C24.1689 11.1597 24.8316 11.8224 25.6491 11.8224Z" fill="white"/>
<path d="M10.3454 11.7967C11.1629 11.7967 11.8256 11.134 11.8256 10.3165C11.8256 9.49907 11.1629 8.83636 10.3454 8.83636C9.52794 8.83636 8.86523 9.49907 8.86523 10.3165C8.86523 11.134 9.52794 11.7967 10.3454 11.7967Z" fill="white"/>
</svg>
