<svg width="24" height="24" viewBox="0 0 24 24" fill="none" xmlns="http://www.w3.org/2000/svg">
<path d="M6.82431 5.77977L8.91183 5.77977L8.90661 4.30212L4.30237 4.30212L4.30237 8.90636L5.77481 8.90636L5.78003 6.82405L5.77481 5.77977L6.82431 5.77977Z" fill="#040D28" stroke="#040D28" stroke-width="0.5"/>
<path d="M5.77481 18.5151L6.82431 18.5151L8.91183 18.5151L8.90661 19.9928L4.30237 19.9928L4.30237 15.3886L5.77481 15.3886L5.78003 17.4709L5.77481 18.5151Z" fill="#040D28" stroke="#040D28" stroke-width="0.5"/>
<path d="M17.4726 5.77977L15.385 5.77977L15.3903 4.30212L19.9945 4.30212L19.9945 8.90636L18.5221 8.90636L18.5168 6.82405L18.5221 5.77977L17.4726 5.77977Z" fill="#040D28" stroke="#040D28" stroke-width="0.5"/>
<path d="M18.5221 18.5151L17.4726 18.5151L15.385 18.5151L15.3903 19.9928L19.9945 19.9928L19.9945 15.3886L18.5221 15.3886L18.5168 17.4709L18.5221 18.5151Z" fill="#040D28" stroke="#040D28" stroke-width="0.5"/>
</svg>
