<svg width="32" height="32" viewBox="0 0 32 32" fill="none" xmlns="http://www.w3.org/2000/svg">
<circle cx="16" cy="16" r="16" fill="#EDEFF7"/>
<g clip-path="url(#clip0)">
<path d="M18.197 11.6263C18.197 8.5358 16.7016 5.87321 15.5561 5.00153C15.5561 5.00153 15.4766 4.95398 15.4766 5.08077C15.3811 11.0558 12.3425 12.6882 10.6561 14.8595C6.79022 19.8994 10.3857 25.4147 14.0448 26.4291C16.097 26.9996 13.5675 25.4147 13.2493 22.0865C12.8675 18.0451 18.197 14.9704 18.197 11.6263" fill="#282E5B"/>
<path d="M20.1992 13.6692C20.1833 13.6534 20.1515 13.6534 20.1197 13.6692C20.1197 13.6692 20.1197 13.6692 20.1037 13.6851C20.0401 14.43 19.2128 16.0465 18.1787 17.5205C14.6628 22.5287 16.6674 24.9377 17.7969 26.2373C18.4492 26.998 17.7969 26.2373 19.4356 25.4607C19.5628 25.3973 22.6174 23.7807 22.9515 20.1197C23.2856 16.5537 21.0106 14.319 20.1992 13.6692" fill="#059BDC"/>
</g>
<defs>
<clipPath id="clip0">
<rect width="14" height="21.5385" fill="white" transform="translate(9 5)"/>
</clipPath>
</defs>
</svg>
