<svg width="21" height="10" viewBox="0 0 21 10" fill="none" xmlns="http://www.w3.org/2000/svg">
<g opacity="0.6">
<path d="M20.2681 4.2217C20.2182 4.21401 20.1677 4.21046 20.1172 4.21108H3.52264L3.71013 4.12823C3.89339 4.04581 4.06012 3.93365 4.20284 3.79681L6.61406 1.5059C6.93162 1.21788 6.98498 0.754544 6.74051 0.408085C6.45597 0.0388932 5.91031 -0.041268 5.52171 0.229069C5.49031 0.250922 5.46047 0.274742 5.43243 0.300375L1.07217 4.44307C0.731415 4.76646 0.731116 5.29106 1.07149 5.61481L5.43243 9.75816C5.77346 10.0813 6.3256 10.0805 6.6657 9.75653C6.69246 9.73102 6.71745 9.70389 6.74051 9.6753C6.98498 9.32884 6.93162 8.86551 6.61406 8.57749L4.2072 6.28243C4.07925 6.16074 3.93215 6.0587 3.77117 5.98002L3.50956 5.86816H20.0692C20.5147 5.88388 20.9056 5.58822 20.9893 5.17219C21.0664 4.72051 20.7435 4.29497 20.2681 4.2217Z" fill="#0D0234"/>
</g>
</svg>
