<svg width="390" height="38" viewBox="0 0 390 38" fill="none" xmlns="http://www.w3.org/2000/svg">
<path fill-rule="evenodd" clip-rule="evenodd" d="M19.0271 25.8603L10.1203 32.7415L16.5406 37.6882C17.0802 38.1039 17.8545 38.1039 18.3941 37.6882L34.1309 25.5863L26.7454 19.9121L19.0271 25.8603ZM16.3349 26.1897L13.4732 23.9843L13.4691 23.9923L0.000162336 13.7695C0.000150891 13.7719 0.000147076 13.7743 0.000147076 13.7767L0.000146961 15.0982L0.000143146 15.1005L0.000146279 22.8995L0.000142348 24.2234C0.000142308 24.6853 0.211297 25.101 0.563222 25.3782L8.95603 31.8445L16.3349 26.1897ZM0.704565 12.513L8.07525 18.1758L16.5406 11.6518C16.6152 11.5944 16.6943 11.5449 16.7766 11.5033L24.8758 5.29637L18.3941 0.311823C17.8545 -0.103902 17.0802 -0.103902 16.5406 0.311823L0.704565 12.513ZM26.0547 6.20298L18.6686 11.8634L27.9289 19L27.9227 19.0048L34.9275 24.3865C34.9322 24.34 34.9346 24.2932 34.9346 24.2465L34.9346 22.902L34.9346 22.8995L34.9346 13.7536C34.9346 13.3147 34.7234 12.8759 34.3715 12.5988L26.0547 6.20298Z" fill="#040D27"/>
<path opacity="0.9" d="M44.7273 14.0909H42.4634L45.8672 19.5455L42.4208 25H44.7006L47.1296 21.0316H47.2148L49.6438 25H51.9343L48.5199 19.5455L51.881 14.0909H49.6278L47.2148 18.0859H47.1296L44.7273 14.0909ZM53.8824 25H55.8586V21.3139H57.9467C60.4662 21.3139 61.8192 19.8011 61.8192 17.7024C61.8192 15.6197 60.4822 14.0909 57.9733 14.0909H53.8824V25ZM55.8586 19.6893V15.7422H57.6697C59.1506 15.7422 59.8057 16.5412 59.8057 17.7024C59.8057 18.8636 59.1506 19.6893 57.6804 19.6893H55.8586ZM64.5757 25.1172C65.2042 25.1172 65.7422 24.5952 65.7476 23.9453C65.7422 23.3061 65.2042 22.7841 64.5757 22.7841C63.9258 22.7841 63.3985 23.3061 63.4038 23.9453C63.3985 24.5952 63.9258 25.1172 64.5757 25.1172ZM77.2385 14.0909H75.2729V21.527H75.1771L70.0421 14.0909H68.2737V25H70.2499V17.5692H70.3404L75.4807 25H77.2385V14.0909ZM79.8418 25H86.9796V23.3434H81.818V20.3658H86.5694V18.7092H81.818V15.7475H86.937V14.0909H79.8418V25ZM88.9237 15.7475H92.2955V25H94.2558V15.7475H97.6276V14.0909H88.9237V15.7475ZM102.051 25H104.001L106.19 17.3455H106.275L108.459 25H110.409L113.488 14.0909H111.362L109.397 22.1129H109.301L107.197 14.0909H105.263L103.165 22.1076H103.063L101.098 14.0909H98.9725L102.051 25ZM124.47 19.5455C124.47 16.0192 122.318 13.9418 119.458 13.9418C116.592 13.9418 114.445 16.0192 114.445 19.5455C114.445 23.0664 116.592 25.1491 119.458 25.1491C122.318 25.1491 124.47 23.0717 124.47 19.5455ZM122.483 19.5455C122.483 22.0277 121.237 23.3754 119.458 23.3754C117.684 23.3754 116.432 22.0277 116.432 19.5455C116.432 17.0632 117.684 15.7156 119.458 15.7156C121.237 15.7156 122.483 17.0632 122.483 19.5455ZM126.788 25H128.765V21.005H130.778L132.919 25H135.125L132.765 20.6747C134.049 20.158 134.725 19.0607 134.725 17.5799C134.725 15.4972 133.383 14.0909 130.879 14.0909H126.788V25ZM128.765 19.3643V15.7422H130.576C132.051 15.7422 132.712 16.4187 132.712 17.5799C132.712 18.7411 132.051 19.3643 130.586 19.3643H128.765ZM136.994 25H138.97V21.7507L140.18 20.3232L143.434 25H145.81L141.554 18.9862L145.773 14.0909H143.36L139.104 19.1033H138.97V14.0909H136.994V25ZM154.171 10.5753H153.106V28.5156H154.171V10.5753ZM171.314 17.5C170.909 15.2628 169.119 13.9418 166.924 13.9418C164.133 13.9418 162.109 16.0938 162.109 19.5455C162.109 22.9972 164.133 25.1491 166.924 25.1491C169.119 25.1491 170.909 23.8281 171.314 21.5909H169.993C169.673 23.1037 168.373 23.9134 166.924 23.9134C164.943 23.9134 163.388 22.3793 163.388 19.5455C163.388 16.7116 164.943 15.1776 166.924 15.1776C168.373 15.1776 169.673 15.9872 169.993 17.5H171.314ZM173.898 25H175.219V20.7386H177.606C177.702 20.7386 177.792 20.7386 177.883 20.7333L180.184 25H181.718L179.252 20.4936C180.642 20.0195 181.292 18.8849 181.292 17.4361C181.292 15.5078 180.141 14.0909 177.584 14.0909H173.898V25ZM175.219 19.5455V15.2628H177.542C179.31 15.2628 179.992 16.1257 179.992 17.4361C179.992 18.7464 179.31 19.5455 177.563 19.5455H175.219ZM193.148 19.5455C193.148 16.0938 191.123 13.9418 188.332 13.9418C185.541 13.9418 183.517 16.0938 183.517 19.5455C183.517 22.9972 185.541 25.1491 188.332 25.1491C191.123 25.1491 193.148 22.9972 193.148 19.5455ZM191.869 19.5455C191.869 22.3793 190.314 23.9134 188.332 23.9134C186.351 23.9134 184.795 22.3793 184.795 19.5455C184.795 16.7116 186.351 15.1776 188.332 15.1776C190.314 15.1776 191.869 16.7116 191.869 19.5455ZM201.785 16.8182H203.063C203.005 15.1722 201.486 13.9418 199.377 13.9418C197.289 13.9418 195.648 15.1562 195.648 16.9886C195.648 18.4588 196.714 19.3324 198.418 19.8224L199.761 20.206C200.911 20.5256 201.934 20.9304 201.934 22.017C201.934 23.2102 200.783 23.9986 199.271 23.9986C197.971 23.9986 196.82 23.4233 196.714 22.1875H195.35C195.478 23.9773 196.927 25.1918 199.271 25.1918C201.785 25.1918 203.212 23.8068 203.212 22.0384C203.212 19.9929 201.273 19.3324 200.144 19.0341L199.036 18.7358C198.227 18.5227 196.927 18.0966 196.927 16.9247C196.927 15.8807 197.886 15.1136 199.334 15.1136C200.656 15.1136 201.657 15.7422 201.785 16.8182ZM211.8 16.8182H213.079C213.02 15.1722 211.502 13.9418 209.393 13.9418C207.304 13.9418 205.664 15.1562 205.664 16.9886C205.664 18.4588 206.729 19.3324 208.434 19.8224L209.776 20.206C210.927 20.5256 211.949 20.9304 211.949 22.017C211.949 23.2102 210.799 23.9986 209.286 23.9986C207.986 23.9986 206.836 23.4233 206.729 22.1875H205.366C205.493 23.9773 206.942 25.1918 209.286 25.1918C211.8 25.1918 213.228 23.8068 213.228 22.0384C213.228 19.9929 211.289 19.3324 210.16 19.0341L209.052 18.7358C208.242 18.5227 206.942 18.0966 206.942 16.9247C206.942 15.8807 207.901 15.1136 209.35 15.1136C210.671 15.1136 211.672 15.7422 211.8 16.8182ZM220.367 18.9595H215.594V20.1314H220.367V18.9595ZM231.978 17.5C231.573 15.2628 229.783 13.9418 227.588 13.9418C224.797 13.9418 222.773 16.0938 222.773 19.5455C222.773 22.9972 224.797 25.1491 227.588 25.1491C229.783 25.1491 231.573 23.8281 231.978 21.5909H230.657C230.337 23.1037 229.037 23.9134 227.588 23.9134C225.607 23.9134 224.051 22.3793 224.051 19.5455C224.051 16.7116 225.607 15.1776 227.588 15.1776C229.037 15.1776 230.337 15.9872 230.657 17.5H231.978ZM234.562 25H235.883V20.1207H241.7V25H243.021V14.0909H241.7V18.9489H235.883V14.0909H234.562V25ZM246.563 25L247.66 21.9105H252.071L253.168 25H254.553L250.548 14.0909H249.184L245.178 25H246.563ZM248.076 20.7386L249.823 15.8168H249.908L251.656 20.7386H248.076ZM258.023 14.0909H256.702V25H258.023V14.0909ZM269.773 14.0909H268.473V22.6776H268.367L262.401 14.0909H261.122V25H262.443V16.4347H262.55L268.494 25H269.773V14.0909ZM277.535 25H281.477C284.055 25 285.12 23.7429 285.12 22.1023C285.12 20.3764 283.927 19.4389 282.926 19.375V19.2685C283.863 19.0128 284.694 18.3949 284.694 16.9886C284.694 15.3906 283.629 14.0909 281.349 14.0909H277.535V25ZM278.856 23.8281V20.0355H281.541C282.968 20.0355 283.863 20.9943 283.863 22.1023C283.863 23.0611 283.203 23.8281 281.477 23.8281H278.856ZM278.856 18.8849V15.2628H281.349C282.798 15.2628 283.437 16.0298 283.437 16.9886C283.437 18.1392 282.499 18.8849 281.306 18.8849H278.856ZM287.741 25H289.062V20.7386H291.448C291.544 20.7386 291.635 20.7386 291.725 20.7333L294.026 25H295.56L293.094 20.4936C294.484 20.0195 295.134 18.8849 295.134 17.4361C295.134 15.5078 293.984 14.0909 291.427 14.0909H287.741V25ZM289.062 19.5455V15.2628H291.384C293.153 15.2628 293.834 16.1257 293.834 17.4361C293.834 18.7464 293.153 19.5455 291.406 19.5455H289.062ZM299.106 14.0909H297.785V25H299.106V14.0909ZM305.572 25C308.896 25 310.771 22.9332 310.771 19.5241C310.771 16.1364 308.896 14.0909 305.721 14.0909H302.205V25H305.572ZM303.526 23.8281V15.2628H305.636C308.192 15.2628 309.492 16.8821 309.492 19.5241C309.492 22.1875 308.192 23.8281 305.486 23.8281H303.526ZM320.894 17.5H322.257C321.853 15.3906 320.084 13.9418 317.783 13.9418C314.987 13.9418 313.01 16.0938 313.01 19.5455C313.01 22.9972 314.971 25.1491 317.868 25.1491C320.468 25.1491 322.321 23.418 322.321 20.7173V19.5455H318.167V20.7173H321.043C321.006 22.6776 319.717 23.9134 317.868 23.9134C315.844 23.9134 314.289 22.3793 314.289 19.5455C314.289 16.7116 315.844 15.1776 317.783 15.1776C319.36 15.1776 320.43 16.0671 320.894 17.5ZM325.034 25H331.703V23.8281H326.355V20.1207H331.277V18.9489H326.355V15.2628H331.618V14.0909H325.034V25Z" fill="#040D27"/>
</svg>
