<svg width="155" height="26" viewBox="0 0 155 26" fill="none" xmlns="http://www.w3.org/2000/svg">
<g clip-path="url(#clip0)">
<path d="M43.0521 19.3453C42.5415 19.864 41.9223 20.1289 41.1944 20.1289C40.4665 20.1289 39.8582 19.864 39.3367 19.3453C38.8262 18.8267 38.5654 18.1976 38.5654 17.4582C38.5654 16.7188 38.8262 16.1008 39.3367 15.5711C39.8473 15.0525 40.4665 14.7876 41.1944 14.7876C41.9223 14.7876 42.5306 15.0525 43.0521 15.5711C43.5627 16.0898 43.8234 16.7188 43.8234 17.4582C43.8234 18.1976 43.5735 18.8267 43.0521 19.3453Z" fill="#040D27"/>
<path d="M55.7405 3.58663C57.4352 3.58663 58.8149 4.16048 59.9121 5.30819C61.0202 6.45589 61.5851 8.04503 61.5851 10.0756V19.3786C61.5851 19.5662 61.4438 19.7097 61.2592 19.7097H57.9241C57.7394 19.7097 57.5982 19.5662 57.5982 19.3786V10.5943C57.5982 9.54588 57.3157 8.75131 56.7617 8.21056C56.2076 7.64774 55.4689 7.36082 54.5346 7.36082C53.5026 7.36082 51.1344 7.36082 51.1344 7.36082C51.1344 7.36082 51.1344 9.96523 51.1344 11.2564V19.4007C51.1344 19.5883 50.9931 19.7318 50.8085 19.7318H47.4734C47.2887 19.7318 47.1475 19.5883 47.1475 19.4007V3.81837C47.1475 3.63077 47.2887 3.4873 47.4734 3.4873H51.1344C52.8725 3.4873 53.6438 3.58663 55.7405 3.58663Z" fill="#040D27"/>
<path d="M67.2663 13.5408C67.7986 15.5052 69.2543 16.4873 71.6226 16.4873C73.0348 16.4873 74.1321 16.0349 74.9142 15.13C75.012 15.0086 75.1858 14.9755 75.3162 15.0527L77.9777 16.6087C78.1516 16.7081 78.195 16.9508 78.0755 17.1053C76.5546 19.1359 74.3819 20.1512 71.5574 20.1512C69.0045 20.1512 66.9513 19.3676 65.4087 17.8006C63.866 16.2335 63.0947 14.2581 63.0947 11.8634C63.0947 9.50177 63.8552 7.52639 65.3761 5.95932C66.897 4.37019 68.8524 3.57562 71.2424 3.57562C73.5128 3.57562 75.3705 4.37019 76.8371 5.95932C78.3254 7.54846 79.0641 9.5128 79.0641 11.8634C79.0641 12.3048 79.0315 12.7573 78.9555 13.2429C78.9337 13.4084 78.7925 13.5298 78.6296 13.5298H67.2663V13.5408ZM67.212 10.3957H75.0881C74.8599 9.3252 74.3928 8.53063 73.6649 8.01196C72.9697 7.49328 72.1658 7.22842 71.2532 7.22842C70.1777 7.22842 69.2978 7.51535 68.5917 8.07817C67.8964 8.61892 67.4293 9.39141 67.212 10.3957Z" fill="#040D27"/>
<path d="M87.745 7.9236H84.5837V14.4567C84.5837 14.9975 84.7141 15.3947 84.9857 15.6486C85.2572 15.9024 85.6483 16.0458 86.1589 16.09C86.5934 16.1121 87.1149 16.101 87.7233 16.0789C87.9079 16.0679 88.0709 16.2224 88.0709 16.41V19.4338C88.0709 19.5993 87.9405 19.7538 87.7667 19.7649C85.1812 20.0297 83.3453 19.7538 82.2589 18.9482C81.1508 18.1095 80.5859 16.6197 80.5859 14.4567V7.9236V4.02801V0.33107C80.5859 0.143464 80.7272 0 80.9118 0H84.2469C84.4316 0 84.5728 0.143464 84.5728 0.33107V4.02801H87.7341C87.9188 4.02801 88.06 4.17148 88.06 4.35908V7.59253C88.0709 7.7691 87.9188 7.9236 87.745 7.9236Z" fill="#040D27"/>
<path d="M107.679 4.02808H111.221C111.438 4.02808 111.601 4.24879 111.536 4.45847L106.832 19.489C106.789 19.6215 106.658 19.7208 106.517 19.7208H103.193C103.052 19.7208 102.921 19.6215 102.878 19.489L100.108 10.208L97.3374 19.489C97.2939 19.6325 97.1744 19.7208 97.0223 19.7208H93.6981C93.5568 19.7208 93.4265 19.6325 93.383 19.489L88.69 4.45847C88.6248 4.24879 88.7769 4.02808 89.005 4.02808H92.5465C92.6878 4.02808 92.8181 4.1274 92.8616 4.27086L95.4254 13.6622L98.163 4.25982C98.2064 4.11636 98.3259 4.02808 98.478 4.02808H101.759C101.9 4.02808 102.03 4.1274 102.074 4.25982L104.822 13.6953L107.386 4.27086C107.408 4.1274 107.538 4.02808 107.679 4.02808Z" fill="#040D27"/>
<path d="M125.29 17.7785C123.704 19.3676 121.77 20.1622 119.478 20.1622C117.196 20.1622 115.252 19.3676 113.666 17.7785C112.102 16.1673 111.319 14.2029 111.319 11.8744C111.319 9.5569 112.102 7.59255 113.666 6.00342C115.252 4.39221 117.186 3.58661 119.478 3.58661C121.77 3.58661 123.704 4.39221 125.29 6.00342C126.876 7.59255 127.669 9.54586 127.669 11.8744C127.669 14.2029 126.876 16.1673 125.29 17.7785ZM116.48 14.9864C117.283 15.8031 118.283 16.2114 119.478 16.2114C120.673 16.2114 121.672 15.8031 122.476 14.9864C123.28 14.1698 123.682 13.1325 123.682 11.8744C123.682 10.6163 123.28 9.57897 122.476 8.76233C121.672 7.94569 120.673 7.53737 119.478 7.53737C118.283 7.53737 117.283 7.94569 116.48 8.76233C115.697 9.57897 115.306 10.6163 115.306 11.8744C115.306 13.1325 115.697 14.1698 116.48 14.9864Z" fill="#040D27"/>
<path d="M137.554 3.91768V7.30562C137.554 7.49323 137.413 7.63669 137.228 7.63669H134.295C133.502 7.63669 132.861 8.2878 132.861 9.0934V12.2165V19.3897C132.861 19.5773 132.72 19.7207 132.535 19.7207H129.2C129.015 19.7207 128.874 19.5773 128.874 19.3897V7.3608C128.874 5.27506 130.536 3.58661 132.589 3.58661H137.228C137.402 3.58661 137.554 3.74111 137.554 3.91768Z" fill="#040D27"/>
<path d="M143.116 12.6027V19.4007C143.116 19.5883 142.975 19.7317 142.79 19.7317H139.455C139.27 19.7317 139.129 19.5883 139.129 19.4007V0.33107C139.129 0.143464 139.27 0 139.455 0H142.79C142.975 0 143.116 0.143464 143.116 0.33107V12.6027Z" fill="#040D27"/>
<path d="M148.971 11.4658C148.776 11.7086 148.776 12.0507 148.971 12.2935L154.479 19.1687C154.653 19.3894 154.501 19.7095 154.208 19.7095H149.949C149.743 19.7095 149.547 19.6101 149.417 19.4556L143.681 12.2935C143.485 12.0507 143.485 11.7086 143.681 11.4658L149.417 4.30369C149.547 4.13815 149.743 4.04987 149.949 4.04987H154.208C154.49 4.04987 154.653 4.3699 154.479 4.59061L148.971 11.4658Z" fill="#040D27"/>
<path d="M35.209 10.0867C35.133 8.05609 34.655 6.46696 33.536 5.31925C32.4388 4.17154 31.0483 3.71908 29.3644 3.59769C28.5823 3.54251 26.931 3.46526 25.258 3.45422C23.1831 3.44319 21.1081 3.48733 21.1081 3.48733C20.9235 3.48733 20.7822 3.6308 20.7822 3.8184V6.33453V17.1826V19.6987V26.0001H24.7691V22.9322V16.1673C24.7691 16.1673 24.7691 15.5493 24.7691 14.7658C24.7691 13.9381 24.7691 12.9339 24.7691 12.2717V11.2454V7.34981C24.7691 7.34981 27.1374 7.34981 28.1694 7.34981C29.0928 7.34981 29.8424 7.63674 30.3965 8.19956C30.9505 8.7403 31.233 9.53487 31.233 10.5833V10.7488V12.9339C31.233 13.9822 30.9505 14.7768 30.3965 15.3176C29.8424 15.8804 29.1037 16.1673 28.1694 16.1673C27.4742 16.1673 25.3992 16.1673 25.3992 16.1673V19.9305C26.6811 19.9415 27.5502 20.0077 29.3753 19.9305C31.07 19.8642 32.4605 19.3566 33.5469 18.2089C34.5572 17.1605 35.0787 15.7369 35.1764 13.9712C35.1873 13.9381 35.2199 13.916 35.2199 13.8719C35.209 13.8719 35.2959 12.2607 35.209 10.0867Z" fill="#040D27"/>
<path fill-rule="evenodd" clip-rule="evenodd" d="M15.9695 3.48724H17.4361L18.5876 4.97706L17.8489 5.92612L15.9695 3.48724ZM18.9025 4.56853L19.2936 4.06089C19.4674 3.82914 19.3153 3.49807 19.022 3.49807H18.0769L18.9025 4.56853ZM11.7547 6.90808L11.0377 7.83508L13.7101 11.3113C13.7156 11.3058 13.7183 11.3003 13.721 11.2948C13.7237 11.2892 13.7264 11.2837 13.7319 11.2782L14.4271 10.3843L11.7547 6.90808ZM16.3713 19.9189H17.7184L9.67933 9.61161L9.00579 10.4724L16.3713 19.9189ZM18.3594 19.9196L9.99445 9.19292L10.7223 8.25489L19.3154 19.4009C19.4349 19.6326 19.2936 19.9196 19.022 19.9196H18.3594ZM13.1128 5.14229L13.8298 4.2153L16.5022 7.6805L15.7852 8.60749L13.1128 5.14229ZM12.7973 5.55078L12.0695 6.49985L14.7419 9.96504L15.4697 9.01597L12.7973 5.55078ZM8.69095 10.8923L8.39763 11.2785C8.20209 11.5323 8.20209 11.8965 8.39763 12.1503L14.1879 19.6656C14.3183 19.8311 14.5138 19.9304 14.7311 19.9304H15.7414L8.69095 10.8923ZM14.7308 3.48724H15.3391L17.5335 6.33444L16.8274 7.26144L14.155 3.79624L14.1876 3.7521C14.3179 3.58656 14.5243 3.48724 14.7308 3.48724Z" fill="url(#paint0_linear)"/>
<path d="M5.63758 11.2679C5.83313 11.5217 5.83313 11.8859 5.63758 12.1397L0.0754519 19.357C-0.0983647 19.5887 0.0537248 19.9198 0.34704 19.9198H4.649C4.85541 19.9198 5.06182 19.8205 5.19218 19.655L10.9716 12.1397C11.1671 11.8859 11.1671 11.5217 10.9716 11.2679L5.18131 3.75259C5.05095 3.58705 4.85541 3.48773 4.63814 3.48773H0.34704C0.0645884 3.48773 -0.0983647 3.82984 0.0754519 4.05055L5.63758 11.2679Z" fill="#040D27"/>
</g>
<defs>
<linearGradient id="paint0_linear" x1="48.4464" y1="20.4287" x2="9.99115" y2="11.4156" gradientUnits="userSpaceOnUse">
<stop offset="0.848958" stop-color="#040D27"/>
<stop offset="1" stop-color="#040D27" stop-opacity="0.4"/>
</linearGradient>
<clipPath id="clip0">
<rect width="154.556" height="26" fill="white"/>
</clipPath>
</defs>
</svg>
