<svg width="21" height="10" viewBox="0 0 21 10" fill="none" xmlns="http://www.w3.org/2000/svg">
<path d="M1.59404 5.77855C1.64391 5.78624 1.69439 5.78978 1.74488 5.78916H18.2947L18.1073 5.87202C17.924 5.95443 17.7573 6.06659 17.6145 6.20343L15.2033 8.49434C14.8858 8.78236 14.8324 9.2457 15.0769 9.59216C15.3614 9.96135 15.9071 10.0415 16.2957 9.77118C16.3271 9.74932 16.3569 9.7255 16.385 9.69987L20.7452 5.55717C21.086 5.23378 21.0863 4.70919 20.7459 4.38543L16.385 0.242088C16.0439 -0.0810165 15.4918 -0.0802917 15.1517 0.243719C15.1249 0.269222 15.0999 0.296357 15.0769 0.324942C14.8324 0.671401 14.8858 1.13474 15.2033 1.42276L17.6102 3.71781C17.7381 3.8395 17.8852 3.94154 18.0462 4.02023L18.3078 4.13208H1.79287C1.34739 4.11637 0.956551 4.41202 0.87286 4.82806C0.795765 5.27974 1.11864 5.70527 1.59404 5.77855Z" fill="#0D0234"/>
</svg>
