<svg width="26" height="26" viewBox="0 0 26 26" fill="none" xmlns="http://www.w3.org/2000/svg">
<path d="M1 19C1 22.3137 3.68629 25 7 25H19C22.3137 25 25 22.3137 25 19V7C25 3.68629 22.3137 1 19 1H7C3.68629 1 1 3.68629 1 7V19Z" fill="white"/>
<path fill-rule="evenodd" clip-rule="evenodd" d="M7 26H19C22.866 26 26 22.866 26 19V7C26 3.13401 22.866 0 19 0H7C3.13401 0 0 3.13401 0 7V19C0 22.866 3.13401 26 7 26ZM7 25C3.68629 25 1 22.3137 1 19V7C1 3.68629 3.68629 1 7 1H19C22.3137 1 25 3.68629 25 7V19C25 22.3137 22.3137 25 19 25H7Z" fill="#D6DBEB"/>
<path d="M12.7448 15.1533C12.8257 15.2341 12.8711 15.3438 12.8711 15.4582C12.8711 15.5726 12.8257 15.6823 12.7448 15.7632L11.0198 17.4882C11.0178 17.4902 11.0155 17.4919 11.0134 17.4939C11.0054 17.5018 10.997 17.5093 10.9883 17.5166C10.9828 17.5211 10.977 17.5252 10.9712 17.5294C10.9657 17.5335 10.9602 17.5379 10.9545 17.5417C10.9479 17.546 10.9412 17.5499 10.9345 17.5539C10.9291 17.5571 10.9238 17.5605 10.9183 17.5635C10.9116 17.567 10.9047 17.57 10.8979 17.5733C10.8919 17.5761 10.8861 17.579 10.88 17.5816C10.8734 17.5843 10.8667 17.5865 10.86 17.5888C10.8534 17.5912 10.8469 17.5938 10.8401 17.5959C10.8335 17.5978 10.8267 17.5993 10.82 17.601C10.8131 17.6028 10.8062 17.6047 10.7992 17.6061C10.7915 17.6076 10.7837 17.6085 10.776 17.6096C10.7698 17.6105 10.7637 17.6117 10.7574 17.6123C10.7291 17.6151 10.7006 17.6151 10.6723 17.6123C10.666 17.6117 10.6599 17.6105 10.6537 17.6096C10.646 17.6085 10.6382 17.6076 10.6305 17.6061C10.6235 17.6047 10.6166 17.6028 10.6097 17.601C10.603 17.5994 10.5963 17.5978 10.5896 17.5958C10.5828 17.5938 10.5763 17.5912 10.5697 17.5888C10.563 17.5865 10.5563 17.5843 10.5497 17.5816C10.5436 17.579 10.5378 17.5761 10.5318 17.5733C10.525 17.57 10.5182 17.567 10.5115 17.5635C10.5059 17.5605 10.5007 17.5571 10.4953 17.5539C10.4886 17.5499 10.4818 17.5461 10.4752 17.5417C10.4695 17.5379 10.464 17.5335 10.4585 17.5293C10.4528 17.5251 10.4469 17.5211 10.4414 17.5166C10.4327 17.5094 10.4243 17.5018 10.4163 17.4939C10.4142 17.4919 10.412 17.4901 10.4099 17.4882L8.68491 15.7632C8.64486 15.7231 8.61309 15.6756 8.59142 15.6232C8.56975 15.5709 8.55859 15.5148 8.55859 15.4582C8.55859 15.4016 8.56975 15.3455 8.59142 15.2932C8.61309 15.2408 8.64486 15.1933 8.68491 15.1533C8.76578 15.0724 8.87548 15.0269 8.98985 15.0269C9.04649 15.0269 9.10257 15.0381 9.15489 15.0598C9.20721 15.0814 9.25476 15.1132 9.2948 15.1533L10.2836 16.1421V8.5582C10.2836 8.44383 10.329 8.33414 10.4099 8.25326C10.4908 8.17239 10.6005 8.12695 10.7149 8.12695C10.8292 8.12695 10.9389 8.17239 11.0198 8.25326C11.1007 8.33414 11.1461 8.44383 11.1461 8.5582V16.1421L12.1349 15.1533C12.2158 15.0724 12.3255 15.027 12.4399 15.027C12.5542 15.027 12.6639 15.0724 12.7448 15.1533ZM17.9198 9.97826L16.1948 8.25326C16.1929 8.25137 16.1909 8.24981 16.1889 8.24797C16.1807 8.23992 16.1722 8.23218 16.1633 8.22479C16.1578 8.22026 16.152 8.21633 16.1463 8.21213C16.1407 8.20792 16.1352 8.20355 16.1294 8.19973C16.1229 8.19536 16.1163 8.19164 16.1096 8.18765C16.1042 8.18442 16.0988 8.18097 16.0932 8.17795C16.0866 8.17439 16.0798 8.17143 16.0731 8.16825C16.067 8.16539 16.0611 8.16237 16.0549 8.15984C16.0484 8.15714 16.0418 8.15498 16.0352 8.15267C16.0286 8.15024 16.0219 8.14765 16.0151 8.14555C16.0085 8.14361 16.0019 8.1421 15.9952 8.14043C15.9882 8.1387 15.9813 8.13671 15.9742 8.13531C15.9666 8.1338 15.9589 8.13288 15.9512 8.1318C15.9449 8.13094 15.9388 8.1297 15.9324 8.12911C15.9041 8.12632 15.8756 8.12632 15.8473 8.12911C15.841 8.1297 15.8348 8.13094 15.8285 8.1318C15.8209 8.13288 15.8131 8.1338 15.8056 8.13531C15.7984 8.13671 15.7915 8.1387 15.7845 8.14043C15.7778 8.1421 15.7712 8.14361 15.7646 8.14555C15.7578 8.14765 15.7511 8.15024 15.7445 8.15267C15.7379 8.15498 15.7313 8.15714 15.7248 8.15984C15.7186 8.16237 15.7127 8.16539 15.7066 8.16825C15.6999 8.17143 15.6931 8.17439 15.6865 8.17795C15.6809 8.18097 15.6756 8.18442 15.6701 8.18765C15.6634 8.19159 15.6568 8.19536 15.6503 8.19967C15.6445 8.20355 15.639 8.20792 15.6334 8.21207C15.6277 8.21633 15.6219 8.22026 15.6164 8.22479C15.6076 8.23219 15.599 8.23992 15.5908 8.24797C15.5888 8.24981 15.5868 8.25137 15.5849 8.25326L13.8599 9.97826C13.779 10.0591 13.7335 10.1688 13.7335 10.2832C13.7336 10.3976 13.779 10.5073 13.8599 10.5882C13.9408 10.6691 14.0505 10.7145 14.1648 10.7145C14.2792 10.7145 14.3889 10.669 14.4698 10.5882L15.4586 9.59935V17.1832C15.4586 17.2976 15.504 17.4073 15.5849 17.4881C15.6658 17.569 15.7755 17.6145 15.8899 17.6145C16.0042 17.6145 16.1139 17.569 16.1948 17.4881C16.2757 17.4073 16.3211 17.2976 16.3211 17.1832V9.59935L17.3099 10.5882C17.3908 10.669 17.5005 10.7145 17.6149 10.7145C17.7292 10.7145 17.8389 10.669 17.9198 10.5882C18.0007 10.5073 18.0461 10.3976 18.0461 10.2832C18.0461 10.1688 18.0007 10.0591 17.9198 9.97826Z" fill="#3E64ED"/>
</svg>
