<svg width="77" height="31" viewBox="0 0 77 31" fill="none" xmlns="http://www.w3.org/2000/svg">
<circle cx="12" cy="16" r="12" fill="url(#paint0_linear)"/>
<path fill-rule="evenodd" clip-rule="evenodd" d="M15.6487 11.1489H16.4763L17.1262 11.9896L16.7093 12.5252L15.6487 11.1489ZM17.3036 11.7591L17.5243 11.4726C17.6224 11.3418 17.5366 11.155 17.3711 11.155H16.8377L17.3036 11.7591ZM13.2697 13.0794L12.8651 13.6025L14.3732 15.5641C14.3762 15.561 14.3778 15.5579 14.3793 15.5548C14.3808 15.5517 14.3823 15.5486 14.3854 15.5455L14.7778 15.041L13.2697 13.0794ZM15.8748 20.4215H16.635L12.0985 14.6051L11.7184 15.0908L15.8748 20.4215ZM16.9968 20.4217L12.2764 14.3686L12.6872 13.8393L17.5363 20.129C17.6037 20.2598 17.524 20.4217 17.3708 20.4217H16.9968ZM14.037 12.0829L14.4416 11.5598L15.9496 13.5152L15.545 14.0383L14.037 12.0829ZM13.8591 12.3136L13.4483 12.8492L14.9564 14.8046L15.3671 14.269L13.8591 12.3136ZM11.5412 15.3276L11.3757 15.5455C11.2654 15.6888 11.2654 15.8943 11.3757 16.0375L14.6432 20.2784C14.7168 20.3718 14.8271 20.4279 14.9497 20.4279H15.5199L11.5412 15.3276ZM14.9496 11.1489H15.2929L16.5312 12.7556L16.1328 13.2787L14.6247 11.3233L14.6431 11.2984C14.7167 11.205 14.8331 11.1489 14.9496 11.1489Z" fill="url(#paint1_linear)"/>
<path d="M9.81889 15.5398C9.92924 15.683 9.92924 15.8885 9.81889 16.0318L6.68015 20.1045C6.58206 20.2353 6.66789 20.4221 6.83341 20.4221H9.26103C9.37751 20.4221 9.49399 20.3661 9.56755 20.2727L12.8289 16.0318C12.9393 15.8885 12.9393 15.683 12.8289 15.5398L9.56142 11.2989C9.48785 11.2055 9.37751 11.1494 9.2549 11.1494H6.83341C6.67402 11.1494 6.58206 11.3425 6.68015 11.467L9.81889 15.5398Z" fill="white"/>
<path d="M32.8945 10.8182H31.1147L34.3413 15.9091L31.0948 21H32.8846L35.3306 17.0724H35.4102L37.8562 21H39.646L36.4542 15.9091L39.6261 10.8182H37.8462L35.4102 14.8004H35.3306L32.8945 10.8182ZM41.1499 21H42.6861V17.4205H44.7741C47.1357 17.4205 48.304 15.9936 48.304 14.1143C48.304 12.2401 47.1456 10.8182 44.7791 10.8182H41.1499V21ZM42.6861 16.1179V12.1357H44.6151C46.1364 12.1357 46.7578 12.9609 46.7578 14.1143C46.7578 15.2678 46.1364 16.1179 44.6349 16.1179H42.6861ZM58.323 10.8182H56.8017V18.2955H56.7072L51.5268 10.8182H50.1049V21H51.6412V13.5327H51.7356L56.911 21H58.323V10.8182ZM60.5639 21H67.0071V19.6776H62.1001V16.5604H66.6143V15.2429H62.1001V12.1406H66.9474V10.8182H60.5639V21ZM68.4973 12.1406H71.6692V21H73.2005V12.1406H76.3773V10.8182H68.4973V12.1406Z" fill="#040D27"/>
<defs>
<linearGradient id="paint0_linear" x1="7.78378" y1="7.24324" x2="41.1892" y2="-10.9189" gradientUnits="userSpaceOnUse">
<stop stop-color="#2853EB"/>
</linearGradient>
<linearGradient id="paint1_linear" x1="15.2239" y1="15.1631" x2="12.3133" y2="15.4897" gradientUnits="userSpaceOnUse">
<stop stop-color="white"/>
<stop offset="1" stop-color="white" stop-opacity="0.4"/>
</linearGradient>
</defs>
</svg>
