<svg width="18" height="18" viewBox="0 0 18 18" fill="none" xmlns="http://www.w3.org/2000/svg">
<circle cx="9" cy="9" r="9" fill="#F3BA2F"/>
<g clip-path="url(#clip0_1129:2623)">
<path d="M6.81644 8.10211L9.0014 5.91805L11.1872 8.10389L12.4579 6.83237L9.0014 3.375L5.54492 6.83148L6.81644 8.10211Z" fill="white"/>
<path d="M3.375 9.00053L4.64563 7.729L5.91716 9.00053L4.64563 10.2712L3.375 9.00053Z" fill="white"/>
<path d="M6.81644 9.89786L9.0014 12.0828L11.1872 9.89697L12.4588 11.1667L9.00229 14.6241L5.54492 11.1694L6.81644 9.89786Z" fill="white"/>
<path d="M12.083 9.00053L13.3536 7.729L14.6252 8.99964L13.3536 10.272L12.083 9.00053Z" fill="white"/>
<path d="M10.291 8.99965L9.0017 7.70947L8.04828 8.66289L7.9381 8.77218L7.7124 8.99788L9.0017 10.2863L10.291 9.00054V8.99965Z" fill="white"/>
</g>
<defs>
<clipPath id="clip0_1129:2623">
<rect width="11.25" height="11.25" fill="white" transform="translate(3.375 3.375)"/>
</clipPath>
</defs>
</svg>
