<svg width="46" height="46" viewBox="0 0 46 46" fill="none" xmlns="http://www.w3.org/2000/svg">
<circle cx="23" cy="23" r="23" fill="#627EEA"/>
<g clip-path="url(#clip0_1342:6538)">
<path opacity="0.85" d="M13.4551 23.2658L23.2955 28.9909V7.1875L13.4551 23.2658Z" fill="white"/>
<path opacity="0.8" d="M23.2949 7.1875V28.9909L33.1315 23.2658L23.2949 7.1875Z" fill="#C0CBF6"/>
<path d="M23.2955 18.8594L13.4551 23.2665L23.2955 28.9916L33.132 23.2665L23.2955 18.8594Z" fill="#C0CBF6"/>
<path d="M23.2955 18.8594L13.4551 23.2665L23.2955 28.9916L33.132 23.2665L23.2955 18.8594Z" fill="#C0CBF6"/>
<path d="M23.2949 18.8594L23.2956 23.2665L23.2949 28.9916L33.1315 23.2665L23.2949 18.8594Z" fill="#C0CBF6"/>
<path d="M23.2949 18.8594L23.2956 23.2665L23.2949 28.9916L33.1315 23.2665L23.2949 18.8594Z" fill="#8197EE"/>
<path d="M13.4551 25.1016L23.2955 38.7534V30.8267L13.4551 25.1016Z" fill="#E7ECFC"/>
<path d="M23.2949 30.8267V38.7534L33.1392 25.1016L23.2949 30.8267Z" fill="#C0CBF6"/>
</g>
<defs>
<clipPath id="clip0_1342:6538">
<rect width="26.565" height="31.625" fill="white" transform="translate(10.0625 7.1875)"/>
</clipPath>
</defs>
</svg>
