<svg width="46" height="46" viewBox="0 0 46 46" fill="none" xmlns="http://www.w3.org/2000/svg">
<circle cx="23" cy="23" r="23" fill="#F3BA2F"/>
<g clip-path="url(#clip0_1342:6553)">
<path d="M17.4194 20.7054L23.0031 15.1239L28.5892 20.7099L31.8364 17.4605L23.0031 8.625L14.1699 17.4582L17.4194 20.7054Z" fill="white"/>
<path d="M8.625 23.0014L11.8722 19.752L15.1216 23.0014L11.8722 26.2486L8.625 23.0014Z" fill="white"/>
<path d="M17.4194 25.2933L23.0031 30.8771L28.5892 25.291L31.8386 28.5359L23.0054 37.3714L14.1699 28.5427L17.4194 25.2933Z" fill="white"/>
<path d="M30.8789 23.0014L34.1261 19.752L37.3755 22.9991L34.1261 26.2509L30.8789 23.0014Z" fill="white"/>
<path d="M26.2987 22.9983L23.0038 19.7012L20.5673 22.1377L20.2858 22.417L19.709 22.9938L23.0038 26.2864L26.2987 23.0006V22.9983Z" fill="white"/>
</g>
<defs>
<clipPath id="clip0_1342:6553">
<rect width="28.75" height="28.75" fill="white" transform="translate(8.625 8.625)"/>
</clipPath>
</defs>
</svg>
