<svg width="46" height="46" viewBox="0 0 46 46" fill="none" xmlns="http://www.w3.org/2000/svg">
<circle cx="23" cy="23" r="23" fill="#1F6AF8"/>
<g clip-path="url(#clip0_1342:6624)">
<path d="M21.7361 8.90363C22.1262 8.72014 22.5521 8.625 22.9833 8.625C23.4144 8.625 23.8403 8.72014 24.2305 8.90363L31.4585 12.7052C31.6408 12.7866 31.8002 12.9116 31.9228 13.0691C32.0454 13.2267 32.1273 13.4118 32.1615 13.6084H32.1689V32.6892C32.1511 32.9032 32.0756 33.1085 31.9505 33.2831C31.8253 33.4577 31.6552 33.5952 31.4581 33.6809L24.2305 37.4795C23.8403 37.663 23.4144 37.7582 22.9833 37.7582C22.5521 37.7582 22.1262 37.663 21.7361 37.4795L14.508 33.678C14.3131 33.5911 14.1456 33.453 14.0232 33.2783C13.9008 33.1036 13.8283 32.899 13.8133 32.6863C13.8133 32.6537 13.8133 32.626 13.8133 32.6037V13.6027C13.8435 13.4062 13.9231 13.2207 14.0446 13.0634C14.1661 12.906 14.3255 12.7821 14.508 12.7031L21.7361 8.90363ZM31.0305 24.2515L24.2305 27.8204C23.8404 28.0042 23.4145 28.0995 22.9833 28.0995C22.552 28.0995 22.1261 28.0042 21.7361 27.8204L14.9505 24.2593V32.6516L21.7361 36.1974C22.0732 36.4009 22.4438 36.543 22.8307 36.6172L22.9857 36.6267C23.4101 36.5851 23.8198 36.4493 24.185 36.2292L31.0351 32.6194V24.2515H31.0305ZM12.638 32.2743C12.6044 32.8039 12.6916 33.3342 12.8932 33.8251C13.0655 34.1391 13.3199 34.4004 13.6293 34.5813L13.6512 34.5958C13.7364 34.6524 13.8298 34.7123 13.9427 34.7821L14.0767 34.8648L14.4869 35.1127L13.8985 36.0784L13.4394 35.8015L13.3609 35.7544C13.2273 35.6718 13.1173 35.6028 13.0148 35.5358C11.9177 34.7978 11.5079 33.9958 11.5 32.3252V32.2743H12.6372H12.638ZM22.4126 19.1343C22.3626 19.1517 22.3138 19.1724 22.2666 19.1963L15.0402 22.9949L15.0183 23.0073H15.0121L15.0237 23.0147L15.0406 23.0234L22.2683 26.8204C22.3153 26.8446 22.3641 26.8654 22.4142 26.8824L22.4126 19.1343ZM23.5535 19.1343V26.8853C23.6036 26.8683 23.6524 26.8475 23.6995 26.8233L30.9275 23.0263L30.9495 23.0139H30.9561L30.9445 23.0081L30.9275 22.9986L23.6991 19.2029C23.652 19.1786 23.6032 19.1579 23.5531 19.1409L23.5535 19.1343ZM31.0305 14.9609L24.5431 18.367L31.0305 21.7726V14.9576V14.9609ZM14.9505 14.9687V21.7648L21.4189 18.367L14.9505 14.9687ZM23.6991 9.90567C23.473 9.80834 23.2294 9.75815 22.9833 9.75815C22.7371 9.75815 22.4935 9.80834 22.2674 9.90567L15.0398 13.701L15.0179 13.7126L15.0113 13.7163L15.0228 13.7229L15.0398 13.7307L22.2678 17.5277C22.4938 17.6257 22.7374 17.6763 22.9837 17.6763C23.2299 17.6763 23.4736 17.6257 23.6995 17.5277L30.9275 13.7307L30.9495 13.7229L30.9561 13.7192L30.9445 13.7126L30.9275 13.7039L23.6991 9.90567ZM32.0978 10.3247L32.5568 10.6007L32.6395 10.642C32.7723 10.7246 32.8823 10.7941 32.9852 10.8606C34.0836 11.5961 34.4926 12.3998 34.5012 14.0696V14.1204H33.3595C33.3931 13.5907 33.3058 13.0603 33.1043 12.5692C32.9318 12.2553 32.6771 11.9942 32.3674 11.8139L32.3455 11.7994C32.2628 11.742 32.1677 11.6829 32.054 11.613L31.9204 11.5366L31.5102 11.2887L32.0991 10.323L32.0978 10.3247Z" fill="white"/>
</g>
<defs>
<clipPath id="clip0_1342:6624">
<rect width="23" height="29.1333" fill="white" transform="translate(11.5 8.625)"/>
</clipPath>
</defs>
</svg>
