<svg width="46" height="46" viewBox="0 0 46 46" fill="none" xmlns="http://www.w3.org/2000/svg">
<circle cx="23" cy="23" r="23" fill="#E84142"/>
<g clip-path="url(#clip0_1342:6563)">
<path d="M29.4416 23.558C30.0742 22.5146 31.0951 22.5146 31.7278 23.558L35.6675 30.1617C36.3001 31.2051 35.7825 32.0562 34.5172 32.0562H26.5803C25.3293 32.0562 24.8117 31.2051 25.43 30.1617L29.4416 23.558ZM21.821 10.845C22.4536 9.80165 23.4601 9.80165 24.0928 10.845L24.9699 12.3552L27.0404 15.8287C27.5436 16.8171 27.5436 17.9841 27.0404 18.9726L20.0955 30.4637C19.4629 31.3973 18.4132 31.9876 17.2486 32.0562H11.4828C10.2175 32.0562 9.69986 31.2188 10.3325 30.1617L21.821 10.845Z" fill="white"/>
</g>
<defs>
<clipPath id="clip0_1342:6563">
<rect width="25.875" height="25.875" fill="white" transform="translate(10.0625 10.0625)"/>
</clipPath>
</defs>
</svg>
