<svg width="46" height="46" viewBox="0 0 46 46" fill="none" xmlns="http://www.w3.org/2000/svg">
<path d="M46 23C46 35.7025 35.7025 46 23 46C10.2975 46 0 35.7025 0 23C0 10.2975 10.2975 0 23 0C35.7025 0 46 10.2975 46 23Z" fill="#8247E5"/>
<path d="M28.9166 17.9574C28.4366 17.6746 27.8129 17.6746 27.2851 17.9574L23.5419 20.1255L20.9984 21.5397L17.2552 23.7078C16.7754 23.9905 16.1515 23.9905 15.6237 23.7078L12.6483 22.0109C12.1684 21.7281 11.8325 21.2097 11.8325 20.644V17.2974C11.8325 16.7319 12.1204 16.2134 12.6483 15.9307L15.5756 14.2809C16.0555 13.9981 16.6794 13.9981 17.2073 14.2809L20.1346 15.9307C20.6145 16.2134 20.9504 16.7319 20.9504 17.2974V19.4657L23.4938 18.0045V15.8363C23.4938 15.2707 23.206 14.7523 22.6781 14.4694L17.2552 11.3586C16.7754 11.0758 16.1515 11.0758 15.6237 11.3586L10.1049 14.4694C9.577 14.7523 9.28906 15.2707 9.28906 15.8363V22.1053C9.28906 22.6708 9.577 23.1893 10.1049 23.4722L15.6237 26.583C16.1036 26.8658 16.7273 26.8658 17.2552 26.583L20.9984 24.4619L23.5419 23.0008L27.2851 20.8798C27.7649 20.5969 28.3887 20.5969 28.9166 20.8798L31.8439 22.5294C32.3238 22.8123 32.6598 23.3308 32.6598 23.8963V27.2427C32.6598 27.8085 32.3718 28.3269 31.8439 28.6097L28.9166 30.3066C28.4366 30.5894 27.8129 30.5894 27.2851 30.3066L24.3577 28.6569C23.8778 28.374 23.5419 27.8556 23.5419 27.29V25.1218L20.9984 26.583V28.7511C20.9984 29.3167 21.2864 29.8352 21.8142 30.118L27.333 33.2288C27.8129 33.5117 28.4366 33.5117 28.9646 33.2288L34.4835 30.118C34.9634 29.8352 35.2993 29.3167 35.2993 28.7511V22.4823C35.2993 21.9166 35.0113 21.3982 34.4835 21.1154L28.9166 17.9574Z" fill="white"/>
</svg>
