<svg width="46" height="46" viewBox="0 0 46 46" fill="none" xmlns="http://www.w3.org/2000/svg">
<circle cx="23" cy="23" r="23" fill="#0033AD"/>
<path fill-rule="evenodd" clip-rule="evenodd" d="M22.9228 11.654C23.0801 11.6629 23.2365 11.625 23.3723 11.5451C23.508 11.4651 23.617 11.3467 23.6854 11.2048C23.7539 11.0629 23.7787 10.9039 23.7567 10.7479C23.7348 10.5919 23.6671 10.446 23.5621 10.3284C23.4572 10.2109 23.3198 10.1272 23.1673 10.0878C23.0147 10.0484 22.8539 10.0551 22.7052 10.1071C22.5565 10.1591 22.4266 10.2541 22.3319 10.3799C22.2371 10.5058 22.1818 10.6569 22.173 10.8142C22.1612 11.025 22.2335 11.2318 22.3741 11.3893C22.5147 11.5468 22.7121 11.6419 22.9228 11.654ZM29.8534 12.0475C29.7295 12.0486 29.6081 12.0129 29.5045 11.945C29.3658 11.8541 29.2688 11.7118 29.2349 11.5493C29.201 11.3869 29.2329 11.2177 29.3237 11.0788C29.3915 10.9752 29.4885 10.8939 29.6024 10.8454C29.7164 10.7968 29.8422 10.7832 29.9639 10.8061C30.0856 10.8291 30.1978 10.8877 30.2862 10.9744C30.3746 11.0612 30.4353 11.1722 30.4607 11.2934C30.486 11.4147 30.4748 11.5407 30.4284 11.6556C30.3821 11.7705 30.3027 11.869 30.2004 11.9388C30.098 12.0085 29.9773 12.0463 29.8534 12.0475ZM16.3765 12.012C16.4864 11.9556 16.5771 11.8679 16.6373 11.76C16.6974 11.6521 16.7243 11.5288 16.7146 11.4057C16.7049 11.2825 16.6589 11.165 16.5825 11.0679C16.5061 10.9708 16.4027 10.8985 16.2853 10.8601C16.1679 10.8216 16.0418 10.8188 15.9227 10.8519C15.8037 10.885 15.6971 10.9525 15.6164 11.046C15.5357 11.1396 15.4845 11.2549 15.4692 11.3775C15.4539 11.5001 15.4752 11.6244 15.5304 11.7349C15.5675 11.8089 15.6189 11.8748 15.6816 11.9288C15.7443 11.9828 15.8171 12.0239 15.8957 12.0497C15.9744 12.0754 16.0573 12.0853 16.1399 12.0789C16.2224 12.0724 16.3028 12.0497 16.3765 12.012ZM16.9879 24.6465C16.6461 24.2626 16.4706 23.7586 16.5 23.2454L16.4948 23.2465C16.5164 22.8691 16.6481 22.5064 16.8736 22.203C17.0991 21.8997 17.4084 21.669 17.7635 21.5394C18.1185 21.4098 18.5038 21.3871 18.8716 21.4739C19.2395 21.5607 19.5738 21.7534 19.8335 22.0281C20.0931 22.3027 20.2666 22.6474 20.3326 23.0196C20.3986 23.3917 20.3542 23.7751 20.2049 24.1223C20.0555 24.4695 19.8078 24.7654 19.4922 24.9734C19.1766 25.1814 18.8071 25.2925 18.4291 25.2929H18.3233C17.8101 25.2629 17.3298 25.0304 16.9879 24.6465ZM8.93247 22.8396C9.03891 22.7768 9.16158 22.747 9.28497 22.7539C9.36705 22.7584 9.44744 22.779 9.52152 22.8146C9.59561 22.8502 9.66192 22.9001 9.71666 22.9614C9.7714 23.0228 9.81348 23.0943 9.84049 23.1719C9.8675 23.2496 9.87891 23.3318 9.87405 23.4138C9.86696 23.5372 9.82345 23.6557 9.74902 23.7544C9.6746 23.853 9.5726 23.9274 9.45592 23.9681C9.33923 24.0088 9.2131 24.014 9.09346 23.9831C8.97382 23.9521 8.86604 23.8864 8.78375 23.7942C8.70145 23.702 8.64833 23.5875 8.6311 23.4651C8.61388 23.3427 8.63331 23.218 8.68695 23.1067C8.74059 22.9953 8.82603 22.9024 8.93247 22.8396ZM18.7492 15.0482C18.6551 15.2146 18.5138 15.3493 18.3432 15.4354C18.2298 15.4926 18.1062 15.5269 17.9796 15.5363C17.8529 15.5458 17.7257 15.5301 17.605 15.4904C17.4844 15.4506 17.3728 15.3874 17.2767 15.3045C17.1805 15.2216 17.1016 15.1205 17.0444 15.0071C16.9585 14.8364 16.925 14.644 16.9484 14.4542C16.9718 14.2645 17.0508 14.086 17.1757 13.9412C17.3005 13.7964 17.4654 13.6919 17.6496 13.6408C17.8338 13.5898 18.029 13.5945 18.2106 13.6544C18.3921 13.7142 18.5518 13.8266 18.6695 13.9772C18.7872 14.1278 18.8576 14.31 18.8718 14.5006C18.886 14.6912 18.8433 14.8818 18.7492 15.0482ZM11.7353 17.7909C11.8669 17.8774 12.0213 17.923 12.1788 17.9218C12.3364 17.9206 12.49 17.8727 12.6204 17.7842C12.7507 17.6957 12.8518 17.5705 12.911 17.4244C12.9701 17.2784 12.9846 17.1181 12.9526 16.9638C12.9207 16.8096 12.8436 16.6682 12.7313 16.5577C12.619 16.4473 12.4764 16.3726 12.3216 16.3431C12.1669 16.3137 12.0068 16.3308 11.8618 16.3924C11.7167 16.4539 11.5932 16.5571 11.5068 16.6888C11.3911 16.8653 11.3502 17.0805 11.393 17.2871C11.4359 17.4937 11.559 17.6749 11.7353 17.7909ZM12.3689 22.533C12.5336 22.436 12.7233 22.3899 12.9142 22.4007C13.1702 22.4154 13.4099 22.5312 13.5807 22.7226C13.7514 22.9139 13.8392 23.1652 13.8248 23.4213C13.8138 23.6121 13.7465 23.7954 13.6314 23.948C13.5163 24.1006 13.3585 24.2156 13.178 24.2785C12.9975 24.3415 12.8024 24.3495 12.6174 24.3016C12.4324 24.2537 12.2657 24.152 12.1384 24.0094C12.0112 23.8667 11.9291 23.6896 11.9025 23.5003C11.8759 23.311 11.906 23.1181 11.989 22.9459C12.072 22.7738 12.2042 22.6301 12.3689 22.533ZM11.8417 28.9002C11.7012 28.9712 11.5848 29.0823 11.5074 29.2195C11.43 29.3566 11.395 29.5136 11.4068 29.6706C11.4186 29.8277 11.4767 29.9777 11.5737 30.1017C11.6708 30.2257 11.8024 30.3182 11.952 30.3674C12.1016 30.4166 12.2624 30.4204 12.4141 30.3782C12.5659 30.3361 12.7017 30.2499 12.8044 30.1305C12.9072 30.0112 12.9722 29.8641 12.9914 29.7078C13.0105 29.5515 12.9829 29.393 12.912 29.2524C12.8649 29.1589 12.7998 29.0757 12.7205 29.0074C12.6412 28.9392 12.5492 28.8872 12.4498 28.8545C12.3504 28.8218 12.2456 28.809 12.1412 28.8168C12.0369 28.8247 11.9351 28.853 11.8417 28.9002ZM16.2282 20.59C16.0032 20.592 15.7826 20.5272 15.5943 20.4039C15.4692 20.322 15.3615 20.2163 15.2772 20.0928C15.193 19.9692 15.134 19.8303 15.1035 19.6839C15.0731 19.5376 15.0718 19.3866 15.0998 19.2398C15.1277 19.0929 15.1844 18.953 15.2665 18.828C15.3899 18.6398 15.5663 18.4925 15.7735 18.4045C15.9807 18.3166 16.2093 18.2921 16.4304 18.3341C16.6515 18.376 16.8552 18.4826 17.0157 18.6404C17.1762 18.7981 17.2864 18.9999 17.3322 19.2203C17.3781 19.4406 17.3575 19.6696 17.2732 19.8783C17.189 20.0869 17.0447 20.2659 16.8587 20.3926C16.6727 20.5193 16.4532 20.588 16.2282 20.59ZM27.5217 15.3587C27.682 15.4632 27.8696 15.5179 28.061 15.5158C28.2523 15.5137 28.4387 15.4549 28.5967 15.3469C28.7546 15.2389 28.877 15.0864 28.9483 14.9089C29.0197 14.7313 29.0368 14.5366 28.9974 14.3493C28.9581 14.162 28.8642 13.9906 28.7274 13.8568C28.5907 13.7229 28.4174 13.6325 28.2293 13.5971C28.0413 13.5617 27.847 13.5829 27.6709 13.6579C27.4949 13.733 27.3451 13.8585 27.2404 14.0187C27.1707 14.1251 27.1226 14.2442 27.099 14.3692C27.0755 14.4942 27.0768 14.6226 27.1029 14.7471C27.129 14.8715 27.1795 14.9896 27.2513 15.0946C27.3232 15.1995 27.4151 15.2893 27.5217 15.3587ZM27.6721 21.4028C27.4183 21.3883 27.1641 21.4238 26.924 21.5075C26.684 21.5911 26.4627 21.7213 26.2729 21.8904C25.8896 22.2321 25.6578 22.712 25.6283 23.2246C25.5989 23.7372 25.7742 24.2405 26.1159 24.6237C26.4575 25.007 26.9374 25.2389 27.45 25.2684H27.5621C27.9355 25.2682 28.3009 25.16 28.6142 24.9568C28.9275 24.7536 29.1754 24.4642 29.3279 24.1233C29.4803 23.7824 29.531 23.4047 29.4736 23.0358C29.4163 22.6668 29.2534 22.3223 29.0047 22.0437C28.8362 21.8538 28.6317 21.6993 28.4029 21.5893C28.1741 21.4792 27.9257 21.4159 27.6721 21.4028ZM19.6902 21.0488C19.3845 20.8606 19.1374 20.5909 18.9768 20.2699C18.829 19.9749 18.7591 19.6471 18.7736 19.3175C18.7881 18.9879 18.8866 18.6674 19.0597 18.3866C19.2328 18.1057 19.4748 17.8738 19.7627 17.7127C20.0507 17.5516 20.375 17.4668 20.7049 17.4662C21.063 17.4645 21.4146 17.5625 21.7202 17.7493C22.0258 17.9361 22.2733 18.2043 22.4351 18.5238C22.5846 18.8191 22.6559 19.1477 22.6422 19.4784C22.6286 19.809 22.5304 20.1306 22.3571 20.4126C22.1838 20.6945 21.9411 20.9273 21.6522 21.0888C21.3634 21.2502 21.0379 21.335 20.707 21.3349C20.3481 21.336 19.9959 21.237 19.6902 21.0488ZM34.1559 17.7887C34.2965 17.7178 34.4128 17.6068 34.4903 17.4697C34.5678 17.3326 34.603 17.1757 34.5913 17.0186C34.5796 16.8616 34.5216 16.7116 34.4247 16.5875C34.3278 16.4634 34.1962 16.3708 34.0467 16.3215C33.8972 16.2721 33.7364 16.2682 33.5846 16.3102C33.4329 16.3523 33.297 16.4383 33.1941 16.5575C33.0913 16.6767 33.0261 16.8238 33.0067 16.98C32.9874 17.1363 33.0149 17.2948 33.0856 17.4355C33.1808 17.6242 33.347 17.7673 33.5476 17.8336C33.7483 17.8998 33.9671 17.8837 34.1559 17.7887ZM28.7686 18.8609C28.8795 18.665 29.0459 18.5064 29.2469 18.4052C29.3804 18.3378 29.5258 18.2974 29.6749 18.2863C29.8239 18.2752 29.9737 18.2936 30.1157 18.3405C30.2576 18.3874 30.3889 18.4618 30.5021 18.5594C30.6153 18.6571 30.7081 18.7761 30.7752 18.9097C30.8764 19.1107 30.9158 19.3372 30.8883 19.5606C30.8608 19.784 30.7676 19.9942 30.6207 20.1646C30.4737 20.3351 30.2795 20.4581 30.0626 20.5182C29.8457 20.5783 29.6158 20.5727 29.4021 20.5022C29.1884 20.4316 29.0004 20.2993 28.8619 20.1219C28.7234 19.9445 28.6406 19.73 28.624 19.5055C28.6073 19.2811 28.6577 19.0567 28.7686 18.8609ZM23.5537 16.51C23.3599 16.6243 23.1365 16.6786 22.9119 16.666C22.6104 16.6488 22.328 16.5126 22.1269 16.2873C21.9258 16.062 21.8224 15.7661 21.8395 15.4646C21.8524 15.2399 21.9316 15.0242 22.0671 14.8445C22.2026 14.6649 22.3883 14.5295 22.6007 14.4554C22.8132 14.3812 23.0428 14.3718 23.2606 14.4281C23.4785 14.4845 23.6747 14.6042 23.8245 14.772C23.9744 14.9399 24.0711 15.1484 24.1024 15.3712C24.1338 15.594 24.0984 15.8211 24.0007 16.0238C23.903 16.2265 23.7475 16.3957 23.5537 16.51ZM16.7553 28.2818C16.9562 28.1805 17.1227 28.0218 17.2335 27.8259C17.3443 27.6299 17.3945 27.4056 17.3778 27.1811C17.3611 26.9566 17.2781 26.7422 17.1395 26.5648C17.0009 26.3875 16.8128 26.2552 16.599 26.1848C16.3852 26.1144 16.1553 26.109 15.9385 26.1692C15.7216 26.2294 15.5274 26.3526 15.3806 26.5232C15.2337 26.6938 15.1407 26.9041 15.1134 27.1275C15.0861 27.3509 15.1256 27.5774 15.227 27.7784C15.363 28.0477 15.6003 28.2521 15.8869 28.3465C16.1735 28.4409 16.4858 28.4176 16.7553 28.2818ZM23.3377 19.5448C23.3027 19.1156 23.4119 18.687 23.6479 18.3268C23.8243 18.0579 24.0649 17.8371 24.3479 17.6845C24.631 17.5318 24.9476 17.4519 25.2692 17.4521C25.6998 17.4527 26.1179 17.5969 26.4574 17.8618C26.7969 18.1267 27.0383 18.4973 27.1435 18.9149C27.2487 19.3325 27.2116 19.7732 27.0381 20.1673C26.8646 20.5614 26.5646 20.8864 26.1856 21.0909C25.8066 21.2954 25.3703 21.3676 24.9456 21.2961C24.5209 21.2247 24.1323 21.0137 23.841 20.6964C23.5498 20.3792 23.3727 19.974 23.3377 19.5448ZM27.0145 26.4195C26.8594 26.112 26.6251 25.8515 26.3357 25.6648C26.0464 25.4781 25.7124 25.3719 25.3684 25.3573C25.0243 25.3427 24.6826 25.4202 24.3785 25.5817C24.0743 25.7433 23.8188 25.9831 23.6383 26.2763C23.4577 26.5696 23.3587 26.9057 23.3514 27.25C23.3441 27.5943 23.4288 27.9343 23.5967 28.2349C23.7647 28.5355 24.0098 28.7859 24.3068 28.9602C24.6038 29.1345 24.942 29.2264 25.2863 29.2264C25.5893 29.2243 25.8876 29.1519 26.1578 29.0149C26.6148 28.7835 26.9616 28.3805 27.1221 27.8941C27.2827 27.4077 27.244 26.8775 27.0145 26.4195ZM29.7636 26.0996C29.9887 26.0978 30.2092 26.1628 30.3974 26.2863C30.6492 26.4523 30.825 26.7113 30.8863 27.0067C30.9475 27.302 30.8892 27.6096 30.7242 27.8621C30.6006 28.0502 30.4241 28.1975 30.2169 28.2854C30.0096 28.3732 29.781 28.3976 29.5599 28.3555C29.3388 28.3133 29.1352 28.2066 28.9748 28.0488C28.8143 27.8909 28.7043 27.689 28.6586 27.4687C28.6129 27.2483 28.6336 27.0193 28.718 26.8107C28.8024 26.602 28.9468 26.4231 29.133 26.2966C29.3191 26.17 29.5385 26.1015 29.7636 26.0996ZM34.0986 23.3782C34.1094 23.1873 34.0633 22.9976 33.9663 22.8329C33.8692 22.6682 33.7256 22.536 33.5534 22.453C33.3812 22.37 33.1883 22.3399 32.999 22.3665C32.8097 22.3931 32.6326 22.4752 32.49 22.6024C32.3473 22.7297 32.2456 22.8964 32.1977 23.0814C32.1498 23.2664 32.1578 23.4615 32.2208 23.642C32.2837 23.8225 32.3988 23.9802 32.5513 24.0954C32.7039 24.2105 32.8872 24.2778 33.078 24.2887C33.3341 24.3032 33.5854 24.2154 33.7768 24.0447C33.9681 23.8739 34.0839 23.6342 34.0986 23.3782ZM36.4315 22.7747C36.5383 22.712 36.6613 22.6823 36.7849 22.6894C36.9506 22.6992 37.1056 22.7743 37.216 22.8982C37.3264 23.0221 37.3832 23.1847 37.374 23.3504C37.3669 23.474 37.3232 23.5928 37.2487 23.6916C37.1741 23.7904 37.0718 23.865 36.9549 23.9057C36.838 23.9464 36.7116 23.9516 36.5917 23.9205C36.4718 23.8894 36.3639 23.8235 36.2815 23.731C36.1991 23.6386 36.146 23.5238 36.1288 23.4011C36.1117 23.2785 36.1313 23.1535 36.1852 23.042C36.2391 22.9305 36.3248 22.8375 36.4315 22.7747ZM34.2643 28.897C34.1326 28.8107 33.9782 28.7654 33.8208 28.7669C33.6633 28.7683 33.5098 28.8164 33.3796 28.9051C33.2495 28.9937 33.1485 29.119 33.0896 29.265C33.0306 29.411 33.0162 29.5713 33.0483 29.7254C33.0804 29.8796 33.1575 30.0208 33.2698 30.1312C33.3821 30.2416 33.5246 30.3162 33.6793 30.3456C33.834 30.375 33.994 30.3579 34.139 30.2964C34.2839 30.2349 34.4074 30.1318 34.4938 30.0001C34.5512 29.9126 34.5908 29.8147 34.6104 29.7119C34.6299 29.6091 34.629 29.5034 34.6077 29.401C34.5863 29.2986 34.5451 29.2013 34.4861 29.1148C34.4272 29.0284 34.3519 28.9544 34.2643 28.897ZM16.1498 34.6404C16.2737 34.6394 16.395 34.6751 16.4985 34.743C16.5673 34.7881 16.6265 34.8464 16.6727 34.9144C16.719 34.9824 16.7514 35.0588 16.7681 35.1394C16.7848 35.2199 16.7854 35.303 16.77 35.3837C16.7546 35.4645 16.7235 35.5415 16.6783 35.6102C16.6103 35.7137 16.5132 35.7947 16.3992 35.843C16.2852 35.8913 16.1594 35.9047 16.0378 35.8815C15.9161 35.8583 15.8041 35.7996 15.7159 35.7127C15.6276 35.6259 15.5671 35.5148 15.542 35.3936C15.5168 35.2723 15.5282 35.1464 15.5747 35.0316C15.6211 34.9168 15.7005 34.8184 15.8029 34.7488C15.9053 34.6791 16.026 34.6414 16.1498 34.6404ZM29.6137 34.6769C29.5031 34.7326 29.4115 34.8199 29.3506 34.9277C29.2896 35.0355 29.2619 35.1589 29.2711 35.2824C29.2803 35.4059 29.3259 35.5239 29.4022 35.6215C29.4784 35.7191 29.5819 35.7918 29.6995 35.8306C29.8172 35.8694 29.9436 35.8724 30.063 35.8392C30.1823 35.8061 30.2891 35.7384 30.3699 35.6445C30.4507 35.5507 30.5019 35.435 30.517 35.3121C30.532 35.1891 30.5103 35.0645 30.4545 34.954C30.4176 34.8805 30.3665 34.815 30.3043 34.7613C30.242 34.7075 30.1697 34.6666 30.0916 34.6409C30.0135 34.6152 29.9311 34.6051 29.8491 34.6113C29.7671 34.6174 29.6871 34.6397 29.6137 34.6769ZM22.653 27.1393C22.688 27.5685 22.5788 27.9972 22.3428 28.3574C22.1672 28.6269 21.927 28.8481 21.644 29.0009C21.3609 29.1536 21.0442 29.2331 20.7225 29.232C20.2919 29.2317 19.8736 29.0877 19.534 28.8229C19.1943 28.5581 18.9527 28.1876 18.8474 27.77C18.742 27.3525 18.779 26.9117 18.9523 26.5174C19.1257 26.1232 19.4256 25.7981 19.8046 25.5935C20.1836 25.3889 20.62 25.3166 21.0447 25.388C21.4694 25.4593 21.8582 25.6703 22.1495 25.9875C22.4408 26.3047 22.618 26.71 22.653 27.1393ZM18.4763 31.3307C18.3163 31.2261 18.129 31.1712 17.9378 31.173C17.7467 31.1749 17.5604 31.2333 17.4025 31.341C17.2446 31.4487 17.1221 31.6008 17.0506 31.7781C16.9791 31.9553 16.9618 32.1498 17.0008 32.3369C17.0398 32.5241 17.1335 32.6954 17.2698 32.8293C17.4062 32.9633 17.5793 33.0537 17.7671 33.0893C17.9549 33.1249 18.149 33.1041 18.3249 33.0294C18.5009 32.9547 18.6507 32.8295 18.7555 32.6696C18.8959 32.455 18.9453 32.1934 18.893 31.9424C18.8406 31.6913 18.6908 31.4713 18.4763 31.3307ZM22.5444 35.1436C22.6801 35.0637 22.8365 35.0258 22.9937 35.0347C23.0981 35.0407 23.2004 35.0671 23.2946 35.1126C23.3888 35.1581 23.4732 35.2217 23.5428 35.2998C23.6125 35.3778 23.666 35.4689 23.7005 35.5677C23.7349 35.6665 23.7495 35.7711 23.7435 35.8755C23.7345 36.0327 23.679 36.1838 23.5842 36.3095C23.4893 36.4352 23.3593 36.53 23.2106 36.5818C23.0619 36.6336 22.9012 36.6402 22.7487 36.6007C22.5963 36.5612 22.4589 36.4774 22.3541 36.3599C22.2493 36.2423 22.1817 36.0964 22.1598 35.9404C22.1379 35.7844 22.1628 35.6255 22.2313 35.4837C22.2997 35.3418 22.4087 35.2235 22.5444 35.1436ZM22.9969 30.0239C22.7721 30.0103 22.5482 30.0637 22.3537 30.1773C22.1592 30.291 22.0029 30.4598 21.9044 30.6624C21.8059 30.865 21.7698 31.0923 21.8006 31.3154C21.8314 31.5386 21.9277 31.7475 22.0774 31.9159C22.2271 32.0843 22.4233 32.2044 22.6413 32.2611C22.8593 32.3179 23.0893 32.3086 23.302 32.2345C23.5148 32.1605 23.7007 32.0249 23.8364 31.8451C23.972 31.6653 24.0513 31.4492 24.064 31.2243C24.0814 30.9237 23.9788 30.6285 23.7787 30.4035C23.5787 30.1784 23.2975 30.0419 22.9969 30.0239ZM27.2428 31.6421C27.3366 31.4752 27.4778 31.3398 27.6486 31.2532C27.7617 31.1955 27.8851 31.1606 28.0116 31.1507C28.1382 31.1407 28.2655 31.1558 28.3862 31.1951C28.507 31.2344 28.6188 31.2971 28.7152 31.3797C28.8117 31.4622 28.8909 31.563 28.9484 31.6762C29.0354 31.8468 29.0699 32.0393 29.0475 32.2295C29.0251 32.4197 28.9467 32.5989 28.8224 32.7445C28.698 32.8902 28.5333 32.9956 28.349 33.0476C28.1647 33.0995 27.9691 33.0956 27.787 33.0363C27.6049 32.9771 27.4445 32.8651 27.326 32.7146C27.2076 32.5642 27.1365 32.3819 27.1217 32.191C27.1069 32.0001 27.149 31.8091 27.2428 31.6421Z" fill="white"/>
</svg>
