<svg width="46" height="46" viewBox="0 0 46 46" fill="none" xmlns="http://www.w3.org/2000/svg">
<circle cx="23" cy="23" r="23" fill="black"/>
<g clip-path="url(#clip0_1342:6618)">
<path d="M13.1131 34.5L16.8684 28.0198L20.6237 21.5625L24.3561 15.0823L24.9743 14.0556L25.2491 15.0823L26.394 19.3492L25.1117 21.5625L21.3564 28.0198L17.624 34.5H22.1121L25.8674 28.0198L27.8137 24.6657L28.7296 28.0198L30.4699 34.5H34.5L32.7597 28.0198L31.0195 21.5625L30.5615 19.8968L33.3551 15.0823H29.2792L29.1418 14.6032L27.7221 9.30952L27.5389 8.625H23.6233L23.5317 8.7619L19.868 15.0823L16.1127 21.5625L12.3803 28.0198L8.625 34.5H13.1131Z" fill="white"/>
</g>
<defs>
<clipPath id="clip0_1342:6618">
<rect width="27.3125" height="27.3125" fill="white" transform="translate(8.625 7.1875)"/>
</clipPath>
</defs>
</svg>
