<svg width="46" height="46" viewBox="0 0 46 46" fill="none" xmlns="http://www.w3.org/2000/svg">
<circle cx="23" cy="23" r="23" fill="#EDEFF7"/>
<g clip-path="url(#clip0_1342:6452)">
<path d="M26.1592 16.7134C26.1592 12.2708 24.0094 8.44333 22.3629 7.19029C22.3629 7.19029 22.2485 7.12194 22.2485 7.3042C22.1113 15.8932 17.7433 18.2398 15.3191 21.3611C9.76186 28.6059 14.9303 36.5343 20.1903 37.9924C23.1404 38.8125 19.5042 36.5343 19.0468 31.7499C18.4979 25.9404 26.1592 21.5205 26.1592 16.7134" fill="#282E5B"/>
<path d="M29.0374 19.6499C29.0145 19.6271 28.9688 19.6271 28.923 19.6499C28.923 19.6499 28.923 19.6499 28.9002 19.6727C28.8087 20.7435 27.6195 23.0673 26.133 25.1861C21.0789 32.3854 23.9604 35.8483 25.5841 37.7165C26.5218 38.8101 25.5841 37.7165 27.9397 36.6001C28.1226 36.509 32.5135 34.1852 32.9938 28.9224C33.474 23.7963 30.2037 20.584 29.0374 19.6499" fill="#059BDC"/>
</g>
<defs>
<clipPath id="clip0_1342:6452">
<rect width="20.125" height="30.9615" fill="white" transform="translate(12.9375 7.1875)"/>
</clipPath>
</defs>
</svg>
