<svg width="46" height="46" viewBox="0 0 46 46" fill="none" xmlns="http://www.w3.org/2000/svg">
<circle cx="23" cy="23" r="23" fill="#0D0234"/>
<path d="M18.732 16.0591C20.0121 15.2262 21.4275 14.8037 22.9783 14.8037C24.5127 14.7996 25.9282 15.2221 27.2287 16.0714L29.9529 13.3472C27.8359 11.7225 25.5097 10.9061 22.9783 10.9102C20.4346 10.9143 18.1125 11.7225 16.0078 13.3431L18.732 16.0591Z" fill="white"/>
<path d="M16.0481 27.2504C15.1825 25.9375 14.7517 24.518 14.7558 22.9959C14.7599 21.4492 15.1866 20.0337 16.0399 18.7455L13.3239 16.0254C11.728 18.1055 10.9279 20.4276 10.9238 22.9959C10.9197 25.5396 11.7239 27.8617 13.3321 29.9705L16.0481 27.2504Z" fill="white"/>
<path d="M27.2516 29.9551C25.9592 30.8249 24.5438 31.2679 23.0053 31.2803C21.4422 31.2926 20.0103 30.8495 18.7097 29.9633L16.002 32.6711C18.1066 34.3081 20.4452 35.1163 23.0217 35.0958C25.5695 35.0753 27.8834 34.267 29.9635 32.667L27.2516 29.9551Z" fill="white"/>
<path d="M29.9318 18.7416C30.8057 20.0585 31.2324 21.5027 31.216 23.074C31.1996 24.5879 30.7688 25.9828 29.9277 27.2588L32.6478 29.9789C34.2478 27.8947 35.0602 25.5808 35.0807 23.0412C35.1012 20.4647 34.293 18.1262 32.656 16.0215L29.9318 18.7416Z" fill="white"/>
<path d="M32.6019 32.8686C32.5608 32.8275 32.5403 32.7783 32.5403 32.725C32.5403 32.6716 32.5608 32.6224 32.6019 32.5814C32.6798 32.5034 32.807 32.5034 32.889 32.5814C32.9301 32.6224 32.9506 32.6716 32.9506 32.725C32.9506 32.7783 32.9301 32.8275 32.889 32.8686C32.848 32.9096 32.7988 32.926 32.7455 32.926C32.6921 32.926 32.6429 32.9055 32.6019 32.8686ZM32.0275 32.2942C31.9865 32.2532 31.97 32.2039 31.97 32.1506C31.97 32.0973 31.9906 32.048 32.0275 32.007C32.1054 31.929 32.2367 31.929 32.3147 32.007C32.3557 32.048 32.3721 32.0973 32.3721 32.1506C32.3721 32.2039 32.3516 32.2532 32.3147 32.2942C32.2736 32.3352 32.2244 32.3516 32.1711 32.3516C32.1218 32.3516 32.0685 32.3352 32.0275 32.2942ZM31.4572 31.7198C31.4162 31.6788 31.3957 31.6295 31.3957 31.5762C31.3957 31.5229 31.4162 31.4736 31.4572 31.4326C31.5352 31.3547 31.6664 31.3547 31.7444 31.4326C31.7854 31.4736 31.8018 31.5229 31.8018 31.5762C31.8018 31.6295 31.7813 31.6788 31.7444 31.7198C31.7034 31.7608 31.6541 31.7813 31.6008 31.7813C31.5475 31.7813 31.4941 31.7608 31.4572 31.7198ZM30.8828 31.1454C30.8418 31.1044 30.8254 31.0552 30.8254 31.0018C30.8254 30.9485 30.8459 30.8993 30.8828 30.8582C30.9608 30.7803 31.0921 30.7803 31.17 30.8582C31.211 30.8993 31.2275 30.9485 31.2275 31.0018C31.2275 31.0552 31.2069 31.1044 31.17 31.1454C31.129 31.1865 31.0798 31.207 31.0264 31.207C30.9731 31.207 30.9238 31.1865 30.8828 31.1454ZM30.3084 30.5752C30.2674 30.5341 30.2469 30.4849 30.2469 30.4316C30.2469 30.3782 30.2674 30.329 30.3084 30.288C30.3864 30.21 30.5136 30.21 30.5956 30.288C30.6367 30.329 30.6531 30.3782 30.6531 30.4316C30.6531 30.4849 30.6326 30.5341 30.5956 30.5752C30.5546 30.6162 30.5054 30.6326 30.452 30.6326C30.4028 30.6326 30.3495 30.6121 30.3084 30.5752ZM29.7382 30.0008C29.6971 29.9597 29.6766 29.9105 29.6766 29.8572C29.6766 29.8038 29.6971 29.7546 29.7382 29.7136C29.8161 29.6356 29.9433 29.6356 30.0254 29.7136C30.0664 29.7546 30.0869 29.8038 30.0869 29.8572C30.0869 29.9105 30.0664 29.9597 30.0254 30.0008C29.9843 30.0418 29.9351 30.0582 29.8818 30.0582C29.8284 30.0582 29.7751 30.0418 29.7382 30.0008ZM29.1638 29.4264C29.1228 29.3854 29.1063 29.3361 29.1063 29.2828C29.1063 29.2295 29.1269 29.1802 29.1638 29.1392C29.2417 29.0613 29.373 29.0613 29.451 29.1392C29.492 29.1802 29.5125 29.2295 29.5125 29.2828C29.5125 29.3361 29.492 29.3854 29.451 29.4264C29.41 29.4674 29.3607 29.4879 29.3074 29.4879C29.254 29.4879 29.2048 29.4674 29.1638 29.4264ZM28.5894 28.8561C28.5484 28.8151 28.5279 28.7659 28.5279 28.7125C28.5279 28.6592 28.5484 28.61 28.5894 28.5689C28.6674 28.491 28.7986 28.491 28.8766 28.5689C28.9176 28.61 28.934 28.6592 28.934 28.7125C28.934 28.7659 28.9135 28.8151 28.8766 28.8561C28.8356 28.8971 28.7863 28.9136 28.733 28.9136C28.6838 28.9136 28.6304 28.893 28.5894 28.8561ZM28.015 28.2817C27.974 28.2407 27.9535 28.1915 27.9535 28.1381C27.9535 28.0848 27.974 28.0356 28.015 27.9946C28.093 27.9166 28.2243 27.9166 28.3022 27.9946C28.3432 28.0356 28.3638 28.0848 28.3638 28.1381C28.3638 28.1915 28.3432 28.2407 28.3022 28.2817C28.2612 28.3228 28.212 28.3433 28.1586 28.3433C28.1094 28.3392 28.0561 28.3187 28.015 28.2817ZM27.4448 27.7074C27.4037 27.6663 27.3832 27.6171 27.3832 27.5638C27.3832 27.5104 27.4037 27.4612 27.4448 27.4202C27.5227 27.3422 27.6499 27.3422 27.7319 27.4202C27.773 27.4612 27.7935 27.5104 27.7935 27.5638C27.7935 27.6171 27.773 27.6663 27.7319 27.7074C27.6909 27.7484 27.6417 27.7689 27.5883 27.7689C27.535 27.7689 27.4817 27.7484 27.4448 27.7074ZM26.8704 27.1371C26.8293 27.0961 26.8088 27.0468 26.8088 26.9935C26.8088 26.9402 26.8293 26.8909 26.8704 26.8499C26.9483 26.7719 27.0755 26.7719 27.1576 26.8499C27.1986 26.8909 27.2191 26.9402 27.2191 26.9935C27.2191 27.0468 27.1986 27.0961 27.1576 27.1371C27.1165 27.1781 27.0673 27.1945 27.014 27.1945C26.9606 27.1945 26.9114 27.174 26.8704 27.1371ZM26.296 26.5627C26.255 26.5217 26.2386 26.4724 26.2386 26.4191C26.2386 26.3658 26.2591 26.3165 26.296 26.2755C26.3739 26.1976 26.5052 26.1976 26.5832 26.2755C26.6242 26.3165 26.6447 26.3658 26.6447 26.4191C26.6447 26.4724 26.6242 26.5217 26.5832 26.5627C26.5422 26.6037 26.4929 26.6242 26.4396 26.6242C26.3904 26.6201 26.337 26.5996 26.296 26.5627ZM25.7257 25.9883C25.6847 25.9473 25.6683 25.8981 25.6683 25.8447C25.6683 25.7914 25.6888 25.7422 25.7257 25.7011C25.8037 25.6232 25.935 25.6232 26.0129 25.7011C26.0539 25.7422 26.0744 25.7914 26.0744 25.8447C26.0744 25.8981 26.0539 25.9473 26.0129 25.9883C25.9719 26.0294 25.9226 26.0499 25.8693 26.0499C25.816 26.0458 25.7626 26.0294 25.7257 25.9883ZM25.1513 25.414C25.1103 25.3729 25.0898 25.3237 25.0898 25.2704C25.0898 25.217 25.1103 25.1678 25.1513 25.1268C25.2293 25.0488 25.3606 25.0488 25.4385 25.1268C25.4796 25.1678 25.496 25.217 25.496 25.2704C25.496 25.3237 25.4755 25.3729 25.4385 25.414C25.3975 25.455 25.3483 25.4755 25.2949 25.4755C25.2416 25.4755 25.1883 25.455 25.1513 25.414ZM24.577 24.8437C24.5359 24.8027 24.5154 24.7534 24.5154 24.7001C24.5154 24.6467 24.5359 24.5975 24.577 24.5565C24.6549 24.4785 24.7862 24.4785 24.8642 24.5565C24.9052 24.5975 24.9257 24.6467 24.9257 24.7001C24.9257 24.7534 24.9052 24.8027 24.8642 24.8437C24.8231 24.8847 24.7739 24.9052 24.7206 24.9052C24.6672 24.9011 24.618 24.8806 24.577 24.8437ZM24.0067 24.2693C23.9657 24.2283 23.9451 24.179 23.9451 24.1257C23.9451 24.0724 23.9657 24.0231 24.0067 23.9821C24.0846 23.9042 24.2118 23.9042 24.2939 23.9821C24.3349 24.0231 24.3554 24.0724 24.3554 24.1257C24.3554 24.179 24.3349 24.2283 24.2939 24.2693C24.2528 24.3103 24.2036 24.3267 24.1503 24.3267C24.0969 24.3267 24.0436 24.3062 24.0067 24.2693ZM23.4323 23.6949C23.3913 23.6539 23.3749 23.6047 23.3749 23.5513C23.3749 23.498 23.3954 23.4488 23.4323 23.4077C23.5103 23.3298 23.6415 23.3298 23.7195 23.4077C23.7605 23.4488 23.781 23.498 23.781 23.5513C23.781 23.6047 23.7605 23.6539 23.7195 23.6949C23.6785 23.7359 23.6292 23.7524 23.5759 23.7524C23.5226 23.7565 23.4692 23.7359 23.4323 23.6949ZM22.8579 23.1205C22.8169 23.0795 22.8005 23.0303 22.8005 22.9769C22.8005 22.9236 22.821 22.8744 22.8579 22.8334C22.9359 22.7554 23.0672 22.7554 23.1451 22.8334C23.1861 22.8744 23.2026 22.9236 23.2026 22.9769C23.2026 23.0303 23.182 23.0795 23.1451 23.1205C23.1041 23.1616 23.0549 23.1821 23.0015 23.1821C22.9482 23.1821 22.899 23.1616 22.8579 23.1205ZM22.2835 22.5503C22.2425 22.5092 22.222 22.46 22.222 22.4067C22.222 22.3533 22.2425 22.3041 22.2835 22.2631C22.3615 22.1851 22.4928 22.1851 22.5707 22.2631C22.6118 22.3041 22.6282 22.3533 22.6282 22.4067C22.6282 22.46 22.6077 22.5092 22.5707 22.5503C22.5297 22.5913 22.4805 22.6118 22.4271 22.6118C22.3779 22.6077 22.3246 22.5872 22.2835 22.5503ZM21.7133 21.9759C21.6722 21.9349 21.6517 21.8856 21.6517 21.8323C21.6517 21.779 21.6722 21.7297 21.7133 21.6887C21.7912 21.6107 21.9225 21.6107 22.0005 21.6887C22.0415 21.7297 22.0579 21.779 22.0579 21.8323C22.0579 21.8856 22.0374 21.9349 22.0005 21.9759C21.9594 22.0169 21.9102 22.0333 21.8569 22.0333C21.8035 22.0333 21.7502 22.0169 21.7133 21.9759ZM21.1389 21.4015C21.0979 21.3605 21.0773 21.3112 21.0773 21.2579C21.0773 21.2046 21.0979 21.1553 21.1389 21.1143C21.2168 21.0364 21.344 21.0364 21.4261 21.1143C21.4671 21.1553 21.4876 21.2046 21.4876 21.2579C21.4876 21.3112 21.4671 21.3605 21.4261 21.4015C21.3851 21.4425 21.3358 21.463 21.2825 21.463C21.2291 21.463 21.1758 21.4425 21.1389 21.4015ZM20.5645 20.8312C20.5235 20.7902 20.5071 20.741 20.5071 20.6876C20.5071 20.6343 20.5276 20.5851 20.5645 20.544C20.6425 20.4661 20.7737 20.4661 20.8517 20.544C20.8927 20.5851 20.9132 20.6343 20.9132 20.6876C20.9132 20.741 20.8927 20.7902 20.8517 20.8312C20.8107 20.8723 20.7614 20.8887 20.7081 20.8887C20.6548 20.8887 20.6055 20.8682 20.5645 20.8312ZM19.9901 20.2569C19.9491 20.2158 19.9286 20.1666 19.9286 20.1133C19.9286 20.0599 19.9491 20.0107 19.9901 19.9697C20.0681 19.8917 20.1953 19.8917 20.2773 19.9697C20.3183 20.0107 20.3348 20.0599 20.3348 20.1133C20.3348 20.1666 20.3142 20.2158 20.2773 20.2569C20.2363 20.2979 20.1871 20.3143 20.1337 20.3143C20.0845 20.3143 20.0312 20.2938 19.9901 20.2569ZM19.4199 19.6825C19.3788 19.6414 19.3624 19.5922 19.3624 19.5389C19.3624 19.4855 19.3829 19.4363 19.4199 19.3953C19.4978 19.3173 19.6291 19.3173 19.707 19.3953C19.7481 19.4363 19.7686 19.4855 19.7686 19.5389C19.7686 19.5922 19.7481 19.6414 19.707 19.6825C19.666 19.7235 19.6168 19.744 19.5634 19.744C19.5101 19.744 19.4568 19.7235 19.4199 19.6825ZM18.8455 19.1081C18.8044 19.0671 18.788 19.0178 18.788 18.9645C18.788 18.9112 18.8086 18.8619 18.8455 18.8209C18.9234 18.743 19.0547 18.743 19.1327 18.8209C19.1737 18.8619 19.1901 18.9112 19.1901 18.9645C19.1901 19.0178 19.1696 19.0671 19.1327 19.1081C19.0916 19.1491 19.0424 19.1696 18.9891 19.1696C18.9357 19.1696 18.8865 19.1491 18.8455 19.1081ZM18.2711 18.5378C18.2301 18.4968 18.2096 18.4476 18.2096 18.3942C18.2096 18.3409 18.2301 18.2917 18.2711 18.2506C18.349 18.1727 18.4803 18.1727 18.5583 18.2506C18.5993 18.2917 18.6157 18.3409 18.6157 18.3942C18.6157 18.4476 18.5952 18.4968 18.5583 18.5378C18.5173 18.5788 18.468 18.5953 18.4147 18.5953C18.3655 18.5953 18.3121 18.5747 18.2711 18.5378ZM17.7008 17.9634C17.6598 17.9224 17.6434 17.8732 17.6434 17.8198C17.6434 17.7665 17.6639 17.7173 17.7008 17.6763C17.7788 17.5983 17.9101 17.5983 17.988 17.6763C18.029 17.7173 18.0495 17.7665 18.0495 17.8198C18.0495 17.8732 18.029 17.9224 17.988 17.9634C17.947 18.0045 17.8977 18.0209 17.8444 18.0209C17.7911 18.0209 17.7377 18.0045 17.7008 17.9634ZM17.1264 17.3891C17.0854 17.348 17.0649 17.2988 17.0649 17.2455C17.0649 17.1921 17.0854 17.1429 17.1264 17.1019C17.2044 17.0239 17.3316 17.0239 17.4136 17.1019C17.4547 17.1429 17.4711 17.1921 17.4711 17.2455C17.4711 17.2988 17.4506 17.348 17.4136 17.3891C17.3726 17.4301 17.3234 17.4506 17.27 17.4506C17.2167 17.4506 17.1675 17.4301 17.1264 17.3891ZM16.5521 16.8147C16.511 16.7737 16.4946 16.7244 16.4946 16.6711C16.4946 16.6178 16.5151 16.5685 16.5521 16.5275C16.63 16.4495 16.7613 16.4495 16.8392 16.5275C16.8803 16.5685 16.9008 16.6178 16.9008 16.6711C16.9008 16.7244 16.8803 16.7737 16.8392 16.8147C16.7982 16.8557 16.749 16.8721 16.6957 16.8721C16.6423 16.8762 16.5931 16.8557 16.5521 16.8147ZM15.9777 16.2444C15.9367 16.2034 15.9161 16.1542 15.9161 16.1008C15.9161 16.0475 15.9367 15.9982 15.9777 15.9572C16.0556 15.8793 16.1869 15.8793 16.2649 15.9572C16.3059 15.9982 16.3223 16.0475 16.3223 16.1008C16.3223 16.1542 16.3018 16.2034 16.2649 16.2444C16.2238 16.2854 16.1746 16.306 16.1213 16.306C16.072 16.3018 16.0187 16.2813 15.9777 16.2444ZM15.4074 15.67C15.3664 15.629 15.35 15.5798 15.35 15.5264C15.35 15.4731 15.3705 15.4239 15.4074 15.3828C15.4854 15.3049 15.6166 15.3049 15.6946 15.3828C15.7356 15.4239 15.7561 15.4731 15.7561 15.5264C15.7561 15.5798 15.7356 15.629 15.6946 15.67C15.6536 15.7111 15.6043 15.7275 15.551 15.7275C15.4977 15.7316 15.4443 15.7111 15.4074 15.67ZM14.833 15.0957C14.792 15.0546 14.7715 15.0054 14.7715 14.9521C14.7715 14.8987 14.792 14.8495 14.833 14.8085C14.911 14.7305 15.0382 14.7305 15.1202 14.8085C15.1612 14.8495 15.1777 14.8987 15.1777 14.9521C15.1777 15.0054 15.1571 15.0546 15.1202 15.0957C15.0792 15.1367 15.03 15.1572 14.9766 15.1572C14.9233 15.1572 14.8741 15.1367 14.833 15.0957Z" fill="white"/>
<path d="M13.1141 32.8689C13.0731 32.8279 13.0566 32.7786 13.0566 32.7253C13.0566 32.6719 13.0772 32.6227 13.1141 32.5817C13.192 32.5037 13.3233 32.5037 13.4013 32.5817C13.4423 32.6227 13.4628 32.6719 13.4628 32.7253C13.4628 32.7786 13.4423 32.8279 13.4013 32.8689C13.3602 32.9099 13.311 32.9263 13.2577 32.9263C13.2043 32.9263 13.151 32.9058 13.1141 32.8689ZM13.6885 32.2945C13.6474 32.2535 13.6269 32.2042 13.6269 32.1509C13.6269 32.0976 13.6474 32.0483 13.6885 32.0073C13.7664 31.9294 13.8977 31.9294 13.9756 32.0073C14.0167 32.0483 14.0331 32.0976 14.0331 32.1509C14.0331 32.2042 14.0126 32.2535 13.9756 32.2945C13.9346 32.3355 13.8854 32.3519 13.8321 32.3519C13.7787 32.3519 13.7254 32.3355 13.6885 32.2945ZM14.2587 31.7201C14.2177 31.6791 14.2013 31.6299 14.2013 31.5765C14.2013 31.5232 14.2218 31.474 14.2587 31.4329C14.3367 31.355 14.468 31.355 14.5459 31.4329C14.5869 31.474 14.6034 31.5232 14.6034 31.5765C14.6034 31.6299 14.5828 31.6791 14.5459 31.7201C14.5049 31.7611 14.4557 31.7817 14.4023 31.7817C14.3531 31.7817 14.2998 31.7611 14.2587 31.7201ZM14.8331 31.1457C14.7921 31.1047 14.7757 31.0555 14.7757 31.0021C14.7757 30.9488 14.7962 30.8996 14.8331 30.8585C14.9111 30.7806 15.0423 30.7806 15.1203 30.8585C15.1613 30.8996 15.1818 30.9488 15.1818 31.0021C15.1818 31.0555 15.1613 31.1047 15.1203 31.1457C15.0793 31.1868 15.03 31.2073 14.9767 31.2073C14.9234 31.2073 14.8741 31.1868 14.8331 31.1457ZM15.4075 30.5755C15.3665 30.5344 15.3459 30.4852 15.3459 30.4319C15.3459 30.3785 15.3665 30.3293 15.4075 30.2883C15.4854 30.2103 15.6126 30.2103 15.6947 30.2883C15.7357 30.3293 15.7562 30.3785 15.7562 30.4319C15.7562 30.4852 15.7357 30.5344 15.6947 30.5755C15.6536 30.6165 15.6044 30.6329 15.5511 30.6329C15.4977 30.6329 15.4444 30.6124 15.4075 30.5755ZM15.9778 30.0011C15.9367 29.9601 15.9203 29.9108 15.9203 29.8575C15.9203 29.8042 15.9408 29.7549 15.9778 29.7139C16.0557 29.6359 16.187 29.6359 16.2649 29.7139C16.306 29.7549 16.3265 29.8042 16.3265 29.8575C16.3265 29.9108 16.306 29.9601 16.2649 30.0011C16.2239 30.0421 16.1747 30.0585 16.1214 30.0585C16.0721 30.0585 16.0188 30.0421 15.9778 30.0011ZM16.5521 29.4267C16.5111 29.3857 16.4906 29.3364 16.4906 29.2831C16.4906 29.2298 16.5111 29.1805 16.5521 29.1395C16.6301 29.0616 16.7614 29.0616 16.8393 29.1395C16.8804 29.1805 16.8968 29.2298 16.8968 29.2831C16.8968 29.3364 16.8763 29.3857 16.8393 29.4267C16.7983 29.4677 16.7491 29.4882 16.6957 29.4882C16.6424 29.4882 16.5932 29.4677 16.5521 29.4267ZM17.1265 28.8564C17.0855 28.8154 17.065 28.7662 17.065 28.7128C17.065 28.6595 17.0855 28.6103 17.1265 28.5692C17.2045 28.4913 17.3358 28.4913 17.4137 28.5692C17.4547 28.6103 17.4752 28.6595 17.4752 28.7128C17.4752 28.7662 17.4547 28.8154 17.4137 28.8564C17.3727 28.8975 17.3234 28.9139 17.2701 28.9139C17.2168 28.9139 17.1675 28.8934 17.1265 28.8564ZM17.7009 28.282C17.6599 28.241 17.6435 28.1918 17.6435 28.1385C17.6435 28.0851 17.664 28.0359 17.7009 27.9949C17.7788 27.9169 17.9101 27.9169 17.9881 27.9949C18.0291 28.0359 18.0455 28.0851 18.0455 28.1385C18.0455 28.1918 18.025 28.241 17.9881 28.282C17.9471 28.3231 17.8978 28.3436 17.8445 28.3436C17.7912 28.3395 17.7378 28.319 17.7009 28.282ZM18.2712 27.7077C18.2301 27.6666 18.2137 27.6174 18.2137 27.5641C18.2137 27.5107 18.2342 27.4615 18.2712 27.4205C18.3491 27.3425 18.4804 27.3425 18.5584 27.4205C18.5994 27.4615 18.6199 27.5107 18.6199 27.5641C18.6199 27.6174 18.5994 27.6666 18.5584 27.7077C18.5173 27.7487 18.4681 27.7692 18.4148 27.7692C18.3655 27.7692 18.3122 27.7487 18.2712 27.7077ZM18.8455 27.1374C18.8045 27.0964 18.784 27.0471 18.784 26.9938C18.784 26.9405 18.8045 26.8912 18.8455 26.8502C18.9235 26.7723 19.0507 26.7723 19.1327 26.8502C19.1738 26.8912 19.1902 26.9405 19.1902 26.9938C19.1902 27.0471 19.1697 27.0964 19.1327 27.1374C19.0917 27.1784 19.0425 27.1948 18.9891 27.1948C18.9358 27.1948 18.8866 27.1743 18.8455 27.1374ZM19.4199 26.563C19.3789 26.522 19.3625 26.4728 19.3625 26.4194C19.3625 26.3661 19.383 26.3168 19.4199 26.2758C19.4979 26.1979 19.6292 26.1979 19.7071 26.2758C19.7481 26.3168 19.7645 26.3661 19.7645 26.4194C19.7645 26.4728 19.744 26.522 19.7071 26.563C19.6661 26.604 19.6169 26.6246 19.5635 26.6246C19.5102 26.6205 19.4568 26.5999 19.4199 26.563ZM19.9902 25.9886C19.9492 25.9476 19.9287 25.8984 19.9287 25.845C19.9287 25.7917 19.9492 25.7425 19.9902 25.7014C20.0681 25.6235 20.1994 25.6235 20.2774 25.7014C20.3184 25.7425 20.3348 25.7917 20.3348 25.845C20.3348 25.8984 20.3143 25.9476 20.2774 25.9886C20.2364 26.0297 20.1871 26.0502 20.1338 26.0502C20.0846 26.0461 20.0312 26.0297 19.9902 25.9886ZM20.5646 25.4143C20.5235 25.3732 20.5071 25.324 20.5071 25.2707C20.5071 25.2173 20.5277 25.1681 20.5646 25.1271C20.6425 25.0491 20.7738 25.0491 20.8518 25.1271C20.8928 25.1681 20.9133 25.2173 20.9133 25.2707C20.9133 25.324 20.8928 25.3732 20.8518 25.4143C20.8107 25.4553 20.7615 25.4758 20.7082 25.4758C20.6548 25.4758 20.6056 25.4553 20.5646 25.4143ZM21.139 24.844C21.0979 24.803 21.0815 24.7537 21.0815 24.7004C21.0815 24.647 21.102 24.5978 21.139 24.5568C21.2169 24.4788 21.3482 24.4788 21.4261 24.5568C21.4672 24.5978 21.4877 24.647 21.4877 24.7004C21.4877 24.7537 21.4672 24.803 21.4261 24.844C21.3851 24.885 21.3359 24.9055 21.2825 24.9055C21.2292 24.9014 21.18 24.8809 21.139 24.844ZM21.7133 24.2696C21.6723 24.2286 21.6518 24.1793 21.6518 24.126C21.6518 24.0727 21.6723 24.0234 21.7133 23.9824C21.7913 23.9045 21.9185 23.9045 22.0005 23.9824C22.0415 24.0234 22.0621 24.0727 22.0621 24.126C22.0621 24.1793 22.0415 24.2286 22.0005 24.2696C21.9595 24.3106 21.9103 24.327 21.8569 24.327C21.8036 24.327 21.7503 24.3065 21.7133 24.2696ZM22.2836 23.6952C22.2426 23.6542 22.2221 23.605 22.2221 23.5516C22.2221 23.4983 22.2426 23.4491 22.2836 23.408C22.3616 23.3301 22.4887 23.3301 22.5708 23.408C22.6118 23.4491 22.6282 23.4983 22.6282 23.5516C22.6282 23.605 22.6077 23.6542 22.5708 23.6952C22.5298 23.7362 22.4805 23.7527 22.4272 23.7527C22.378 23.7568 22.3246 23.7362 22.2836 23.6952ZM22.858 23.1208C22.817 23.0798 22.8005 23.0306 22.8005 22.9772C22.8005 22.9239 22.8211 22.8747 22.858 22.8336C22.9359 22.7557 23.0672 22.7557 23.1452 22.8336C23.1862 22.8747 23.2026 22.9239 23.2026 22.9772C23.2026 23.0306 23.1821 23.0798 23.1452 23.1208C23.1041 23.1619 23.0549 23.1824 23.0016 23.1824C22.9482 23.1824 22.899 23.1619 22.858 23.1208ZM23.4324 22.5506C23.3913 22.5095 23.3749 22.4603 23.3749 22.407C23.3749 22.3536 23.3954 22.3044 23.4324 22.2634C23.5103 22.1854 23.6416 22.1854 23.7195 22.2634C23.7606 22.3044 23.777 22.3536 23.777 22.407C23.777 22.4603 23.7565 22.5095 23.7195 22.5506C23.6785 22.5916 23.6293 22.6121 23.576 22.6121C23.5226 22.608 23.4734 22.5875 23.4324 22.5506ZM24.0067 21.9762C23.9657 21.9352 23.9493 21.8859 23.9493 21.8326C23.9493 21.7793 23.9698 21.73 24.0067 21.689C24.0847 21.611 24.216 21.611 24.2939 21.689C24.335 21.73 24.3555 21.7793 24.3555 21.8326C24.3555 21.8859 24.335 21.9352 24.2939 21.9762C24.2529 22.0172 24.2037 22.0336 24.1503 22.0336C24.097 22.0336 24.0437 22.0172 24.0067 21.9762ZM24.577 21.4018C24.536 21.3608 24.5155 21.3115 24.5155 21.2582C24.5155 21.2049 24.536 21.1556 24.577 21.1146C24.655 21.0367 24.7821 21.0367 24.8642 21.1146C24.9052 21.1556 24.9216 21.2049 24.9216 21.2582C24.9216 21.3115 24.9011 21.3608 24.8642 21.4018C24.8232 21.4428 24.7739 21.4592 24.7206 21.4592C24.6673 21.4633 24.618 21.4428 24.577 21.4018ZM25.1514 20.8315C25.1104 20.7905 25.094 20.7413 25.094 20.6879C25.094 20.6346 25.1145 20.5854 25.1514 20.5443C25.2293 20.4664 25.3606 20.4664 25.4386 20.5443C25.4796 20.5854 25.5001 20.6346 25.5001 20.6879C25.5001 20.7413 25.4796 20.7905 25.4386 20.8315C25.3976 20.8726 25.3483 20.889 25.295 20.889C25.2416 20.889 25.1924 20.8685 25.1514 20.8315ZM25.7258 20.2571C25.6847 20.2161 25.6642 20.1669 25.6642 20.1136C25.6642 20.0602 25.6847 20.011 25.7258 19.97C25.8037 19.892 25.935 19.892 26.013 19.97C26.054 20.011 26.0745 20.0602 26.0745 20.1136C26.0745 20.1669 26.054 20.2161 26.013 20.2571C25.9719 20.2982 25.9227 20.3187 25.8694 20.3187C25.816 20.3146 25.7627 20.2941 25.7258 20.2571ZM26.296 19.6828C26.255 19.6417 26.2345 19.5925 26.2345 19.5392C26.2345 19.4858 26.255 19.4366 26.296 19.3956C26.374 19.3176 26.5053 19.3176 26.5832 19.3956C26.6243 19.4366 26.6407 19.4858 26.6407 19.5392C26.6407 19.5925 26.6202 19.6417 26.5832 19.6828C26.5422 19.7238 26.493 19.7443 26.4396 19.7443C26.3904 19.7443 26.3371 19.7238 26.296 19.6828ZM26.8704 19.1084C26.8294 19.0674 26.813 19.0181 26.813 18.9648C26.813 18.9115 26.8335 18.8622 26.8704 18.8212C26.9484 18.7432 27.0797 18.7432 27.1576 18.8212C27.1986 18.8622 27.2191 18.9115 27.2191 18.9648C27.2191 19.0181 27.1986 19.0674 27.1576 19.1084C27.1166 19.1494 27.0673 19.1699 27.014 19.1699C26.9607 19.1699 26.9114 19.1494 26.8704 19.1084ZM27.4448 18.5381C27.4038 18.4971 27.3833 18.4479 27.3833 18.3945C27.3833 18.3412 27.4038 18.292 27.4448 18.2509C27.5227 18.173 27.6499 18.173 27.732 18.2509C27.773 18.292 27.7935 18.3412 27.7935 18.3945C27.7935 18.4479 27.773 18.4971 27.732 18.5381C27.691 18.5791 27.6417 18.5956 27.5884 18.5956C27.5351 18.5956 27.4817 18.575 27.4448 18.5381ZM28.0192 17.9637C27.9781 17.9227 27.9576 17.8735 27.9576 17.8201C27.9576 17.7668 27.9781 17.7176 28.0192 17.6765C28.0971 17.5986 28.2243 17.5986 28.3064 17.6765C28.3474 17.7176 28.3638 17.7668 28.3638 17.8201C28.3638 17.8735 28.3433 17.9227 28.3064 17.9637C28.2653 18.0048 28.2161 18.0212 28.1628 18.0212C28.1094 18.0212 28.0561 18.0048 28.0192 17.9637ZM28.5894 17.3894C28.5484 17.3483 28.532 17.2991 28.532 17.2458C28.532 17.1924 28.5525 17.1432 28.5894 17.1022C28.6674 17.0242 28.7987 17.0242 28.8766 17.1022C28.9177 17.1432 28.9382 17.1924 28.9382 17.2458C28.9382 17.2991 28.9177 17.3483 28.8766 17.3894C28.8356 17.4304 28.7864 17.4509 28.733 17.4509C28.6838 17.4509 28.6305 17.4304 28.5894 17.3894ZM29.1638 16.815C29.1228 16.7739 29.1023 16.7247 29.1023 16.6714C29.1023 16.618 29.1228 16.5688 29.1638 16.5278C29.2418 16.4498 29.3731 16.4498 29.451 16.5278C29.492 16.5688 29.5085 16.618 29.5085 16.6714C29.5085 16.7247 29.4879 16.7739 29.451 16.815C29.41 16.856 29.3608 16.8724 29.3074 16.8724C29.2541 16.8765 29.2049 16.856 29.1638 16.815ZM29.7382 16.2447C29.6972 16.2037 29.6808 16.1544 29.6808 16.1011C29.6808 16.0478 29.7013 15.9985 29.7382 15.9575C29.8162 15.8796 29.9474 15.8796 30.0254 15.9575C30.0664 15.9985 30.0828 16.0478 30.0828 16.1011C30.0828 16.1544 30.0623 16.2037 30.0254 16.2447C29.9844 16.2857 29.9351 16.3062 29.8818 16.3062C29.8285 16.3021 29.7751 16.2816 29.7382 16.2447ZM30.3085 15.6703C30.2675 15.6293 30.251 15.5801 30.251 15.5267C30.251 15.4734 30.2716 15.4242 30.3085 15.3831C30.3864 15.3052 30.5177 15.3052 30.5957 15.3831C30.6367 15.4242 30.6572 15.4734 30.6572 15.5267C30.6572 15.5801 30.6367 15.6293 30.5957 15.6703C30.5546 15.7113 30.5054 15.7278 30.4521 15.7278C30.4028 15.7319 30.3495 15.7113 30.3085 15.6703ZM30.8829 15.0959C30.8418 15.0549 30.8213 15.0057 30.8213 14.9523C30.8213 14.899 30.8418 14.8498 30.8829 14.8087C30.9608 14.7308 31.088 14.7308 31.17 14.8087C31.2111 14.8498 31.2316 14.899 31.2316 14.9523C31.2316 15.0057 31.2111 15.0549 31.17 15.0959C31.129 15.137 31.0798 15.1575 31.0264 15.1575C30.9731 15.1575 30.9239 15.137 30.8829 15.0959ZM31.4572 14.5257C31.4162 14.4846 31.3957 14.4354 31.3957 14.3821C31.3957 14.3287 31.4162 14.2795 31.4572 14.2385C31.5352 14.1605 31.6665 14.1605 31.7444 14.2385C31.7854 14.2795 31.806 14.3287 31.806 14.3821C31.806 14.4354 31.7854 14.4846 31.7444 14.5257C31.7034 14.5667 31.6542 14.5831 31.6008 14.5831C31.5475 14.5831 31.4942 14.5626 31.4572 14.5257ZM32.0316 13.9513C31.9906 13.9103 31.9701 13.861 31.9701 13.8077C31.9701 13.7544 31.9906 13.7051 32.0316 13.6641C32.1096 13.5861 32.2408 13.5861 32.3188 13.6641C32.3598 13.7051 32.3762 13.7544 32.3762 13.8077C32.3762 13.861 32.3557 13.9103 32.3188 13.9513C32.2778 13.9923 32.2285 14.0087 32.1752 14.0087C32.1219 14.0087 32.0685 13.9923 32.0316 13.9513ZM32.6019 13.3769C32.5239 13.299 32.5239 13.1677 32.6019 13.0897C32.6798 13.0118 32.8111 13.0118 32.8891 13.0897C32.967 13.1677 32.967 13.2948 32.8891 13.3769C32.848 13.4179 32.7988 13.4343 32.7455 13.4343C32.6962 13.4384 32.6429 13.4179 32.6019 13.3769Z" fill="white"/>
<path d="M32.7585 34.6128C33.8031 34.6128 34.6499 33.766 34.6499 32.7214C34.6499 31.6769 33.8031 30.8301 32.7585 30.8301C31.714 30.8301 30.8672 31.6769 30.8672 32.7214C30.8672 33.766 31.714 34.6128 32.7585 34.6128Z" fill="white"/>
<path d="M13.2703 34.6167C14.3148 34.6167 15.1616 33.7699 15.1616 32.7253C15.1616 31.6808 14.3148 30.834 13.2703 30.834C12.2257 30.834 11.3789 31.6808 11.3789 32.7253C11.3789 33.7699 12.2257 34.6167 13.2703 34.6167Z" fill="white"/>
<path d="M32.7742 15.1089C33.8187 15.1089 34.6655 14.2621 34.6655 13.2175C34.6655 12.173 33.8187 11.3262 32.7742 11.3262C31.7296 11.3262 30.8828 12.173 30.8828 13.2175C30.8828 14.2621 31.7296 15.1089 32.7742 15.1089Z" fill="white"/>
<path d="M13.2214 15.0757C14.266 15.0757 15.1128 14.2289 15.1128 13.1843C15.1128 12.1398 14.266 11.293 13.2214 11.293C12.1769 11.293 11.3301 12.1398 11.3301 13.1843C11.3301 14.2289 12.1769 15.0757 13.2214 15.0757Z" fill="white"/>
</svg>
