<svg width="87" height="87" viewBox="0 0 87 87" fill="none" xmlns="http://www.w3.org/2000/svg">
<path d="M59.5 55V56.8333C59.5 58.85 57.85 60.5 55.8333 60.5H30.1667C28.1317 60.5 26.5 58.85 26.5 56.8333V31.1667C26.5 29.15 28.1317 27.5 30.1667 27.5H55.8333C57.85 27.5 59.5 29.15 59.5 31.1667V33H43C40.965 33 39.3333 34.65 39.3333 36.6667V51.3333C39.3333 53.35 40.965 55 43 55H59.5ZM43 51.3333H61.3333V36.6667H43V51.3333ZM50.3333 46.75C48.8117 46.75 47.5833 45.5217 47.5833 44C47.5833 42.4783 48.8117 41.25 50.3333 41.25C51.855 41.25 53.0833 42.4783 53.0833 44C53.0833 45.5217 51.855 46.75 50.3333 46.75Z" fill="#7D8AAB"/>
<circle cx="43.5" cy="43.5" r="42" stroke="url(#paint0_angular_1157:2)" stroke-width="3"/>
<defs>
<radialGradient id="paint0_angular_1157:2" cx="0" cy="0" r="1" gradientUnits="userSpaceOnUse" gradientTransform="translate(43.5 43.5) rotate(-1.606) scale(53.521)">
<stop stop-color="#F70F55"/>
<stop offset="1" stop-color="#F70F55" stop-opacity="0"/>
</radialGradient>
</defs>
</svg>
