<svg width="16" height="16" viewBox="0 0 16 16" fill="none" xmlns="http://www.w3.org/2000/svg">
<path fill-rule="evenodd" clip-rule="evenodd" d="M8 16C12.4183 16 16 12.4183 16 8C16 3.58172 12.4183 0 8 0C3.58172 0 0 3.58172 0 8C0 12.4183 3.58172 16 8 16ZM7.54207 4.20241C7.68773 4.06586 7.86949 4 8.07611 4C8.28176 4 8.46155 4.06538 8.60122 4.2041C8.74846 4.34306 8.81955 4.52395 8.81955 4.73271C8.81955 4.94752 8.74932 5.13468 8.60297 5.28103C8.46306 5.42095 8.28263 5.48688 8.07611 5.48688C7.86949 5.48688 7.68773 5.42102 7.54207 5.28447L7.53485 5.2777C7.39716 5.13082 7.33267 4.94462 7.33267 4.73271C7.33267 4.52619 7.3986 4.34576 7.53852 4.20585L7.54207 4.20241ZM6.66741 6.38207H8.68006V10.9776C8.68006 11.1012 8.68273 11.1962 8.6877 11.2642C8.68988 11.294 8.69238 11.3168 8.69492 11.3335C8.71214 11.3393 8.7397 11.3459 8.78073 11.3511L9.50627 11.4303V12H6.66741V11.4303L7.39295 11.3511C7.43398 11.3459 7.46154 11.3393 7.47877 11.3335C7.4813 11.3168 7.4838 11.294 7.48598 11.2642C7.49095 11.1962 7.49362 11.1012 7.49362 10.9776V7.40449C7.49362 7.28084 7.49095 7.18583 7.48598 7.11791C7.4838 7.08811 7.4813 7.06532 7.47877 7.04863C7.46173 7.0428 7.43458 7.03629 7.39429 7.03113L6.66741 6.96505V6.38207Z" fill="#808DBD"/>
</svg>
