<svg width="82" height="24" viewBox="0 0 82 24" fill="none" xmlns="http://www.w3.org/2000/svg">
<g clip-path="url(#clip0_1342:6522)">
<path opacity="0.9" d="M33.6407 6.09091V17H35.2067V9.1005H35.308L38.5253 16.984H39.825L43.0423 9.10582H43.1435V17H44.7096V6.09091H42.7121L39.2391 14.571H39.1112L35.6382 6.09091H33.6407ZM47.5526 17H54.456V15.5831H49.1986V12.2433H54.0352V10.8317H49.1986V7.50781H54.3921V6.09091H47.5526V17ZM65.8457 6.09091H64.2158V14.1023H64.1146L58.5641 6.09091H57.0407V17H58.6866V8.99929H58.7879L64.333 17H65.8457V6.09091ZM75.712 6.09091V13.1328C75.712 14.6136 74.6893 15.679 73.0274 15.679C71.3708 15.679 70.3427 14.6136 70.3427 13.1328V6.09091H68.6967V13.266C68.6967 15.5565 70.4119 17.1811 73.0274 17.1811C75.6428 17.1811 77.3633 15.5565 77.3633 13.266V6.09091H75.712Z" fill="#6A76A3"/>
<path fill-rule="evenodd" clip-rule="evenodd" d="M12 5C12 4.44772 12.4477 4 13 4H21C21.5523 4 22 4.44772 22 5C22 5.55228 21.5523 6 21 6H13C12.4477 6 12 5.55228 12 5ZM2 17C2 16.4477 2.44772 16 3 16H21C21.5523 16 22 16.4477 22 17C22 17.5523 21.5523 18 21 18H3C2.44772 18 2 17.5523 2 17ZM8 10C7.44772 10 7 10.4477 7 11C7 11.5523 7.44772 12 8 12H21C21.5523 12 22 11.5523 22 11C22 10.4477 21.5523 10 21 10H8Z" fill="#6A76A3"/>
</g>
<defs>
<clipPath id="clip0_1342:6522">
<rect x="82" width="24" height="82" rx="6" transform="rotate(90 82 0)" fill="white"/>
</clipPath>
</defs>
</svg>
