<svg xmlns="http://www.w3.org/2000/svg" width="26" height="26" viewBox="0 0 26 26">
  <g id="updown" transform="translate(-9 -8)">
    <rect id="Rectangle_1" data-name="Rectangle 1" width="25" height="25" rx="6.5" transform="translate(9.5 8.5)" fill="#292f40" stroke="#414c72" stroke-width="1"/>
    <path id="Path_1" data-name="Path 1" d="M21.745,23.153a.431.431,0,0,1,0,.61L20.02,25.488l-.006.006-.025.023-.017.013-.017.012-.02.012-.016.01-.02.01-.018.008-.02.007-.02.007-.02.005-.021.005-.023,0-.019,0a.432.432,0,0,1-.085,0l-.019,0-.023,0L19.61,25.6l-.02-.005-.02-.007-.02-.007-.018-.008-.02-.01-.016-.01-.02-.012-.017-.012-.017-.013-.025-.023-.006-.006-1.725-1.725a.431.431,0,1,1,.61-.61l.989.989V16.558a.431.431,0,0,1,.862,0v7.584l.989-.989a.431.431,0,0,1,.61,0Zm5.175-5.175-1.725-1.725-.006-.005-.026-.023-.017-.013-.017-.012-.02-.012-.016-.01-.02-.01-.018-.008-.02-.007-.02-.007L25,16.14l-.021-.005-.023,0-.019,0a.432.432,0,0,0-.085,0l-.019,0-.023,0-.021.005-.02.005-.02.007-.02.007-.018.008-.02.01-.016.01-.02.012-.017.012-.017.013-.026.023-.006.005L22.86,17.978a.431.431,0,0,0,.61.61l.989-.989v7.584a.431.431,0,0,0,.863,0V17.6l.989.989a.431.431,0,0,0,.61-.61Z" fill="#fff"/>
  </g>
</svg>
