<svg width="12" height="12" viewBox="0 0 12 12" fill="none" xmlns="http://www.w3.org/2000/svg">
<g clip-path="url(#clip0_1342:6447)">
<path d="M6.89321 6.0078L11.815 1.08598C12.0617 0.839327 12.0617 0.439437 11.815 0.192804C11.5684 -0.0538515 11.1685 -0.0538515 10.9218 0.192804L5.99999 5.11462L1.07817 0.192804C0.831514 -0.0538515 0.431624 -0.0538515 0.184992 0.192804C-0.0616405 0.43946 -0.061664 0.83935 0.184992 1.08598L5.10681 6.0078L0.184992 10.9296C-0.061664 11.1763 -0.061664 11.5762 0.184992 11.8228C0.431648 12.0695 0.831538 12.0694 1.07817 11.8228L5.99999 6.90098L10.9218 11.8228C11.1684 12.0695 11.5684 12.0694 11.815 11.8228C12.0616 11.5761 12.0616 11.1763 11.815 10.9296L6.89321 6.0078Z" fill="white" stroke="white" stroke-width="0.3"/>
</g>
<defs>
<clipPath id="clip0_1342:6447">
<rect width="12" height="12" fill="white"/>
</clipPath>
</defs>
</svg>
